<svg width="247" height="86" viewBox="0 0 247 86" fill="none" xmlns="http://www.w3.org/2000/svg">
<g clip-path="url(#clip0_1_4745)">
<path d="M3.53418 85.6228H242.589" stroke="#1B3764" stroke-width="1.5" stroke-miterlimit="10"/>
<path d="M45.6514 23.6325C45.6514 23.6325 49.7634 1.63913 77.4263 0.38208C77.4263 0.38208 87.1458 0.633491 98.3605 10.1871C98.3605 10.1871 65.6335 -3.64049 47.2314 27.9115C47.2314 27.9065 46.7728 27.0266 45.6514 23.6325Z" fill="#1B3764"/>
<path d="M51.8819 21.1989C51.8819 21.1989 67.9588 12.6963 89.1421 34.0662C89.1421 34.0662 53.2551 23.7583 46.7755 31.8035C46.773 31.8035 46.773 27.0266 51.8819 21.1989Z" fill="#1B3764"/>
<path d="M45.6515 23.6325C45.6515 23.6325 28.9067 -1.00571 2.07617 14.1468C2.07617 14.1468 30.9104 9.18144 45.5269 33.5683C45.5269 33.5632 48.5175 30.7877 45.6515 23.6325Z" fill="#1B3764"/>
<path d="M38.7975 25.2668C38.7975 25.2668 15.3713 31.0493 12.6299 52.1678C12.6299 52.1678 22.1001 36.5803 34.8101 35.8261C34.8101 35.8261 34.5608 28.2838 42.5357 29.5408C42.5357 29.5408 40.4997 27.1524 38.7975 25.2668Z" fill="#1B3764"/>
<path d="M40.2931 40.1C43.1835 40.1 45.5266 37.7362 45.5266 34.8204C45.5266 31.9045 43.1835 29.5408 40.2931 29.5408C37.4027 29.5408 35.0596 31.9045 35.0596 34.8204C35.0596 37.7362 37.4027 40.1 40.2931 40.1Z" fill="#1B3764"/>
<path d="M51.8814 42.3627C55.3911 42.3627 58.2364 39.4924 58.2364 35.9517C58.2364 32.4111 55.3911 29.5408 51.8814 29.5408C48.3716 29.5408 45.5264 32.4111 45.5264 35.9517C45.5264 39.4924 48.3716 42.3627 51.8814 42.3627Z" fill="#1B3764"/>
<path d="M43.4581 39.0239C43.4581 39.0239 44.4201 63.0135 24.4131 85.6228H41.6638C41.6638 85.6228 52.0336 54.6817 50.648 42.3626C50.648 42.3626 45.7758 41.1056 45.5266 35.9517C45.5266 35.9517 44.8762 38.2143 43.4581 39.0239Z" fill="#1B3764"/>
<path d="M28.3984 80.7456C28.3984 80.7456 38.1054 83.0586 44.1838 77.5452" stroke="white" stroke-miterlimit="10"/>
<path d="M33.2578 73.5048C33.2578 73.5048 41.0458 75.1767 46.1522 70.5859" stroke="white" stroke-miterlimit="10"/>
<path d="M37.0488 66.2541C37.0488 66.2541 45.2331 67.4156 47.8723 63.8154" stroke="white" stroke-miterlimit="10"/>
<path d="M39.7051 59.6095C39.7051 59.6095 43.9916 62.0884 48.9958 58.7622" stroke="white" stroke-miterlimit="10"/>
<path d="M41.6367 53.0477C41.6367 53.0477 46.8279 55.6875 50.1649 52.1677" stroke="white" stroke-miterlimit="10"/>
<path d="M42.8125 47.1368C42.8125 47.1368 48.046 49.0325 50.7699 45.5706" stroke="white" stroke-miterlimit="10"/>
<path d="M201.352 23.6325C201.352 23.6325 197.24 1.63913 169.577 0.38208C169.577 0.38208 159.857 0.633491 148.643 10.1871C148.643 10.1871 181.367 -3.64049 199.772 27.9115C199.772 27.9065 200.23 27.0266 201.352 23.6325Z" fill="#1B3764"/>
<path d="M195.121 21.1989C195.121 21.1989 179.047 12.6963 157.863 34.0662C157.863 34.0662 193.75 23.7583 200.23 31.8035C200.23 31.8035 200.23 27.0266 195.121 21.1989Z" fill="#1B3764"/>
<path d="M201.352 23.6325C201.352 23.6325 218.096 -1.00571 244.924 14.1468C244.924 14.1468 216.093 9.18144 201.476 33.5683C201.476 33.5632 198.486 30.7877 201.352 23.6325Z" fill="#1B3764"/>
<path d="M208.205 25.2668C208.205 25.2668 231.631 31.0493 234.373 52.1678C234.373 52.1678 224.902 36.5803 212.192 35.8261C212.192 35.8261 212.442 28.2838 204.467 29.5408C204.467 29.5408 206.503 27.1524 208.205 25.2668Z" fill="#1B3764"/>
<path d="M206.707 40.1C209.598 40.1 211.941 37.7362 211.941 34.8204C211.941 31.9045 209.598 29.5408 206.707 29.5408C203.817 29.5408 201.474 31.9045 201.474 34.8204C201.474 37.7362 203.817 40.1 206.707 40.1Z" fill="#1B3764"/>
<path d="M195.119 42.3627C198.628 42.3627 201.474 39.4924 201.474 35.9517C201.474 32.4111 198.628 29.5408 195.119 29.5408C191.609 29.5408 188.764 32.4111 188.764 35.9517C188.764 39.4924 191.609 42.3627 195.119 42.3627Z" fill="#1B3764"/>
<path d="M203.544 39.0239C203.544 39.0239 202.583 63.0135 222.59 85.6228H205.336C205.336 85.6228 194.969 54.6817 196.365 42.3626C196.365 42.3626 201.239 41.1056 201.488 35.9517C201.476 35.9517 202.124 38.2143 203.544 39.0239Z" fill="#1B3764"/>
<path d="M218.607 80.7456C218.607 80.7456 208.903 83.0586 202.824 77.5452" stroke="white" stroke-miterlimit="10"/>
<path d="M213.745 73.5048C213.745 73.5048 205.954 75.1767 200.848 70.5859" stroke="white" stroke-miterlimit="10"/>
<path d="M209.954 66.2541C209.954 66.2541 201.77 67.4156 199.131 63.8154" stroke="white" stroke-miterlimit="10"/>
<path d="M207.298 59.6095C207.298 59.6095 203.011 62.0884 198.007 58.7622" stroke="white" stroke-miterlimit="10"/>
<path d="M205.364 53.0477C205.364 53.0477 200.172 55.6875 196.838 52.1677" stroke="white" stroke-miterlimit="10"/>
<path d="M204.187 47.1368C204.187 47.1368 198.966 49.0325 196.232 45.5706" stroke="white" stroke-miterlimit="10"/>
<path d="M50.7773 49.6787C50.7773 49.6787 114.654 85.9095 196.225 49.6787C196.225 49.6787 122.068 75.0988 50.7773 49.6787Z" fill="#FFCA42"/>
</g>
<defs>
<clipPath id="clip0_1_4745">
<rect width="247" height="86" fill="white"/>
</clipPath>
</defs>
</svg>
