<svg width="42" height="42" viewBox="0 0 42 42" fill="none" xmlns="http://www.w3.org/2000/svg">
<path d="M32.3715 24.8204C32.3715 23.8848 33.2566 23.8068 33.2566 23.8068H34.9639V41.9966H33.6677C32.2974 41.9966 32.3715 41.0095 32.3715 41.0095V24.8204Z" fill="#333333"/>
<path d="M9.63305 24.8204V41.0095C9.63305 41.0095 9.70712 41.9966 8.33687 41.9966H7.04069V23.8068H8.74424C8.74424 23.8068 9.63305 23.8848 9.63305 24.8204Z" fill="#333333"/>
<path d="M2.67006 24.3032V16.7177C2.67006 12.212 4.60322 7.9854 8.11329 4.82461C11.5656 1.71372 16.143 0 21.0011 0C25.8592 0 30.438 1.71528 33.8888 4.82461C37.4011 7.99164 39.3336 12.212 39.3336 16.7177V24.3032C40.5972 24.831 42 25.9093 42 28.0955V37.6855C42 37.6855 41.883 41.9963 37.9048 41.9963H35.8346V23.8073H36.7412V16.7177C36.7412 9.00522 29.6811 2.72885 21.0018 2.72885C12.3226 2.72885 5.26243 9.00522 5.26243 16.7177V23.8073H6.16901V41.9963H4.09512C0.116944 41.9963 -8.48955e-05 37.6855 -8.48955e-05 37.6855V28.0955C0.00361964 25.9093 1.4072 24.8326 2.67006 24.3032Z" fill="#333333"/>
</svg>
