<svg width="189" height="76" viewBox="0 0 189 76" fill="none" xmlns="http://www.w3.org/2000/svg">
<path d="M16.0885 30.1807V30.5344C15.7348 30.5445 15.467 30.5899 15.28 30.6657C15.0981 30.7415 14.9769 30.883 14.9162 31.0902C14.8556 31.2973 14.8253 31.6207 14.8253 32.0553V40.8524C14.8253 41.2769 14.8556 41.5952 14.9213 41.8125C14.987 42.0247 15.1082 42.1662 15.2851 42.2369C15.462 42.3077 15.7298 42.3531 16.0835 42.3784V42.7321C15.7146 42.7068 15.2497 42.6917 14.6838 42.6866C14.1179 42.6816 13.5368 42.6765 12.9456 42.6765C12.3089 42.6765 11.7076 42.6816 11.1468 42.6866C10.5859 42.6917 10.1311 42.7068 9.78752 42.7321V42.3784C10.1918 42.3531 10.4949 42.3077 10.7021 42.2369C10.9093 42.1662 11.0457 42.0247 11.1215 41.8125C11.1922 41.6003 11.2276 41.2819 11.2276 40.8524V31.3681L11.4045 31.3327L6.95283 42.722H6.66986L1.66747 31.3327V39.2658C1.66747 40.0591 1.69778 40.6655 1.76347 41.0849C1.82916 41.5043 1.9858 41.8074 2.2435 41.9893C2.49615 42.1712 2.90038 42.3077 3.4562 42.3885V42.7422C3.21871 42.717 2.91049 42.7018 2.53152 42.6967C2.15255 42.6917 1.79884 42.6866 1.46535 42.6866C1.2026 42.6866 0.939844 42.6917 0.666986 42.6967C0.404234 42.7018 0.176852 42.717 0 42.7422V42.3885C0.368864 42.3077 0.636669 42.1763 0.813521 42.0095C0.990373 41.8377 1.10659 41.5649 1.16723 41.1859C1.22786 40.807 1.25818 40.2865 1.25818 39.6246V32.0603C1.25818 31.6207 1.22786 31.3024 1.16723 31.0952C1.10659 30.8881 0.98532 30.7466 0.803415 30.6708C0.62151 30.595 0.353705 30.5495 0 30.5344V30.1807C0.176852 30.1908 0.404234 30.2059 0.672039 30.216C0.944897 30.2261 1.20765 30.2362 1.4704 30.2362C2.1576 30.2362 2.81448 30.2312 3.44104 30.216C4.06761 30.2059 4.63353 30.1908 5.14388 30.1807L8.65566 38.0935L8.1251 38.6797L11.4045 30.2362C11.6419 30.2362 11.8946 30.2362 12.1674 30.2362C12.4403 30.2362 12.698 30.2362 12.9456 30.2362C13.5368 30.2362 14.1179 30.2312 14.6838 30.216C15.2548 30.2059 15.7247 30.1908 16.0885 30.1807Z" fill="#1B3764"/>
<path d="M28.7709 30.1807C28.7255 30.7718 28.6901 31.3428 28.6749 31.8936C28.6547 32.4444 28.6497 32.8688 28.6497 33.1619C28.6497 33.4095 28.6547 33.647 28.6648 33.8693C28.6749 34.0967 28.6901 34.2836 28.7002 34.4352H28.296C28.1545 33.4549 27.917 32.6818 27.5885 32.121C27.255 31.5601 26.871 31.1609 26.4264 30.9335C25.9817 30.7011 25.5168 30.5899 25.0318 30.5899H24.7993C24.4911 30.5899 24.2637 30.6152 24.1071 30.6708C23.9555 30.7213 23.8494 30.8274 23.7988 30.979C23.7483 31.1306 23.718 31.3731 23.718 31.7066V41.2162C23.718 41.5346 23.7433 41.7771 23.7988 41.9338C23.8544 42.0954 23.9555 42.2016 24.1071 42.2521C24.2587 42.3077 24.4911 42.3329 24.7993 42.3329H25.3855C25.7745 42.3329 26.1889 42.2066 26.6184 41.954C27.0479 41.7013 27.4471 41.2668 27.8159 40.6503C28.1848 40.0339 28.4627 39.1951 28.6497 38.1289H29.0589C29.0236 38.5533 29.0084 39.0991 29.0084 39.761C29.0084 40.0591 29.0135 40.4785 29.0236 41.0293C29.0337 41.58 29.0691 42.151 29.1297 42.7422C28.5284 42.717 27.8462 42.7018 27.0883 42.6967C26.3304 42.6917 25.6583 42.6866 25.0671 42.6866C24.6427 42.6866 24.0717 42.6866 23.3542 42.6866C22.6367 42.6866 21.8838 42.6917 21.0854 42.6967C20.2871 42.7018 19.5443 42.717 18.8571 42.7422V42.3885C19.226 42.3633 19.4938 42.3178 19.6757 42.247C19.8525 42.1763 19.9687 42.0348 20.0294 41.8226C20.09 41.6104 20.1203 41.292 20.1203 40.8625V32.0603C20.1203 31.6207 20.09 31.3024 20.0294 31.0952C19.9687 30.8881 19.8475 30.7466 19.6656 30.6708C19.4836 30.595 19.2108 30.5495 18.8571 30.5394V30.1857C19.5443 30.1958 20.2871 30.211 21.0854 30.2211C21.8838 30.2312 22.6417 30.2413 23.3542 30.2413C24.0717 30.2413 24.6376 30.2413 25.0671 30.2413C25.6128 30.2413 26.2293 30.2362 26.9216 30.2312C27.6088 30.2211 28.2303 30.2059 28.7709 30.1807ZM26.199 36.2492V36.6029H23.1824V36.2492H26.199ZM26.7144 33.9047C26.6689 34.5767 26.6436 35.0921 26.6538 35.4458C26.6588 35.7995 26.6639 36.1279 26.6639 36.421C26.6639 36.7191 26.6689 37.0425 26.6841 37.3962C26.6942 37.7499 26.7245 38.2653 26.775 38.9374H26.3657C26.295 38.4978 26.1485 38.1036 25.9312 37.7499C25.7139 37.3962 25.4309 37.1133 25.0873 36.9061C24.7437 36.6989 24.3496 36.5979 23.8999 36.5979V36.2442C24.3496 36.2442 24.7387 36.1178 25.0722 35.8702C25.4006 35.6227 25.6735 35.3195 25.8857 34.9557C26.0979 34.5969 26.2394 34.2432 26.3102 33.8996H26.7144V33.9047Z" fill="#1B3764"/>
<path d="M39.1859 29.9332C40.0146 29.9332 40.6917 30.0444 41.2273 30.2718C41.7579 30.4941 42.2278 30.767 42.627 31.0853C42.7583 31.1914 42.8746 31.247 42.9807 31.247C43.203 31.247 43.3546 30.8933 43.4253 30.1808H43.8346C43.8094 30.6558 43.7942 31.2318 43.779 31.9089C43.7689 32.5911 43.7588 33.4905 43.7588 34.6122H43.3546C43.2737 33.7583 43.1272 33.0509 42.92 32.4748C42.7129 31.9039 42.3137 31.4137 41.7225 31.0095C41.4749 30.8427 41.1818 30.7164 40.8534 30.6204C40.5199 30.5244 40.2016 30.4789 39.8933 30.4789C39.2061 30.4789 38.6402 30.6659 38.1905 31.0398C37.7408 31.4137 37.382 31.8988 37.1193 32.4951C36.8515 33.0913 36.6645 33.7431 36.5533 34.4455C36.4371 35.1529 36.3816 35.835 36.3816 36.497C36.3816 38.6243 36.6393 40.1806 37.1597 41.1608C37.6802 42.1411 38.3724 42.6312 39.2365 42.6312C39.4234 42.6312 39.5902 42.611 39.7316 42.5756C39.8731 42.5403 39.9994 42.4897 40.1056 42.4139C40.2369 42.3179 40.3279 42.2017 40.3885 42.0602C40.4492 41.9188 40.4795 41.7419 40.4795 41.5297V39.7561C40.4795 39.175 40.434 38.7455 40.3481 38.4626C40.2571 38.1796 40.0853 37.9825 39.8226 37.8764C39.5598 37.7703 39.1859 37.7097 38.6857 37.6996V37.3459C38.9585 37.356 39.287 37.3661 39.6811 37.3711C40.0702 37.3762 40.4795 37.3812 40.9039 37.3913C41.3284 37.3964 41.7225 37.4014 42.0762 37.4014C42.6421 37.4014 43.1676 37.3964 43.6477 37.3812C44.1277 37.3711 44.5117 37.356 44.8098 37.3459V37.6996C44.5168 37.7248 44.3197 37.8158 44.2237 37.9825C44.1277 38.1493 44.0822 38.5636 44.0822 39.2256V42.7373H43.7285C43.7184 42.5352 43.6679 42.3179 43.587 42.0805C43.5062 41.843 43.3697 41.7267 43.1777 41.7267C43.0817 41.7267 42.9504 41.752 42.7786 41.7975C42.6068 41.843 42.3389 41.9592 41.9701 42.136C41.5103 42.3584 41.0201 42.5605 40.5047 42.7323C39.9893 42.9041 39.479 42.99 38.9686 42.99C36.7454 42.99 35.0779 42.4241 33.9663 41.2972C32.8546 40.1704 32.2988 38.5939 32.2988 36.5677C32.2988 35.2438 32.5919 34.0817 33.178 33.0913C33.7641 32.0959 34.5726 31.3228 35.6085 30.767C36.6443 30.2111 37.8368 29.9332 39.1859 29.9332Z" fill="#1B3764"/>
<path d="M53.6971 30.1807L57.9921 41.2516C58.1588 41.6558 58.3357 41.9388 58.5227 42.1106C58.7096 42.2824 58.8814 42.3734 59.0381 42.3835V42.7372C58.6136 42.7119 58.1134 42.6967 57.5474 42.6917C56.9815 42.6866 56.4004 42.6816 55.8092 42.6816C55.2079 42.6816 54.637 42.6866 54.1064 42.6917C53.5758 42.6967 53.1463 42.7119 52.828 42.7372V42.3835C53.4293 42.3582 53.8133 42.2571 53.97 42.0752C54.1317 41.8933 54.0912 41.4992 53.8538 40.8979L51.014 33.0406L51.3677 32.4191L48.9221 38.7858C48.533 39.8014 48.341 40.5644 48.3461 41.0748C48.3511 41.5851 48.5027 41.9236 48.8008 42.0954C49.0939 42.2672 49.483 42.3633 49.9529 42.3885V42.7422C49.5133 42.717 49.1242 42.7018 48.7756 42.6967C48.4269 42.6917 48.0429 42.6866 47.6336 42.6866C47.4113 42.6866 47.1687 42.6917 46.9161 42.6967C46.6634 42.7018 46.4462 42.717 46.2693 42.7422V42.3885C46.5422 42.343 46.81 42.1662 47.0778 41.863C47.3456 41.5598 47.6184 41.0444 47.9014 40.3118L51.8376 30.1807C52.1206 30.2059 52.4339 30.216 52.7674 30.216C53.1009 30.216 53.4142 30.2059 53.6971 30.1807ZM54.3186 37.6337V37.9874H49.0333L49.2101 37.6337H54.3186Z" fill="#1B3764"/>
<path d="M72.889 30.1807V30.5344C72.5353 30.6051 72.2675 30.7314 72.0805 30.9083C71.8986 31.0851 71.7773 31.363 71.7167 31.7319C71.6561 32.1058 71.6257 32.6263 71.6257 33.3034V42.7422C71.4489 42.717 71.2569 42.7069 71.0497 42.7069C70.8425 42.7069 70.6202 42.717 70.3827 42.7422L62.5254 34.1573V39.2658C62.5254 40.0591 62.5557 40.6655 62.6214 41.0849C62.6871 41.5043 62.8438 41.8074 63.1015 41.9893C63.3541 42.1712 63.7583 42.3077 64.3142 42.3885V42.7422C64.0767 42.717 63.7684 42.7018 63.3895 42.6967C63.0105 42.6917 62.6568 42.6866 62.3233 42.6866C62.0606 42.6866 61.7978 42.6917 61.5249 42.6967C61.2521 42.7018 61.0298 42.717 60.8529 42.7422V42.3885C61.2218 42.3077 61.4896 42.1763 61.6664 42.0095C61.8433 41.8377 61.9595 41.5649 62.0201 41.1859C62.0808 40.807 62.1111 40.2865 62.1111 39.6246V32.0603C62.1111 31.6207 62.0808 31.3024 62.0201 31.0952C61.9595 30.8881 61.8382 30.7466 61.6563 30.6708C61.4744 30.595 61.2016 30.5495 60.8479 30.5394V30.1857C61.0247 30.1958 61.2521 30.211 61.5199 30.2211C61.7928 30.2312 62.0555 30.2413 62.3183 30.2413C62.6113 30.2413 62.9044 30.2362 63.1874 30.2211C63.4703 30.211 63.723 30.1958 63.9504 30.1857L71.2064 37.851V33.6571C71.2064 32.8638 71.176 32.2574 71.1103 31.838C71.0447 31.4186 70.888 31.1154 70.6404 30.9234C70.3928 30.7365 69.9835 30.6051 69.4176 30.5344V30.1807C69.6551 30.1908 69.9633 30.2059 70.3423 30.216C70.7213 30.2261 71.075 30.2362 71.4085 30.2362C71.6813 30.2362 71.9491 30.2312 72.2169 30.216C72.4898 30.2059 72.7121 30.1908 72.889 30.1807Z" fill="#1B3764"/>
<path d="M117.112 30.1807C117.455 30.1908 117.905 30.2059 118.471 30.216C119.032 30.2261 119.598 30.2362 120.163 30.2362C120.755 30.2362 121.321 30.2312 121.866 30.216C122.412 30.2059 122.796 30.1958 123.018 30.1958C124.64 30.1958 125.843 30.4586 126.636 30.974C127.43 31.4944 127.824 32.1614 127.824 32.98C127.824 33.3943 127.677 33.8238 127.379 34.2685C127.086 34.7131 126.636 35.1022 126.03 35.4407C125.429 35.7793 124.661 36.0067 123.726 36.1229V36.1583C124.944 36.2189 125.919 36.4059 126.651 36.7242C127.384 37.0425 127.915 37.4316 128.248 37.8864C128.582 38.3411 128.743 38.811 128.743 39.2961C128.743 40.4785 128.268 41.3476 127.323 41.9034C126.379 42.4593 125.075 42.7372 123.423 42.7372C123.14 42.7372 122.72 42.7271 122.17 42.7119C121.619 42.6917 120.962 42.6866 120.194 42.6866C119.603 42.6866 119.027 42.6917 118.466 42.6967C117.905 42.7018 117.45 42.717 117.106 42.7422V42.3885C117.47 42.3633 117.743 42.3178 117.92 42.247C118.097 42.1763 118.213 42.0348 118.274 41.8226C118.334 41.6104 118.365 41.292 118.365 40.8625V32.0603C118.365 31.6207 118.334 31.3024 118.274 31.0952C118.213 30.8881 118.092 30.7466 117.91 30.6708C117.728 30.595 117.46 30.5495 117.101 30.5394V30.1807H117.112ZM122.933 30.5344C122.528 30.5344 122.271 30.6354 122.154 30.8375C122.038 31.0396 121.977 31.4489 121.977 32.0603V40.8575C121.977 41.4739 122.053 41.8731 122.2 42.055C122.346 42.2369 122.66 42.3279 123.13 42.3279C123.791 42.3279 124.272 42.0601 124.575 41.5194C124.878 40.9838 125.029 40.2158 125.029 39.2203C125.029 38.3108 124.812 37.6084 124.383 37.1082C123.953 36.613 123.231 36.3654 122.225 36.3654H120.932V36.0623H122.458C122.917 36.0623 123.276 35.9309 123.524 35.6631C123.771 35.3953 123.943 35.0416 124.039 34.5969C124.135 34.1522 124.181 33.6773 124.181 33.1669C124.181 32.2928 124.085 31.6308 123.898 31.1912C123.701 30.7567 123.382 30.5344 122.933 30.5344Z" fill="#1B3764"/>
<path d="M138.223 29.9332C139.557 29.9332 140.729 30.1859 141.735 30.6962C142.74 31.2066 143.518 31.9342 144.074 32.8892C144.63 33.8391 144.908 34.9963 144.908 36.3555C144.908 37.6794 144.625 38.8415 144.059 39.8319C143.493 40.8273 142.7 41.6004 141.689 42.1562C140.679 42.7121 139.516 42.99 138.203 42.99C136.869 42.99 135.696 42.7373 134.691 42.227C133.685 41.7166 132.907 40.984 132.351 40.029C131.796 39.0689 131.518 37.9168 131.518 36.5677C131.518 35.2438 131.806 34.0817 132.377 33.0913C132.948 32.0959 133.741 31.3228 134.747 30.767C135.752 30.2111 136.909 29.9332 138.223 29.9332ZM138.152 30.2516C137.561 30.2516 137.046 30.5194 136.611 31.0499C136.171 31.5805 135.838 32.3131 135.6 33.2479C135.363 34.1827 135.247 35.2641 135.247 36.4919C135.247 37.745 135.383 38.8365 135.656 39.7662C135.929 40.696 136.293 41.4084 136.758 41.9137C137.217 42.419 137.728 42.6666 138.284 42.6666C138.875 42.6666 139.39 42.3988 139.825 41.8682C140.264 41.3377 140.598 40.5999 140.835 39.6601C141.073 38.7203 141.189 37.6389 141.189 36.4212C141.189 35.1579 141.053 34.0615 140.78 33.1418C140.507 32.2171 140.143 31.5047 139.678 31.0044C139.218 30.5042 138.708 30.2516 138.152 30.2516Z" fill="#1B3764"/>
<path d="M154.669 29.9332C156.003 29.9332 157.176 30.1859 158.181 30.6962C159.187 31.2066 159.965 31.9342 160.521 32.8892C161.077 33.8391 161.355 34.9963 161.355 36.3555C161.355 37.6794 161.072 38.8415 160.506 39.8319C159.94 40.8273 159.146 41.6004 158.136 42.1562C157.125 42.7121 155.963 42.99 154.649 42.99C153.315 42.99 152.143 42.7373 151.137 42.227C150.132 41.7166 149.354 40.984 148.798 40.029C148.242 39.0689 147.964 37.9168 147.964 36.5677C147.964 35.2438 148.252 34.0817 148.823 33.0913C149.394 32.0959 150.188 31.3228 151.193 30.767C152.194 30.2111 153.356 29.9332 154.669 29.9332ZM154.594 30.2516C154.003 30.2516 153.487 30.5194 153.053 31.0499C152.613 31.5805 152.279 32.3131 152.042 33.2479C151.804 34.1827 151.688 35.2641 151.688 36.4919C151.688 37.745 151.825 38.8365 152.098 39.7662C152.37 40.696 152.734 41.4084 153.199 41.9137C153.659 42.419 154.169 42.6666 154.725 42.6666C155.316 42.6666 155.832 42.3988 156.266 41.8682C156.706 41.3377 157.039 40.5999 157.277 39.6601C157.514 38.7203 157.631 37.6389 157.631 36.4212C157.631 35.1579 157.494 34.0615 157.221 33.1418C156.948 32.2171 156.585 31.5047 156.12 31.0044C155.66 30.5042 155.155 30.2516 154.594 30.2516Z" fill="#1B3764"/>
<path d="M170.243 30.1807V30.5344C169.889 30.5445 169.622 30.59 169.435 30.6658C169.253 30.7416 169.131 30.8831 169.071 31.0902C169.01 31.2974 168.98 31.6208 168.98 32.0553V40.8525C168.98 41.2769 169.01 41.5953 169.076 41.8125C169.141 42.0248 169.263 42.1662 169.44 42.237C169.616 42.3077 169.884 42.3532 170.238 42.3785V42.7322C169.894 42.7069 169.455 42.6917 168.914 42.6867C168.373 42.6816 167.828 42.6766 167.272 42.6766C166.635 42.6766 166.034 42.6816 165.473 42.6867C164.912 42.6917 164.457 42.7069 164.114 42.7322V42.3785C164.478 42.3532 164.75 42.3077 164.927 42.237C165.104 42.1662 165.22 42.0248 165.281 41.8125C165.342 41.6003 165.372 41.282 165.372 40.8525V32.0604C165.372 31.6208 165.342 31.3024 165.281 31.0953C165.22 30.8881 165.099 30.7466 164.917 30.6708C164.735 30.595 164.468 30.5496 164.109 30.5395V30.1857C164.452 30.1959 164.902 30.211 165.468 30.2211C166.029 30.2312 166.63 30.2413 167.267 30.2413C167.823 30.2413 168.368 30.2363 168.909 30.2211C169.46 30.206 169.899 30.1908 170.243 30.1807ZM176.736 30.1807V30.5192C176.332 30.6254 175.887 30.8224 175.397 31.1054C174.907 31.3883 174.381 31.8431 173.826 32.4697L170.561 36.1785L171.996 34.2988L176.2 41.3072C176.352 41.5548 176.509 41.762 176.66 41.9287C176.812 42.0955 177.019 42.2471 177.282 42.3886V42.7423C176.787 42.717 176.256 42.7018 175.695 42.6968C175.134 42.6917 174.599 42.6867 174.088 42.6867C173.815 42.6867 173.477 42.6917 173.078 42.6968C172.679 42.7018 172.168 42.717 171.552 42.7423V42.3886C172.108 42.3633 172.431 42.2976 172.517 42.1915C172.603 42.0854 172.562 41.8833 172.385 41.5902L169.814 37.2447C169.697 37.0325 169.591 36.8708 169.495 36.7647C169.399 36.6585 169.308 36.5828 169.222 36.5322C169.131 36.4867 169.02 36.4564 168.879 36.4413V36.0674C169.399 36.0421 169.889 35.8703 170.349 35.5418C170.809 35.2185 171.365 34.6879 172.017 33.9552L172.618 33.2832C173.113 32.7274 173.376 32.2473 173.406 31.8381C173.436 31.4288 173.31 31.1104 173.032 30.878C172.754 30.6456 172.391 30.5243 171.941 30.5142V30.1756C172.436 30.1857 172.896 30.2009 173.315 30.211C173.735 30.2211 174.275 30.2312 174.937 30.2312C175.665 30.2363 176.261 30.2161 176.736 30.1807Z" fill="#1B3764"/>
<path d="M184.134 29.9332C184.902 29.9332 185.498 30.009 185.927 30.1657C186.352 30.3172 186.716 30.4789 187.009 30.6457C187.15 30.7265 187.266 30.7922 187.352 30.8326C187.438 30.8731 187.524 30.8933 187.61 30.8933C187.797 30.8933 187.928 30.6356 187.999 30.1151H188.408C188.398 30.3627 188.383 30.6507 188.363 30.9842C188.343 31.3177 188.333 31.7523 188.327 32.298C188.322 32.8437 188.317 33.5562 188.317 34.4455H187.908C187.863 33.7937 187.711 33.162 187.453 32.5456C187.201 31.9291 186.852 31.4238 186.407 31.0196C185.963 30.6154 185.437 30.4183 184.821 30.4183C184.3 30.4183 183.871 30.5598 183.527 30.8427C183.184 31.1257 183.012 31.535 183.012 32.0656C183.012 32.5052 183.118 32.8791 183.33 33.1924C183.542 33.5056 183.876 33.8341 184.331 34.1777C184.785 34.5213 185.387 34.9508 186.129 35.4712C186.66 35.8401 187.145 36.2039 187.575 36.5728C188.004 36.9416 188.353 37.3509 188.61 37.8158C188.868 38.2807 189 38.8314 189 39.4832C189 40.2766 188.777 40.9334 188.333 41.4539C187.888 41.9743 187.302 42.3634 186.569 42.6161C185.836 42.8687 185.038 42.995 184.174 42.995C183.371 42.995 182.729 42.9243 182.249 42.7828C181.769 42.6413 181.365 42.4948 181.036 42.3382C180.773 42.1714 180.576 42.0906 180.435 42.0906C180.248 42.0906 180.116 42.3483 180.046 42.8687H179.636C179.662 42.5605 179.677 42.2017 179.682 41.7975C179.687 41.3933 179.692 40.8627 179.702 40.2109C179.707 39.559 179.712 38.7354 179.712 37.7248H180.122C180.167 38.5535 180.303 39.3266 180.521 40.0492C180.738 40.7717 181.077 41.3528 181.531 41.7975C181.986 42.2421 182.592 42.4645 183.35 42.4645C184.002 42.4645 184.518 42.3129 184.902 42.0047C185.286 41.6964 185.478 41.272 185.478 40.7263C185.478 39.9936 185.235 39.3822 184.75 38.8921C184.265 38.4019 183.643 37.9017 182.885 37.3913C182.33 37.0124 181.809 36.6334 181.324 36.2544C180.839 35.8755 180.45 35.451 180.162 34.976C179.874 34.5011 179.727 33.9402 179.727 33.2934C179.727 32.5153 179.935 31.8786 180.349 31.3885C180.763 30.8983 181.309 30.5345 181.981 30.297C182.653 30.0595 183.376 29.9332 184.134 29.9332Z" fill="#1B3764"/>
<path d="M41.0602 4.53731V3.44082H43.8039V4.53731H41.0602Z" fill="#1B3764"/>
<path d="M50.7776 6.4731V0.0508304H53.5011C53.7942 0.0508304 54.067 0.111465 54.3146 0.232736C54.5622 0.354006 54.7795 0.515699 54.9614 0.722869C55.1433 0.930039 55.2898 1.15742 55.3909 1.41007C55.492 1.66271 55.5425 1.92041 55.5425 2.18822C55.5425 2.55203 55.4566 2.89563 55.2898 3.21901C55.1231 3.5424 54.8907 3.81021 54.5925 4.01738C54.2944 4.22455 53.9458 4.32561 53.5415 4.32561H52.0206V6.47815H50.7776V6.4731ZM52.0257 3.22407H53.4708C53.6224 3.22407 53.7588 3.18364 53.8801 3.09774C54.0013 3.01184 54.0973 2.89057 54.1681 2.72888C54.2388 2.56719 54.2793 2.38528 54.2793 2.18316C54.2793 1.96084 54.2388 1.76883 54.158 1.61218C54.0771 1.45554 53.971 1.33933 53.8397 1.25848C53.7083 1.17763 53.5718 1.14226 53.4203 1.14226H52.0257V3.22407Z" fill="#1B3764"/>
<path d="M62.6869 5.38167V6.47815H58.2252V0.0508304H62.6061V1.14732H59.4733V2.69351H62.1766V3.70915H59.4733V5.38167H62.6869Z" fill="#1B3764"/>
<path d="M65.4705 6.4731V0.0508304H68.3102C68.6084 0.0508304 68.8762 0.111465 69.1288 0.232736C69.3764 0.354006 69.5937 0.515699 69.7806 0.722869C69.9625 0.930039 70.104 1.15742 70.2051 1.41007C70.3061 1.66271 70.3567 1.92041 70.3567 2.18822C70.3567 2.46108 70.3112 2.71877 70.2152 2.97142C70.1192 3.22407 69.9878 3.44134 69.8109 3.6283C69.6341 3.81526 69.432 3.96179 69.1945 4.06285L70.6598 6.47815H69.2854L67.9666 4.32561H66.7186V6.47815H65.4705V6.4731ZM66.7186 3.22407H68.285C68.4416 3.22407 68.578 3.17859 68.6993 3.08259C68.8206 2.99163 68.9166 2.86531 68.9873 2.70867C69.0581 2.55203 69.0985 2.37518 69.0985 2.18316C69.0985 1.97599 69.0581 1.79914 68.9722 1.6425C68.8863 1.49091 68.7801 1.36459 68.6488 1.27364C68.5174 1.18269 68.381 1.13721 68.2294 1.13721H66.7186V3.22407Z" fill="#1B3764"/>
<path d="M73.2974 6.4731V0.0508304H77.6126V1.14732H74.5455V2.80467H77.0972V3.82031H74.5455V6.47815H73.2974V6.4731Z" fill="#1B3764"/>
<path d="M84.763 5.38167V6.47815H80.3012V0.0508304H84.6821V1.14732H81.5493V2.69351H84.2526V3.70915H81.5493V5.38167H84.763Z" fill="#1B3764"/>
<path d="M87.0421 3.20856C87.0421 2.81444 87.1129 2.43041 87.2543 2.0565C87.3958 1.67753 87.603 1.33393 87.8758 1.0257C88.1487 0.717472 88.4771 0.469879 88.8713 0.282921C89.2654 0.101015 89.7101 0.00500972 90.2103 0.00500972C90.8015 0.00500972 91.3118 0.136386 91.7464 0.394085C92.1759 0.651784 92.4993 0.99033 92.7115 1.40972L91.7514 2.07166C91.6403 1.82912 91.4988 1.6371 91.327 1.49562C91.1501 1.35414 90.9632 1.25308 90.7661 1.1975C90.5691 1.14192 90.372 1.1116 90.18 1.1116C89.8667 1.1116 89.5938 1.17729 89.3614 1.30361C89.129 1.42993 88.937 1.59668 88.7803 1.80385C88.6237 2.01102 88.5075 2.2384 88.4317 2.49105C88.3559 2.7437 88.3205 2.99634 88.3205 3.24899C88.3205 3.53195 88.366 3.80481 88.4569 4.06756C88.5479 4.33031 88.6742 4.56275 88.841 4.76487C89.0077 4.96698 89.2048 5.12868 89.4372 5.24489C89.6696 5.36111 89.9223 5.42175 90.2002 5.42175C90.3973 5.42175 90.5994 5.38638 90.8065 5.32069C91.0137 5.255 91.2007 5.14889 91.3775 5.00235C91.5544 4.85582 91.6857 4.66886 91.7868 4.44148L92.8075 5.02762C92.6812 5.34595 92.474 5.61881 92.186 5.84114C91.898 6.06347 91.5796 6.23527 91.2209 6.34643C90.8672 6.46265 90.5135 6.51823 90.1648 6.51823C89.705 6.51823 89.2856 6.42222 88.9066 6.23527C88.5277 6.04326 88.1992 5.79061 87.9264 5.47733C87.6535 5.15899 87.4362 4.80529 87.2847 4.41116C87.1179 4.01198 87.0421 3.6128 87.0421 3.20856Z" fill="#1B3764"/>
<path d="M100.25 1.14732H98.1938V6.4731H96.9559V1.14732H94.8993V0.0508304H100.245V1.14732H100.25Z" fill="#1B3764"/>
<path d="M110.402 1.73315C110.361 1.69273 110.28 1.63209 110.169 1.56135C110.058 1.49061 109.922 1.41987 109.76 1.35418C109.598 1.2885 109.427 1.22786 109.24 1.17733C109.053 1.1268 108.861 1.10154 108.669 1.10154C108.33 1.10154 108.077 1.16217 107.906 1.2885C107.734 1.41482 107.648 1.59167 107.648 1.81905C107.648 1.99591 107.703 2.13233 107.81 2.23339C107.921 2.33445 108.082 2.42035 108.3 2.49615C108.517 2.56689 108.79 2.64773 109.113 2.72858C109.538 2.82964 109.902 2.95596 110.215 3.1025C110.523 3.24903 110.766 3.44104 110.927 3.67853C111.094 3.91602 111.175 4.2293 111.175 4.61837C111.175 4.96197 111.109 5.25504 110.983 5.49758C110.857 5.74012 110.68 5.93719 110.457 6.08878C110.235 6.24036 109.982 6.34647 109.699 6.41722C109.416 6.48796 109.113 6.52333 108.795 6.52333C108.477 6.52333 108.153 6.48796 107.835 6.42227C107.517 6.35658 107.208 6.26057 106.91 6.1393C106.612 6.01803 106.344 5.86645 106.097 5.68959L106.647 4.61332C106.703 4.6689 106.799 4.73964 106.935 4.82554C107.072 4.91144 107.244 5.0024 107.441 5.0883C107.638 5.1742 107.855 5.24999 108.093 5.31062C108.33 5.37126 108.568 5.40158 108.805 5.40158C109.144 5.40158 109.401 5.346 109.573 5.22978C109.75 5.11861 109.836 4.95692 109.836 4.7447C109.836 4.55269 109.765 4.4011 109.629 4.29499C109.492 4.18888 109.295 4.09287 109.048 4.01202C108.8 3.93118 108.507 3.84022 108.168 3.74422C107.764 3.628 107.426 3.50168 107.153 3.3602C106.88 3.21871 106.678 3.04186 106.546 2.82459C106.415 2.60731 106.349 2.3395 106.349 2.01106C106.349 1.57146 106.455 1.2026 106.663 0.909527C106.87 0.611404 107.153 0.389075 107.506 0.232435C107.86 0.0808468 108.259 0 108.694 0C108.997 0 109.28 0.0353705 109.548 0.101059C109.816 0.166747 110.068 0.252646 110.306 0.363811C110.543 0.474975 110.75 0.591192 110.937 0.717515L110.402 1.73315Z" fill="#1B3764"/>
<path d="M118.734 1.14732H116.678V6.4731H115.44V1.14732H113.383V0.0508304H118.729V1.14732H118.734Z" fill="#1B3764"/>
<path d="M123.938 6.51827C123.468 6.51827 123.038 6.42732 122.659 6.24542C122.275 6.06351 121.947 5.82097 121.674 5.50769C121.401 5.19946 121.189 4.84576 121.037 4.45668C120.886 4.06761 120.81 3.66842 120.81 3.25914C120.81 2.82964 120.891 2.42035 121.048 2.03128C121.209 1.6422 121.427 1.29355 121.71 0.990373C121.992 0.687198 122.321 0.444657 122.705 0.267805C123.089 0.0909526 123.508 0 123.968 0C124.433 0 124.857 0.0960056 125.242 0.282964C125.626 0.469922 125.954 0.722568 126.222 1.03585C126.495 1.34913 126.702 1.69778 126.853 2.08686C127.005 2.47593 127.081 2.87006 127.081 3.27935C127.081 3.70379 127 4.10803 126.843 4.4971C126.687 4.88618 126.469 5.23483 126.186 5.53801C125.908 5.84118 125.575 6.08372 125.191 6.25552C124.807 6.43237 124.388 6.51827 123.938 6.51827ZM122.073 3.26419C122.073 3.5421 122.114 3.80991 122.2 4.06761C122.286 4.3253 122.407 4.55774 122.569 4.75986C122.73 4.96197 122.922 5.12367 123.155 5.23988C123.387 5.3561 123.65 5.41674 123.948 5.41674C124.251 5.41674 124.519 5.3561 124.751 5.22978C124.989 5.10851 125.181 4.94176 125.338 4.72954C125.494 4.52237 125.615 4.28993 125.696 4.03223C125.777 3.77454 125.818 3.51684 125.818 3.25914C125.818 2.98123 125.772 2.71342 125.686 2.46077C125.6 2.20308 125.474 1.97569 125.317 1.77358C125.161 1.57146 124.964 1.40977 124.731 1.29355C124.499 1.17733 124.236 1.1167 123.948 1.1167C123.64 1.1167 123.372 1.17733 123.139 1.30365C122.907 1.42492 122.715 1.59167 122.553 1.79884C122.397 2.00601 122.275 2.23339 122.195 2.48604C122.114 2.73869 122.073 2.99638 122.073 3.26419Z" fill="#1B3764"/>
<path d="M129.845 6.4731V0.0508304H132.685C132.983 0.0508304 133.251 0.111465 133.503 0.232736C133.751 0.354006 133.968 0.515699 134.155 0.722869C134.337 0.930039 134.479 1.15742 134.58 1.41007C134.681 1.66271 134.731 1.92041 134.731 2.18822C134.731 2.46108 134.686 2.71877 134.59 2.97142C134.494 3.22407 134.362 3.44134 134.186 3.6283C134.009 3.81526 133.807 3.96179 133.569 4.06285L135.035 6.47815H133.66L132.341 4.32561H131.093V6.47815H129.845V6.4731ZM131.093 3.22407H132.66C132.816 3.22407 132.953 3.17859 133.074 3.08259C133.195 2.99163 133.291 2.86531 133.362 2.70867C133.433 2.55203 133.473 2.37518 133.473 2.18316C133.473 1.97599 133.433 1.79914 133.347 1.6425C133.261 1.49091 133.155 1.36459 133.023 1.27364C132.892 1.18269 132.756 1.13721 132.604 1.13721H131.093V3.22407Z" fill="#1B3764"/>
<path d="M142.134 5.38167V6.47815H137.672V0.0508304H142.053V1.14732H138.925V2.69351H141.629V3.70915H138.925V5.38167H142.134Z" fill="#1B3764"/>
<path d="M148.753 4.53731V3.44082H151.497V4.53731H148.753Z" fill="#1B3764"/>
<path d="M97.663 28.6348C97.7085 28.564 97.7691 28.4984 97.8348 28.4529L97.8399 28.4377C98.6332 27.7051 99.568 27.22 100.619 26.7046C101.7 26.1791 102.746 25.6435 103.716 24.8552C105.374 23.5111 106.834 21.6011 108.32 18.8523C109.037 17.5184 109.674 16.1541 110.265 14.8757C110.331 14.7342 110.3 14.5776 110.184 14.5018C110.073 14.426 109.836 14.4159 109.704 14.5877C108.416 16.2905 106.647 17.3668 104.924 18.4178C104.505 18.6755 104.07 18.9382 103.651 19.206C102.746 19.7871 101.584 20.5905 100.604 21.6516C99.5983 22.7431 98.7797 24.1276 98.0319 26.0022C97.7691 26.6642 97.5114 27.3665 97.274 28.079C97.2588 28.1042 97.2436 28.1295 97.2285 28.1548C97.2234 28.1598 97.2234 28.1598 97.2184 28.1649C97.1729 28.2103 97.1426 28.271 97.1274 28.3316C96.6171 29.226 96.1623 30.1507 95.7429 31.0905C95.748 31.0147 95.7581 30.9339 95.7631 30.8581C95.9299 28.8773 95.8288 27.3261 95.4499 25.977C95.081 24.6632 94.4544 23.5263 93.9491 22.6774C93.7167 22.2833 93.4641 21.8942 93.2215 21.5051C92.2362 19.9539 91.2206 18.347 90.8669 16.341C90.8315 16.1389 90.6243 16.0581 90.4929 16.0934C90.3616 16.1288 90.2706 16.2551 90.2656 16.4118C90.2201 17.7912 90.1746 19.2667 90.215 20.7371C90.2908 23.7739 90.7052 26.0325 91.5187 27.8415C91.9937 28.8975 92.6354 29.7565 93.3125 30.6105C93.9694 31.4442 94.5454 32.2173 94.894 33.1673L94.8839 33.2431C94.5353 34.1829 94.222 35.1329 93.934 36.0879C93.6611 36.9974 93.4085 37.917 93.171 38.8366C93.1407 38.6699 93.1104 38.4981 93.08 38.3364C92.7718 36.7346 92.3019 35.5219 91.5995 34.5214C90.9174 33.5513 90.0079 32.7731 89.2954 32.2022C88.967 31.9394 88.6183 31.6767 88.2798 31.4139C86.9155 30.378 85.5057 29.3068 84.6669 27.7859C84.5861 27.6343 84.3688 27.6141 84.2475 27.6646C84.1818 27.6899 84.1313 27.7404 84.101 27.8061C84.0707 27.8667 84.0656 27.9375 84.0808 28.0032C84.3637 29.1047 84.672 30.282 85.061 31.4392C85.8645 33.8342 86.8245 35.5421 88.0726 36.8155C88.8002 37.5583 89.6592 38.109 90.5435 38.6598C91.4075 39.1904 92.1705 39.6906 92.7516 40.3727L92.7617 40.4839C92.4029 41.9846 92.0644 43.4904 91.7157 44.9962C91.5389 45.7592 91.362 46.5221 91.1751 47.2801C91.17 47.2649 91.17 47.2498 91.165 47.2346C90.9224 45.8804 90.5435 44.8597 89.9674 44.026C89.4116 43.2125 88.6638 42.5607 88.0827 42.0857C87.8149 41.8684 87.5319 41.6511 87.2591 41.4389L87.249 41.4288C86.1323 40.5698 84.9802 39.6754 84.3031 38.4071C84.2273 38.2657 84.0353 38.2556 83.9342 38.301C83.818 38.3516 83.7523 38.4829 83.7827 38.6093C84.005 39.539 84.2526 40.5243 84.5659 41.4995C85.2126 43.5106 85.9908 44.9456 87.0115 46.0118C87.6077 46.6333 88.3101 47.0931 89.0427 47.5479C89.7148 47.9673 90.306 48.3614 90.7708 48.8869C90.3312 50.5594 89.831 52.2168 89.2297 53.8438C88.7244 55.2031 88.1332 56.532 87.4561 57.8104C87.5572 58.058 87.6582 58.3106 87.7593 58.5633C88.3505 57.5072 88.8811 56.4107 89.3459 55.2839C90.5233 52.429 91.3317 49.4427 92.0442 46.4565C92.1402 46.0522 92.2362 45.6429 92.3322 45.2337C93.171 45.1629 93.9896 45.3398 94.894 45.5671C95.8541 45.8097 96.7939 46.0219 97.8045 45.9916C99.5326 45.9411 101.412 45.3398 103.706 44.0967C104.818 43.4954 105.894 42.8184 106.895 42.1817C107.011 42.1059 107.067 41.9594 107.031 41.828C106.996 41.6915 106.834 41.54 106.662 41.5955C105.005 42.1413 103.327 41.9139 101.7 41.6966C101.301 41.641 100.892 41.5854 100.493 41.545C99.6236 41.4541 98.4766 41.3783 97.3245 41.6107C96.1421 41.8532 94.9395 42.4343 93.5398 43.4399C93.2215 43.6723 92.8931 43.9148 92.5697 44.1725C93.0346 42.1413 93.4944 40.1049 94.035 38.0888L94.1159 37.9726C95.0153 37.5077 95.9602 37.3258 97.0062 37.149C98.0824 36.9721 99.1385 36.77 100.2 36.3102C102.019 35.5219 103.843 34.1324 105.95 31.9394C106.971 30.8783 107.931 29.7616 108.825 28.7106C108.926 28.5944 108.941 28.4327 108.87 28.3215C108.795 28.2053 108.587 28.1244 108.426 28.2508C106.809 29.4988 104.975 29.994 103.196 30.4842C102.761 30.6004 102.312 30.7267 101.872 30.8581C100.927 31.141 99.6943 31.5604 98.5372 32.283C97.3498 33.0258 96.228 34.1071 95.0153 35.6786C94.8536 35.8908 94.6919 36.1081 94.5302 36.3253C95.2882 33.7787 96.228 31.2775 97.5013 28.9481C97.5468 28.8319 97.6024 28.7358 97.663 28.6348ZM106.026 21.399C105.263 22.4803 104.454 23.4 103.625 24.1225C102.64 24.9815 101.564 25.5576 100.639 26.0123L100.472 26.0932C99.9621 26.3408 99.4012 26.6136 98.8555 26.937C99.9217 25.6435 101.23 24.648 102.499 23.7335C102.63 23.6374 102.756 23.5465 102.888 23.4555L102.918 23.4353C103.666 22.8997 104.439 22.3439 105.172 21.7325C105.839 21.1767 106.425 20.6057 106.95 19.9993C106.637 20.4945 106.334 20.9594 106.026 21.399ZM100.826 22.3388C102.089 20.8533 103.716 19.868 105.288 18.9079C105.844 18.5694 106.42 18.2207 106.971 17.8518C107.491 17.5032 107.956 17.1647 108.37 16.8261C108.016 17.4274 107.663 17.9782 107.304 18.4936C106.647 19.4334 105.869 20.2924 104.99 21.0504C104.207 21.7274 103.358 22.3388 102.539 22.925C101.614 23.5869 100.659 24.2741 99.7802 25.0674C99.3558 25.4514 98.9717 25.8355 98.6231 26.2296C99.088 25.0573 99.7853 23.5566 100.826 22.3388ZM90.8113 38.1242L90.6748 38.0383C89.9119 37.5684 89.0377 36.9772 88.3101 36.1738C87.6936 35.4916 87.1378 34.6629 86.6578 33.7029C86.486 33.3643 86.3243 33.0056 86.1676 32.6317C86.5062 33.1369 86.9054 33.6271 87.3702 34.1122C87.9159 34.6882 88.5172 35.2238 89.0983 35.7443L89.4217 36.0373C90.3717 36.8913 91.3469 37.816 92.0543 38.9377C91.6399 38.6345 91.2105 38.3667 90.8113 38.1242ZM91.6551 37.3764C91.0033 36.6386 90.2656 35.9716 89.5531 35.3299C88.9164 34.7589 88.2646 34.1728 87.6785 33.5361C87.0266 32.8237 86.486 32.0405 86.0716 31.2118C85.8594 30.7823 85.6573 30.3275 85.4653 29.8374C85.7685 30.1456 86.107 30.4538 86.4961 30.7772C86.9306 31.136 87.3854 31.4846 87.8301 31.8181C89.0832 32.7681 90.3818 33.7534 91.2408 35.0924C91.928 36.1637 92.2615 37.4117 92.4535 38.397C92.221 38.0585 91.9583 37.72 91.6551 37.3764ZM89.2903 47.0578L89.1792 46.987C88.5577 46.5979 87.8402 46.1078 87.2439 45.4408C86.7437 44.8749 86.2889 44.1776 85.8998 43.3742C85.7887 43.1417 85.6826 42.8992 85.5764 42.6466C85.8291 43.0154 86.1222 43.3742 86.4557 43.7329C86.9054 44.213 87.3955 44.6627 87.8705 45.0972L88.1332 45.3398C88.8861 46.032 89.6542 46.7748 90.2251 47.6742C89.9119 47.4468 89.5885 47.2447 89.2903 47.0578ZM89.9927 46.4211C89.4621 45.7996 88.8558 45.2488 88.2697 44.7132C87.7492 44.2382 87.2136 43.7481 86.7386 43.2175C86.2081 42.6263 85.7685 41.9695 85.435 41.2722C85.2733 40.9387 85.1267 40.585 84.9802 40.206C85.2126 40.4384 85.4703 40.681 85.7583 40.9235C86.1121 41.2216 86.491 41.5147 86.8498 41.7926C87.8755 42.5809 88.9366 43.3994 89.6339 44.5212C90.1696 45.3802 90.4374 46.3857 90.5889 47.1992C90.4171 46.9415 90.215 46.6838 89.9927 46.4211ZM97.1274 42.2878C98.6635 41.8937 100.2 42.1059 101.69 42.308C102.216 42.3787 102.761 42.4545 103.297 42.5C103.782 42.5404 104.227 42.5556 104.646 42.5455C104.146 42.788 103.671 42.9952 103.206 43.1721C102.327 43.5056 101.402 43.7026 100.467 43.7632C99.6286 43.8188 98.7848 43.7835 97.9612 43.7481C97.0365 43.7077 96.0865 43.6672 95.1265 43.7531C94.6869 43.7936 94.2725 43.8542 93.8733 43.9452C94.7374 43.3236 95.8945 42.6061 97.1274 42.2878ZM97.5367 44.3696C97.6731 44.3747 97.8096 44.3797 97.946 44.3848H97.9612C98.709 44.4151 99.477 44.4504 100.25 44.4151C100.907 44.3848 101.523 44.3039 102.12 44.1675C101.726 44.3494 101.342 44.5111 100.968 44.6475C99.947 45.0265 98.9819 45.2539 98.0875 45.3195C97.0314 45.3953 96.0512 45.1932 95.2326 44.9911L95.086 44.9557C94.6515 44.8446 94.1765 44.7284 93.6864 44.6475C94.985 44.3039 96.2937 44.3191 97.5367 44.3696ZM98.522 33.0056C100.048 31.9647 101.731 31.5049 103.363 31.0602C103.939 30.9036 104.535 30.7419 105.116 30.5549C105.647 30.3882 106.122 30.2063 106.566 30.0142C106.091 30.4741 105.637 30.8833 105.182 31.2623C104.333 31.9647 103.408 32.5559 102.433 33.0157C101.559 33.43 100.654 33.7585 99.7752 34.0768C98.7898 34.4355 97.7691 34.8044 96.7788 35.2996C96.319 35.527 95.8945 35.7695 95.4953 36.0323C96.2432 35.0621 97.2841 33.8545 98.522 33.0056ZM99.5023 34.8448L99.952 34.6831C100.75 34.3951 101.579 34.0919 102.382 33.7281C103.08 33.4149 103.722 33.0612 104.323 32.667C103.939 33.0258 103.565 33.3593 103.191 33.6675C102.211 34.476 101.241 35.1126 100.316 35.5573C99.2193 36.0828 98.1279 36.3102 97.2032 36.4668L97.0365 36.4921C96.5413 36.5729 96.0006 36.6639 95.4549 36.8003C96.7535 35.8958 98.1633 35.34 99.5023 34.8448ZM93.7066 30.1001L93.6055 29.9688C93.0295 29.231 92.3726 28.3266 91.9179 27.1998C91.5338 26.2448 91.2458 25.123 91.0639 23.8648C90.9982 23.3899 90.9426 22.8896 90.9022 22.3641C91.0791 23.0614 91.3166 23.7537 91.6197 24.456C91.9734 25.2695 92.3777 26.0477 92.7769 26.8006L92.9992 27.225C93.6611 28.4933 94.3231 29.8525 94.6667 31.3937C94.3584 30.9238 94.0148 30.4943 93.7066 30.1001ZM95.1618 30.8075C95.0406 30.3427 94.889 29.8829 94.7071 29.4028C94.3079 28.367 93.8026 27.4069 93.3175 26.4772C92.883 25.6536 92.4383 24.7996 92.0695 23.9053C91.6602 22.9048 91.3721 21.8437 91.2206 20.7573C91.1397 20.1711 91.0791 19.5597 91.0387 18.9029C91.2357 19.3425 91.4732 19.7972 91.7461 20.2773C92.0492 20.8028 92.3827 21.3283 92.7011 21.8285C93.6055 23.2534 94.5403 24.7238 94.9648 26.5277C95.3033 27.983 95.2629 29.5797 95.1618 30.8075Z" fill="#1B3764"/>
<path d="M52.1511 64.8487H53.6721L52.2825 71.3973H56.052L55.7741 72.7413H50.4736L52.1511 64.8487Z" fill="#1B3764"/>
<path d="M61.8777 72.8523C61.3168 72.8523 60.852 72.7412 60.4932 72.5239C60.1345 72.3016 59.8666 72.0085 59.6999 71.6396C59.5332 71.2708 59.4422 70.8615 59.4422 70.4118C59.4422 69.9418 59.5281 69.4972 59.705 69.0727C59.8768 68.6483 60.1243 68.2693 60.4427 67.9409C60.761 67.6124 61.14 67.3547 61.5695 67.1678C62.004 66.9808 62.479 66.8848 62.9995 66.8848C63.5603 66.8848 64.0252 66.996 64.384 67.2133C64.7427 67.4356 65.0105 67.7287 65.1773 68.0925C65.3491 68.4613 65.435 68.8706 65.435 69.3254C65.435 69.7953 65.3491 70.24 65.1722 70.6644C64.9954 71.0888 64.7528 71.4678 64.4345 71.7963C64.1162 72.1247 63.7372 72.3824 63.3077 72.5694C62.8731 72.7614 62.3982 72.8523 61.8777 72.8523ZM62.1 71.584C62.3274 71.584 62.5498 71.5335 62.767 71.4324C62.9792 71.3314 63.1713 71.1849 63.338 70.9979C63.5048 70.8109 63.6361 70.5886 63.7372 70.3309C63.8382 70.0783 63.8888 69.8004 63.8888 69.5022C63.8888 69.2344 63.8484 68.9969 63.7625 68.7948C63.6766 68.5927 63.5502 68.431 63.3835 68.3198C63.2167 68.2087 63.0146 68.1531 62.7771 68.1531C62.5447 68.1531 62.3274 68.2036 62.1152 68.3047C61.903 68.4057 61.711 68.5523 61.5442 68.7392C61.3775 68.9262 61.241 69.1536 61.14 69.4113C61.0389 69.669 60.9884 69.9469 60.9884 70.245C60.9884 70.5078 61.0288 70.7402 61.1147 70.9423C61.2006 71.1444 61.3269 71.3061 61.4937 71.4173C61.6604 71.5285 61.8626 71.584 62.1 71.584Z" fill="#1B3764"/>
<path d="M70.64 72.8531C70.1651 72.8531 69.7204 72.7773 69.301 72.6207C68.8816 72.4641 68.5481 72.2417 68.2955 71.9537L69.0383 71.0189C69.3212 71.2615 69.6092 71.4484 69.9074 71.5798C70.2055 71.7112 70.5036 71.7718 70.8068 71.7718C71.014 71.7718 71.1908 71.7415 71.3424 71.6809C71.4889 71.6202 71.6051 71.5394 71.686 71.4333C71.7668 71.3272 71.8073 71.2109 71.8073 71.0745C71.8073 70.8926 71.7264 70.7562 71.5647 70.6703C71.403 70.5844 71.1453 70.4884 70.7967 70.3873C70.4127 70.261 70.0943 70.1448 69.8467 70.0286C69.5991 69.9174 69.4172 69.781 69.296 69.6243C69.1797 69.4677 69.1191 69.2656 69.1191 69.0281C69.1191 68.6188 69.2353 68.255 69.4678 67.9316C69.7002 67.6082 70.0185 67.3556 70.4127 67.1686C70.8068 66.9816 71.2514 66.8907 71.7416 66.8907C72.166 66.8907 72.5399 66.9564 72.8734 67.0877C73.2069 67.2191 73.505 67.4212 73.7627 67.6941L72.9745 68.5935C72.737 68.3712 72.5096 68.2095 72.2923 68.1084C72.0751 68.0074 71.8325 67.9568 71.5748 67.9568C71.3828 67.9568 71.211 67.9821 71.0594 68.0377C70.9078 68.0933 70.7866 68.1741 70.7007 68.2802C70.6097 68.3863 70.5693 68.5177 70.5693 68.6693C70.5693 68.8361 70.64 68.9573 70.7765 69.0331C70.9129 69.1089 71.1504 69.1999 71.494 69.3009C71.9083 69.4171 72.2519 69.5384 72.5147 69.6698C72.7825 69.7961 72.9795 69.9477 73.116 70.1246C73.2473 70.3014 73.3181 70.5237 73.3181 70.7915C73.3181 71.1958 73.2069 71.5495 72.9846 71.8577C72.7623 72.1659 72.449 72.4085 72.0498 72.5853C71.6405 72.7622 71.1706 72.8531 70.64 72.8531Z" fill="#1B3764"/>
<path d="M85.7024 64.8487H87.0717L88.2187 72.7413H86.6422L86.4451 70.7757H83.8227L82.7868 72.7413H81.2103L85.7024 64.8487ZM86.3239 69.6944L86.0106 66.5919L84.3785 69.6944H86.3239Z" fill="#1B3764"/>
<path d="M92.9281 66.9707H94.2722L94.0398 68.047C94.2318 67.7994 94.4541 67.5872 94.7118 67.4154C94.9695 67.2436 95.2474 67.1122 95.5455 67.0212C95.8437 66.9303 96.1569 66.8848 96.4753 66.8848C96.8138 66.8848 97.0816 66.9455 97.2635 67.0617C97.4505 67.1779 97.5819 67.3396 97.6577 67.5417C97.7335 67.7438 97.7739 67.9661 97.7739 68.2188C97.7739 68.3704 97.7638 68.527 97.7385 68.6786C97.7183 68.8302 97.688 68.9919 97.6627 69.1536L96.8947 72.7462H95.4041L96.0912 69.5275C96.1216 69.4163 96.1418 69.3153 96.1519 69.2193C96.162 69.1233 96.167 69.0323 96.167 68.9464C96.167 68.6887 96.1115 68.5018 95.9952 68.3805C95.879 68.2592 95.7274 68.1986 95.5354 68.1986C95.3586 68.1986 95.1666 68.2491 94.9594 68.3502C94.7522 68.4512 94.5552 68.5927 94.3682 68.7696C94.1812 68.9464 94.0297 69.1536 93.9033 69.381L93.1808 72.7462H91.6902L92.9281 66.9707Z" fill="#1B3764"/>
<path d="M102.787 75.2221C102.18 75.2221 101.69 75.116 101.311 74.9038C100.937 74.6916 100.644 74.3935 100.427 74.0094L101.407 73.2212C101.554 73.494 101.771 73.7113 102.054 73.868C102.337 74.0246 102.661 74.1004 103.019 74.1004C103.307 74.1004 103.585 74.0448 103.853 73.9286C104.121 73.8174 104.353 73.6406 104.56 73.4031C104.763 73.1656 104.904 72.8624 104.975 72.4885L105.131 71.7609C104.879 72.1095 104.571 72.3824 104.202 72.5694C103.833 72.7614 103.464 72.8523 103.095 72.8523C102.686 72.8523 102.337 72.7462 102.044 72.539C101.751 72.3319 101.529 72.0489 101.382 71.7003C101.236 71.3516 101.16 70.9575 101.16 70.5229C101.16 70.0429 101.246 69.578 101.423 69.1435C101.594 68.7039 101.837 68.3198 102.145 67.9813C102.453 67.6428 102.807 67.375 103.201 67.1779C103.595 66.9808 104.015 66.8848 104.449 66.8848C104.879 66.8848 105.232 66.9859 105.51 67.188C105.788 67.3901 105.995 67.663 106.127 67.9965L106.339 66.9707H107.653L106.465 72.4835C106.349 73.0544 106.112 73.5496 105.753 73.9539C105.394 74.3581 104.965 74.6764 104.454 74.8937C103.944 75.111 103.388 75.2221 102.787 75.2221ZM103.868 71.6649C104.015 71.6649 104.161 71.6396 104.308 71.584C104.454 71.5285 104.591 71.4577 104.727 71.3617C104.859 71.2708 104.985 71.1596 105.096 71.0333C105.207 70.9069 105.303 70.7756 105.384 70.6442L105.672 69.2647C105.642 69.0374 105.571 68.8403 105.46 68.6735C105.349 68.5068 105.212 68.3754 105.056 68.2845C104.899 68.1935 104.722 68.148 104.53 68.148C104.288 68.148 104.055 68.2137 103.843 68.3401C103.626 68.4664 103.434 68.6331 103.267 68.8352C103.1 69.0374 102.964 69.2698 102.868 69.5224C102.772 69.7751 102.721 70.0378 102.721 70.3006C102.721 70.5482 102.772 70.7756 102.868 70.9878C102.964 71.2 103.1 71.3668 103.272 71.483C103.434 71.6043 103.636 71.6649 103.868 71.6649Z" fill="#1B3764"/>
<path d="M113.115 72.8525C112.625 72.8525 112.2 72.7464 111.842 72.5392C111.483 72.332 111.21 72.039 111.018 71.6701C110.826 71.3012 110.735 70.8818 110.735 70.4119C110.735 69.9369 110.826 69.4872 111.013 69.0577C111.2 68.6282 111.457 68.2594 111.791 67.9309C112.124 67.6025 112.514 67.3498 112.958 67.1629C113.403 66.9759 113.883 66.8799 114.403 66.8799C114.828 66.8799 115.192 66.9406 115.505 67.0669C115.818 67.1932 116.056 67.3751 116.227 67.6126C116.399 67.8501 116.485 68.1432 116.485 68.4868C116.485 69.0982 116.207 69.558 115.646 69.8763C115.085 70.1946 114.247 70.3513 113.13 70.3513C112.908 70.3513 112.665 70.3462 112.407 70.3361C112.15 70.326 111.867 70.3058 111.564 70.2755L111.751 69.3407C112.018 69.3609 112.261 69.3811 112.483 69.3912C112.706 69.4013 112.923 69.4064 113.14 69.4064C113.62 69.4064 114.004 69.3761 114.277 69.3104C114.555 69.2447 114.757 69.1487 114.883 69.0274C115.01 68.9062 115.07 68.7596 115.07 68.5929C115.07 68.4463 115.035 68.3301 114.959 68.2392C114.883 68.1482 114.782 68.0775 114.656 68.032C114.525 67.9865 114.373 67.9613 114.196 67.9613C113.908 67.9613 113.64 68.0269 113.403 68.1634C113.16 68.2998 112.953 68.4817 112.776 68.7141C112.599 68.9466 112.463 69.2144 112.367 69.5125C112.271 69.8106 112.22 70.129 112.22 70.4625C112.22 70.71 112.261 70.9324 112.347 71.1345C112.433 71.3366 112.559 71.4882 112.731 71.5994C112.903 71.7105 113.12 71.761 113.388 71.761C113.686 71.761 113.964 71.6903 114.226 71.5488C114.489 71.4073 114.701 71.2103 114.853 70.9576L116.03 71.3265C115.838 71.6246 115.586 71.8874 115.272 72.1148C114.959 72.3421 114.621 72.524 114.252 72.6554C113.878 72.7868 113.499 72.8525 113.115 72.8525Z" fill="#1B3764"/>
<path d="M120.805 72.8529C120.436 72.8529 120.148 72.767 119.941 72.5902C119.739 72.4133 119.638 72.1657 119.638 71.8373C119.638 71.7716 119.643 71.7009 119.653 71.6301C119.663 71.5594 119.673 71.4887 119.684 71.4129L121.129 64.6268H122.609L121.285 70.8924C121.28 70.9278 121.27 70.9682 121.27 71.0036C121.265 71.0389 121.265 71.0794 121.265 71.1147C121.265 71.4179 121.417 71.5695 121.72 71.5695C121.801 71.5695 121.897 71.5543 122.003 71.524C122.109 71.4937 122.21 71.4583 122.306 71.4129L122.261 72.5447C122.053 72.6407 121.811 72.7165 121.538 72.767C121.265 72.8176 121.023 72.8529 120.805 72.8529Z" fill="#1B3764"/>
<path d="M127.743 72.8531C127.268 72.8531 126.823 72.7773 126.404 72.6207C125.985 72.4641 125.651 72.2417 125.399 71.9537L126.141 71.0189C126.424 71.2615 126.712 71.4484 127.01 71.5798C127.309 71.7112 127.607 71.7718 127.91 71.7718C128.117 71.7718 128.294 71.7415 128.445 71.6809C128.592 71.6202 128.708 71.5394 128.789 71.4333C128.87 71.3272 128.91 71.2109 128.91 71.0745C128.91 70.8926 128.829 70.7562 128.668 70.6703C128.506 70.5844 128.248 70.4884 127.9 70.3873C127.516 70.261 127.197 70.1448 126.95 70.0286C126.702 69.9174 126.52 69.781 126.399 69.6243C126.283 69.4677 126.222 69.2656 126.222 69.0281C126.222 68.6188 126.338 68.255 126.571 67.9316C126.803 67.6082 127.122 67.3556 127.516 67.1686C127.91 66.9816 128.354 66.8907 128.845 66.8907C129.269 66.8907 129.643 66.9564 129.976 67.0877C130.31 67.2191 130.608 67.4212 130.866 67.6941L130.078 68.5935C129.84 68.3712 129.613 68.2095 129.395 68.1084C129.178 68.0074 128.936 67.9568 128.678 67.9568C128.486 67.9568 128.314 67.9821 128.162 68.0377C128.011 68.0933 127.89 68.1741 127.804 68.2802C127.713 68.3863 127.672 68.5177 127.672 68.6693C127.672 68.8361 127.743 68.9573 127.879 69.0331C128.016 69.1089 128.253 69.1999 128.597 69.3009C129.011 69.4171 129.355 69.5384 129.618 69.6698C129.886 69.7961 130.083 69.9477 130.219 70.1246C130.35 70.3014 130.421 70.5237 130.421 70.7915C130.421 71.1958 130.31 71.5495 130.088 71.8577C129.865 72.1659 129.552 72.4085 129.153 72.5853C128.744 72.7622 128.279 72.8531 127.743 72.8531Z" fill="#1B3764"/>
<path d="M133.726 72.7416L134.069 71.1398H135.292L134.949 72.7416H133.726Z" fill="#1B3764"/>
</svg>
