<svg width="22" height="22" viewBox="0 0 22 22" fill="none" xmlns="http://www.w3.org/2000/svg">
<path d="M1 1H4.63636L7.07273 13.497C7.15586 13.9267 7.38355 14.3127 7.71595 14.5874C8.04835 14.8621 8.46427 15.0081 8.89091 14.9997H17.7273C18.1539 15.0081 18.5698 14.8621 18.9022 14.5874C19.2346 14.3127 19.4623 13.9267 19.5455 13.497L21 5.66655H5.54545M9 20C9 20.5523 8.55228 21 8 21C7.44772 21 7 20.5523 7 20C7 19.4477 7.44772 19 8 19C8.55228 19 9 19.4477 9 20ZM20 20C20 20.5523 19.5523 21 19 21C18.4477 21 18 20.5523 18 20C18 19.4477 18.4477 19 19 19C19.5523 19 20 19.4477 20 20Z" stroke="#1B3764" stroke-width="2" stroke-linecap="round" stroke-linejoin="round"/>
</svg>
