<svg width="24" height="6" viewBox="0 0 24 6" fill="none" xmlns="http://www.w3.org/2000/svg">
<path d="M12.0003 0.765978C13.0344 0.765978 13.8727 1.60425 13.8727 2.63832C13.8727 3.67238 13.0344 4.51066 12.0003 4.51066C10.9663 4.51066 10.128 3.67238 10.128 2.63832C10.128 1.60425 10.9663 0.765978 12.0003 0.765978Z" stroke="#FFCA42" stroke-width="1.5"/>
<path d="M21.3614 0.765978C22.3954 0.765978 23.2337 1.60425 23.2337 2.63832C23.2337 3.67238 22.3954 4.51066 21.3614 4.51066C20.3273 4.51066 19.489 3.67238 19.489 2.63832C19.489 1.60425 20.3273 0.765978 21.3614 0.765978Z" stroke="#FFCA42" stroke-width="1.5"/>
<path d="M2.6383 0.765978C3.67236 0.765978 4.51064 1.60425 4.51064 2.63832C4.51064 3.67238 3.67236 4.51066 2.6383 4.51066C1.60423 4.51066 0.765957 3.67238 0.765957 2.63832C0.765957 1.60425 1.60423 0.765978 2.6383 0.765978Z" stroke="#FFCA42" stroke-width="1.5"/>
</svg>
