<svg width="96" height="89" viewBox="0 0 96 89" fill="none" xmlns="http://www.w3.org/2000/svg">
<path d="M18.0163 11.1751H20.158L23.1144 19.7715H21.0819L20.4982 17.8481H17.6677L17.084 19.7715H15.0514L18.0163 11.1751ZM20.0824 16.4791L19.0829 13.1741L18.0834 16.4791H20.0824Z" fill="#1B3764"/>
<path d="M33.1637 19.7714V14.648L31.3117 18.3772H30.2198L28.3678 14.648V19.7714H26.3815V11.175H28.5358L30.7616 15.6685L32.9999 11.175H35.1416V19.7714H33.1637Z" fill="#1B3764"/>
<path d="M41.3865 11.175H43.5282L46.4847 19.7714H44.4521L43.8684 17.848H41.0379L40.4542 19.7714H38.4216L41.3865 11.175ZM43.4526 16.479L42.4531 13.174L41.4537 16.479H43.4526Z" fill="#1B3764"/>
<path d="M49.2692 18.2847L53.6535 12.922H49.4414V11.1792H56.0388V12.67L51.8603 18.0327H56.085V19.7755H49.2692V18.2847Z" fill="#1B3764"/>
<path d="M65.7857 18.0286V19.7714H59.7427V11.175H65.6766V12.9178H61.729V14.5892H65.118V16.2018H61.729V18.0286H65.7857Z" fill="#1B3764"/>
<path d="M71.4045 14.858V19.7756H69.4182V11.175H70.993L74.9783 16.2354V11.175H76.9647V19.7714H75.3436L71.4045 14.858Z" fill="#1B3764"/>
<path d="M24.3196 29.9216C24.3196 29.3966 24.4162 28.8843 24.6094 28.3762C24.8025 27.8722 25.0839 27.4145 25.4577 27.0029C25.8272 26.5914 26.2808 26.2638 26.8141 26.016C27.3474 25.7683 27.9522 25.6465 28.6283 25.6465C29.4346 25.6465 30.1359 25.8187 30.728 26.1672C31.3202 26.5158 31.7653 26.9651 32.0551 27.5237L30.5307 28.5903C30.4005 28.2838 30.2283 28.0444 30.0141 27.8764C29.7999 27.7084 29.5648 27.5867 29.3128 27.5195C29.0566 27.4523 28.8131 27.4145 28.5821 27.4145C28.2041 27.4145 27.8724 27.4901 27.591 27.637C27.3096 27.7882 27.0745 27.9856 26.8897 28.2376C26.7049 28.4895 26.5663 28.7667 26.4781 29.0733C26.39 29.3798 26.3438 29.6864 26.3438 29.993C26.3438 30.3331 26.3942 30.6607 26.4991 30.9757C26.6041 31.2906 26.7553 31.5678 26.9527 31.8114C27.1501 32.0549 27.3894 32.2439 27.675 32.3867C27.9564 32.5295 28.2671 32.5967 28.6073 32.5967C28.8509 32.5967 29.0944 32.5547 29.3464 32.4749C29.5984 32.3951 29.8293 32.2649 30.0435 32.0927C30.2577 31.9205 30.4215 31.6896 30.5349 31.4082L32.1559 32.3657C31.9879 32.7856 31.7065 33.1426 31.3202 33.445C30.9338 33.7431 30.4929 33.9699 30.0057 34.1295C29.5186 34.2849 29.0356 34.3647 28.5569 34.3647C27.9354 34.3647 27.3642 34.2387 26.8435 33.9825C26.3228 33.7263 25.8734 33.3904 25.4997 32.9662C25.1259 32.5421 24.8319 32.0675 24.6262 31.5384C24.4246 31.0092 24.3196 30.4675 24.3196 29.9216Z" fill="#1B3764"/>
<path d="M39.2157 34.3641C38.569 34.3641 37.9853 34.2423 37.4646 33.9946C36.9438 33.7468 36.4945 33.4192 36.1207 33.0035C35.747 32.5877 35.4572 32.1216 35.2556 31.6008C35.054 31.0801 34.9533 30.5426 34.9533 29.984C34.9533 29.4129 35.0582 28.867 35.2724 28.3504C35.4866 27.8339 35.7848 27.3719 36.1669 26.9646C36.5491 26.5572 37.0026 26.2381 37.5276 26.0029C38.0525 25.7677 38.6236 25.6501 39.2451 25.6501C39.8835 25.6501 40.463 25.7719 40.9837 26.0197C41.5045 26.2675 41.9538 26.5992 42.3276 27.0192C42.7013 27.4391 42.9911 27.9095 43.1927 28.4302C43.3943 28.951 43.495 29.4801 43.495 30.0218C43.495 30.5972 43.3901 31.1389 43.1801 31.6554C42.9701 32.172 42.6719 32.6339 42.2856 33.0413C41.8992 33.4486 41.4457 33.772 40.9249 34.0114C40.4084 34.2465 39.8373 34.3641 39.2157 34.3641ZM36.9732 30.005C36.9732 30.3368 37.0236 30.656 37.1202 30.9667C37.2168 31.2775 37.3596 31.5546 37.5485 31.794C37.7375 32.0376 37.9727 32.2308 38.2583 32.3735C38.5396 32.5205 38.863 32.5919 39.2283 32.5919C39.6063 32.5919 39.9381 32.5163 40.2194 32.3694C40.5008 32.2224 40.736 32.0208 40.9207 31.7688C41.1055 31.5169 41.2441 31.2397 41.3365 30.9289C41.4289 30.6182 41.4751 30.3032 41.4751 29.9798C41.4751 29.6481 41.4289 29.3289 41.3281 29.0223C41.2315 28.7158 41.0845 28.4386 40.8914 28.1908C40.6982 27.9431 40.4588 27.7541 40.1774 27.6155C39.8961 27.4769 39.5769 27.4097 39.2199 27.4097C38.842 27.4097 38.5102 27.4811 38.2331 27.6281C37.9559 27.7751 37.7207 27.9683 37.5318 28.216C37.3428 28.4638 37.2 28.741 37.1076 29.0517C37.0194 29.3667 36.9732 29.6817 36.9732 30.005Z" fill="#1B3764"/>
<path d="M47.0725 34.3012V25.7048H50.9487C51.3518 25.7048 51.7256 25.7888 52.0699 25.9526C52.4143 26.1164 52.7083 26.339 52.9602 26.6203C53.2122 26.8975 53.4054 27.2125 53.5482 27.561C53.6909 27.9096 53.7581 28.2581 53.7581 28.6151C53.7581 28.9721 53.7035 29.308 53.5902 29.6272C53.4768 29.9463 53.3172 30.2319 53.1072 30.4881C52.8972 30.7442 52.6453 30.95 52.3555 31.1096L54.2453 34.3054H52.0531L50.4069 31.5338H49.0631V34.3054H47.0725V34.3012ZM49.0589 29.7994H50.8773C51.0369 29.7994 51.1838 29.749 51.3056 29.6482C51.4316 29.5474 51.5324 29.4088 51.6122 29.2324C51.692 29.056 51.734 28.8503 51.734 28.6151C51.734 28.3799 51.6878 28.1784 51.5954 28.002C51.503 27.8298 51.3854 27.6912 51.251 27.5946C51.1124 27.498 50.9697 27.4476 50.8143 27.4476H49.0589V29.7994Z" fill="#1B3764"/>
<path d="M57.6095 34.3012V25.7048H61.2799C61.6914 25.7048 62.0694 25.7888 62.4137 25.9526C62.7581 26.1164 63.052 26.339 63.304 26.6203C63.556 26.8975 63.7492 27.2125 63.8835 27.561C64.0221 27.9096 64.0893 28.2623 64.0893 28.6277C64.0893 29.119 63.9759 29.5894 63.745 30.0303C63.514 30.4755 63.1948 30.8366 62.7875 31.1138C62.3801 31.391 61.8972 31.5296 61.3386 31.5296H59.5959V34.3012H57.6095ZM59.5917 29.7994H61.2127C61.3638 29.7994 61.5066 29.7532 61.6368 29.665C61.767 29.5768 61.872 29.4424 61.9518 29.266C62.0316 29.0896 62.0736 28.8713 62.0736 28.6109C62.0736 28.3463 62.0274 28.1238 61.935 27.9516C61.8426 27.7794 61.725 27.6492 61.5822 27.5694C61.4394 27.4896 61.2924 27.4476 61.1413 27.4476H59.5917V29.7994Z" fill="#1B3764"/>
<path d="M66.5788 34.3016V32.3278H68.1662V34.3016H66.5788Z" fill="#1B3764"/>
<path d="M18.9142 70.0307V70.2155C18.7294 70.2533 18.5866 70.3163 18.4943 70.4086C18.3977 70.501 18.3347 70.6438 18.3053 70.837C18.2759 71.0302 18.2591 71.3031 18.2591 71.6559V76.5819C18.1667 76.5693 18.0659 76.5651 17.9567 76.5651C17.8475 76.5651 17.7341 76.5693 17.6082 76.5819L13.5095 72.101V74.7677C13.5095 75.1793 13.5262 75.4984 13.5598 75.7168C13.5934 75.9352 13.6774 76.0948 13.8076 76.1872C13.942 76.2837 14.152 76.3509 14.4417 76.3971V76.5819C14.32 76.5693 14.1562 76.5609 13.9588 76.5567C13.7614 76.5525 13.5766 76.5525 13.4045 76.5525C13.2701 76.5525 13.1315 76.5525 12.9887 76.5567C12.8459 76.5609 12.7283 76.5693 12.636 76.5819V76.3971C12.8291 76.3551 12.9677 76.2879 13.0601 76.1998C13.1525 76.1116 13.2155 75.9688 13.2449 75.7714C13.2743 75.574 13.2911 75.3011 13.2911 74.9567V71.0134C13.2911 70.7866 13.2743 70.6186 13.2449 70.5094C13.2155 70.4002 13.1525 70.3288 13.0559 70.2869C12.9593 70.2449 12.8207 70.2239 12.636 70.2155V70.0307C12.7283 70.0349 12.8459 70.0433 12.9887 70.0475C13.1315 70.0517 13.2701 70.0559 13.4045 70.0559C13.5598 70.0559 13.711 70.0517 13.858 70.0475C14.005 70.0433 14.1394 70.0349 14.257 70.0307L18.0449 74.0286V71.8449C18.0449 71.4333 18.0281 71.1142 17.9945 70.8958C17.9609 70.6774 17.8769 70.5178 17.7509 70.4212C17.6208 70.3247 17.4066 70.2533 17.1126 70.2197V70.0349C17.2344 70.0391 17.3982 70.0475 17.5956 70.0517C17.7929 70.0559 17.9777 70.0601 18.1499 70.0601C18.2927 70.0601 18.4313 70.0559 18.5699 70.0517C18.7042 70.0433 18.8218 70.0349 18.9142 70.0307Z" fill="#1B3764"/>
<path d="M26.8845 70.0307C26.8593 70.3372 26.8425 70.6354 26.8341 70.9252C26.8257 71.2107 26.8215 71.4333 26.8215 71.5887C26.8215 71.7189 26.8257 71.8407 26.8299 71.9583C26.8341 72.0758 26.8425 72.1724 26.8467 72.2564H26.6326C26.557 71.7441 26.4352 71.3409 26.263 71.047C26.0908 70.753 25.8893 70.5472 25.6583 70.4254C25.4273 70.3037 25.1837 70.2449 24.9318 70.2449H24.81C24.6504 70.2449 24.5286 70.2575 24.4488 70.2869C24.369 70.3162 24.3144 70.3666 24.285 70.4506C24.2557 70.5304 24.2431 70.6564 24.2431 70.8286V75.7882C24.2431 75.9562 24.2557 76.078 24.285 76.162C24.3144 76.2459 24.3648 76.3005 24.4488 76.3299C24.5286 76.3593 24.6504 76.3719 24.81 76.3719H25.1165C25.3181 76.3719 25.5365 76.3047 25.7591 76.1746C25.9858 76.0402 26.1916 75.8134 26.3848 75.4942C26.578 75.1751 26.7208 74.7341 26.8215 74.1798H27.0357C27.0189 74.4024 27.0063 74.6879 27.0063 75.0323C27.0063 75.1877 27.0105 75.406 27.0147 75.6958C27.0189 75.9814 27.0399 76.2795 27.0693 76.5903C26.7544 76.5777 26.4016 76.5693 26.0068 76.5651C25.6121 76.5609 25.2593 76.5609 24.9528 76.5609C24.7302 76.5609 24.432 76.5609 24.0583 76.5609C23.6845 76.5609 23.2898 76.5609 22.874 76.5651C22.4583 76.5693 22.0719 76.5777 21.7108 76.5903V76.4055C21.9039 76.3929 22.0425 76.3677 22.1349 76.3299C22.2273 76.2921 22.2903 76.2207 22.3197 76.1074C22.3491 75.9982 22.3659 75.8302 22.3659 75.6076V71.0134C22.3659 70.7866 22.3491 70.6186 22.3197 70.5094C22.2903 70.4002 22.2273 70.3288 22.1307 70.2869C22.0341 70.2449 21.8955 70.2239 21.7108 70.2155V70.0307C22.0677 70.0349 22.4541 70.0433 22.874 70.0475C23.2898 70.0517 23.6845 70.0559 24.0583 70.0559C24.432 70.0559 24.7302 70.0559 24.9528 70.0559C25.2383 70.0559 25.5575 70.0559 25.9187 70.0517C26.2756 70.0517 26.599 70.0433 26.8845 70.0307ZM25.5407 73.1971V73.3819H23.9659V73.1971H25.5407ZM25.8095 71.9751C25.7843 72.3278 25.7759 72.5966 25.7759 72.7814C25.7801 72.9661 25.7801 73.1341 25.7801 73.2895C25.7801 73.4449 25.7843 73.6129 25.7885 73.7976C25.7927 73.9824 25.8095 74.2512 25.8347 74.6039H25.6205C25.5827 74.3772 25.5071 74.1672 25.3937 73.9824C25.2803 73.7976 25.1333 73.6507 24.9528 73.5415C24.7722 73.4323 24.5664 73.3777 24.3312 73.3777V73.1929C24.5664 73.1929 24.768 73.1299 24.9402 72.9997C25.1123 72.8695 25.2551 72.71 25.3643 72.521C25.4735 72.332 25.5491 72.1514 25.5869 71.9709H25.8095V71.9751Z" fill="#1B3764"/>
<path d="M32.3821 70.0307V70.2155C32.2771 70.2323 32.2057 70.2869 32.1721 70.3792C32.1385 70.4674 32.1301 70.5724 32.1427 70.6858C32.1595 70.7992 32.1805 70.9042 32.2141 70.9966L33.6126 74.9315L33.3522 75.3305L34.4609 72.3236L34.591 72.5924L33.1758 76.5903C33.1002 76.5861 33.0246 76.5777 32.9406 76.5777C32.8567 76.5777 32.7727 76.5735 32.6845 76.5735C32.6047 76.5735 32.5207 76.5735 32.4409 76.5777C32.3569 76.5819 32.2771 76.5861 32.2057 76.5903L30.0598 70.816C29.98 70.6018 29.8918 70.4506 29.791 70.3624C29.6944 70.2743 29.5978 70.2281 29.5138 70.2239V70.0391C29.7364 70.0433 29.9968 70.0517 30.295 70.0559C30.5931 70.0601 30.8787 70.0643 31.1517 70.0643C31.4246 70.0643 31.664 70.0601 31.874 70.0559C32.0839 70.0433 32.2519 70.0349 32.3821 70.0307ZM39.0761 70.0307V70.2155C38.9333 70.2827 38.7863 70.417 38.631 70.6144C38.4756 70.8118 38.337 71.11 38.2152 71.5131L36.6614 76.5861C36.5858 76.5819 36.5102 76.5735 36.4262 76.5735C36.3422 76.5735 36.2582 76.5693 36.1701 76.5693C36.0903 76.5693 36.0063 76.5693 35.9265 76.5735C35.8425 76.5777 35.7627 76.5819 35.6913 76.5861L33.7469 70.6522C33.6966 70.4926 33.6336 70.3792 33.5538 70.3204C33.474 70.2575 33.3816 70.2239 33.2766 70.2197V70.0349C33.4866 70.0391 33.7343 70.0475 34.0157 70.0517C34.3013 70.0559 34.5868 70.0601 34.8766 70.0601C35.1664 70.0601 35.4393 70.0559 35.6955 70.0517C35.9517 70.0475 36.1575 70.0391 36.3128 70.0349V70.2197C36.1197 70.2239 35.9727 70.2491 35.8677 70.2911C35.7627 70.3331 35.7039 70.4044 35.6871 70.5136C35.6703 70.6228 35.6997 70.7824 35.7753 71.0008L37.0436 74.8517L36.7748 75.4144L37.7113 72.4244C37.8835 71.8743 37.9674 71.4417 37.959 71.1226C37.9548 70.8034 37.8793 70.5766 37.7365 70.438C37.5937 70.2995 37.4005 70.2281 37.1527 70.2197V70.0349C37.3879 70.0391 37.5937 70.0475 37.7785 70.0517C37.959 70.0559 38.1564 70.0601 38.3664 70.0601C38.4882 70.0601 38.6142 70.0559 38.7444 70.0517C38.8703 70.0433 38.9837 70.0349 39.0761 70.0307Z" fill="#1B3764"/>
<path d="M51.2207 70.0226V70.2074C51.0779 70.2746 50.9267 70.4048 50.7671 70.5896C50.6075 70.7743 50.4312 71.0599 50.238 71.4379L48.5708 74.7429H47.9492L45.7823 70.7365C45.6773 70.5392 45.5807 70.4048 45.4883 70.3292C45.396 70.2536 45.3162 70.22 45.249 70.22V70.0268C45.4421 70.0436 45.6395 70.0604 45.8453 70.0688C46.0511 70.0772 46.2778 70.0814 46.5256 70.0814C46.8406 70.0814 47.1807 70.0772 47.5503 70.0646C47.9157 70.052 48.2558 70.0394 48.5624 70.0268V70.22C48.407 70.22 48.2642 70.2242 48.1382 70.2368C48.008 70.2494 47.9157 70.2788 47.8611 70.325C47.8065 70.3712 47.8065 70.451 47.8611 70.5686L49.2595 73.252L48.8227 73.8274L49.5997 72.2736C49.86 71.7612 50.0028 71.3581 50.028 71.0599C50.0574 70.7659 50.0028 70.5476 49.8642 70.4174C49.7298 70.283 49.5367 70.2158 49.2889 70.2074V70.0226C49.5241 70.0268 49.7298 70.0352 49.9146 70.0394C50.0952 70.0436 50.2926 70.0478 50.5025 70.0478C50.6243 70.0478 50.7503 70.0436 50.8805 70.0394C51.0149 70.0352 51.1283 70.0268 51.2207 70.0226ZM49.3771 72.9455V75.6038C49.3771 75.8263 49.3939 75.9943 49.4275 76.1035C49.4611 76.2127 49.5241 76.2883 49.6165 76.3261C49.7088 76.3639 49.8474 76.3891 50.0322 76.4017V76.5864C49.8516 76.5738 49.6165 76.5654 49.3183 76.5612C49.0243 76.557 48.7304 76.557 48.4406 76.557C48.1256 76.557 47.8233 76.557 47.5293 76.5612C47.2353 76.5654 47.0044 76.5738 46.8406 76.5864V76.4017C47.0338 76.3891 47.1723 76.3639 47.2647 76.3261C47.3571 76.2883 47.4201 76.2169 47.4495 76.1035C47.4789 75.9943 47.4957 75.8263 47.4957 75.6038V73.7056L48.5036 74.2809L49.3771 72.9455Z" fill="#1B3764"/>
<path d="M56.9781 69.9009C57.6752 69.9009 58.2883 70.0353 58.809 70.2999C59.334 70.5644 59.7413 70.9466 60.0311 71.4421C60.3209 71.9377 60.4678 72.5424 60.4678 73.2521C60.4678 73.945 60.3209 74.5497 60.0227 75.0663C59.7245 75.5828 59.313 75.9902 58.788 76.2799C58.2589 76.5697 57.6542 76.7167 56.9697 76.7167C56.2725 76.7167 55.6594 76.5823 55.1387 76.3177C54.6137 76.0532 54.2064 75.671 53.9166 75.1713C53.6269 74.6715 53.4799 74.071 53.4799 73.3655C53.4799 72.6726 53.6311 72.0678 53.9292 71.5513C54.2274 71.0348 54.6389 70.6274 55.1639 70.3377C55.6888 70.0479 56.2935 69.9009 56.9781 69.9009ZM56.9403 70.0689C56.6337 70.0689 56.3649 70.2075 56.134 70.4846C55.9072 70.7618 55.7308 71.144 55.6048 71.6311C55.483 72.1182 55.42 72.6852 55.42 73.3235C55.42 73.9786 55.4914 74.5455 55.6342 75.0327C55.777 75.5156 55.966 75.8894 56.2096 76.154C56.4489 76.4143 56.7135 76.5487 57.0075 76.5487C57.314 76.5487 57.5828 76.4101 57.8138 76.133C58.0405 75.8558 58.2169 75.4694 58.3429 74.9823C58.4647 74.491 58.5277 73.9282 58.5277 73.2941C58.5277 72.6348 58.4563 72.0636 58.3135 71.5807C58.1707 71.0978 57.9817 70.7282 57.7382 70.4636C57.4946 70.1991 57.23 70.0689 56.9403 70.0689Z" fill="#1B3764"/>
<path d="M63.2989 70.0307C63.4795 70.0349 63.7147 70.0433 64.0087 70.0475C64.3026 70.0517 64.5966 70.0559 64.8947 70.0559C65.2013 70.0559 65.4995 70.0517 65.785 70.0475C66.0706 70.0433 66.268 70.0391 66.3856 70.0391C67.3221 70.0391 68.0234 70.1693 68.4811 70.4338C68.9389 70.6942 69.1698 71.1016 69.1698 71.6517C69.1698 71.8785 69.1236 72.101 69.0313 72.3194C68.9389 72.5336 68.7835 72.731 68.5609 72.9073C68.3383 73.0837 68.036 73.2223 67.6496 73.3231C67.2633 73.4239 66.7761 73.4743 66.184 73.4743H65.2937V73.2895H66.0916C66.4066 73.2895 66.6459 73.2181 66.8097 73.0795C66.9735 72.9409 67.0827 72.7562 67.1415 72.5252C67.2003 72.2942 67.2297 72.038 67.2297 71.7525C67.2297 71.2653 67.1625 70.8874 67.0323 70.6186C66.8979 70.3498 66.6711 70.2155 66.3436 70.2155C66.1336 70.2155 65.9992 70.2659 65.9362 70.3708C65.8732 70.4758 65.8438 70.69 65.8438 71.0092V75.5992C65.8438 75.8218 65.8606 75.9898 65.8942 76.099C65.9278 76.2082 65.9908 76.2837 66.0832 76.3215C66.1756 76.3593 66.3142 76.3845 66.499 76.3971V76.5819C66.3184 76.5693 66.0916 76.5609 65.8102 76.5567C65.5289 76.5525 65.2433 76.5525 64.9535 76.5525C64.6218 76.5525 64.3068 76.5525 64.0129 76.5567C63.7189 76.5609 63.4837 76.5693 63.3031 76.5819V76.3971C63.4963 76.3845 63.6349 76.3593 63.7273 76.3215C63.8197 76.2837 63.8827 76.2124 63.9121 76.099C63.9415 75.9898 63.9583 75.8218 63.9583 75.5992V71.0134C63.9583 70.7866 63.9415 70.6186 63.9121 70.5094C63.8827 70.4002 63.8197 70.3288 63.7231 70.2869C63.6265 70.2449 63.4879 70.2239 63.3031 70.2155V70.0307H63.2989ZM65.2349 73.3147C65.4575 73.3189 65.6675 73.3315 65.8648 73.3525C66.0622 73.3693 66.2428 73.3861 66.4108 73.4029C66.5787 73.4197 66.7173 73.4281 66.8349 73.4365C67.4942 73.4659 67.9898 73.5835 68.3215 73.7808C68.6533 73.9782 68.8549 74.268 68.9263 74.6501L69.1194 75.6118C69.1698 75.8386 69.2244 75.9982 69.2874 76.0822C69.3504 76.1704 69.4344 76.2123 69.5394 76.2123C69.6024 76.2123 69.6528 76.204 69.6948 76.183C69.7368 76.1662 69.783 76.1326 69.825 76.0906L69.9467 76.2123C69.7536 76.4055 69.5478 76.5357 69.321 76.6071C69.0943 76.6785 68.8423 76.7121 68.5567 76.7121C68.1536 76.7121 67.8302 76.6407 67.5866 76.4937C67.3389 76.3467 67.1877 76.0864 67.1331 75.7126L66.9945 74.7887C66.9567 74.5367 66.9105 74.31 66.8559 74.1126C66.8013 73.9152 66.7257 73.7598 66.6333 73.6465C66.541 73.5331 66.415 73.4743 66.2554 73.4743H65.2559L65.2349 73.3147Z" fill="#1B3764"/>
<path d="M75.4817 70.0307V70.2155C75.2969 70.2197 75.1583 70.2449 75.0617 70.2869C74.9651 70.3288 74.9021 70.4002 74.8727 70.5094C74.8433 70.6186 74.8265 70.7866 74.8265 71.0134V75.6034C74.8265 75.826 74.8433 75.994 74.8769 76.1032C74.9105 76.2124 74.9735 76.2879 75.0659 76.3257C75.1583 76.3635 75.2969 76.3887 75.4817 76.4013V76.5861C75.3011 76.5735 75.0743 76.5651 74.7929 76.5609C74.5116 76.5567 74.226 76.5567 73.9362 76.5567C73.6045 76.5567 73.2895 76.5567 72.9955 76.5609C72.7016 76.5651 72.4664 76.5735 72.2858 76.5861V76.4013C72.479 76.3887 72.6176 76.3635 72.71 76.3257C72.8024 76.2879 72.8654 76.2166 72.8948 76.1032C72.9242 75.994 72.941 75.826 72.941 75.6034V71.0134C72.941 70.7866 72.9242 70.6186 72.8948 70.5094C72.8654 70.4002 72.8024 70.3288 72.7058 70.2869C72.6092 70.2449 72.4706 70.2239 72.2858 70.2155V70.0307C72.4664 70.0349 72.7016 70.0433 72.9955 70.0475C73.2895 70.0517 73.6003 70.0559 73.9362 70.0559C74.226 70.0559 74.5116 70.0517 74.7929 70.0475C75.0743 70.0433 75.3011 70.0349 75.4817 70.0307ZM78.8706 70.0307V70.2071C78.6607 70.2617 78.4297 70.3624 78.1735 70.5136C77.9174 70.6606 77.6444 70.9 77.3546 71.2275L75.6496 73.1635L76.4013 72.1808L78.5935 75.8386C78.6733 75.9688 78.7531 76.078 78.8329 76.162C78.9126 76.2501 79.0218 76.3299 79.1562 76.4013V76.5861C78.8958 76.5735 78.6229 76.5651 78.3289 76.5609C78.0349 76.5567 77.7578 76.5567 77.4932 76.5567C77.3504 76.5567 77.174 76.5567 76.9641 76.5609C76.7541 76.5651 76.4895 76.5735 76.1662 76.5861V76.4013C76.4559 76.3887 76.6239 76.3551 76.6701 76.3005C76.7163 76.2459 76.6953 76.141 76.5987 75.9856L75.2549 73.7178C75.1919 73.6087 75.1373 73.5247 75.0869 73.4701C75.0365 73.4155 74.9903 73.3735 74.9441 73.3483C74.8979 73.3231 74.8391 73.3063 74.7635 73.3021V73.1089C75.0365 73.0963 75.2927 73.0039 75.532 72.836C75.7714 72.668 76.0612 72.3908 76.4013 72.0087L76.7163 71.6559C76.9767 71.3661 77.1111 71.1142 77.1279 70.9C77.1447 70.6858 77.0775 70.522 76.9347 70.4002C76.7877 70.2785 76.5987 70.2155 76.3635 70.2113V70.0349C76.6239 70.0391 76.8633 70.0475 77.0817 70.0517C77.3 70.0559 77.5814 70.0601 77.93 70.0601C78.3121 70.0601 78.6229 70.0475 78.8706 70.0307Z" fill="#1B3764"/>
<path d="M95.2363 89H0V0H95.2363V89ZM0.512339 88.4877H94.7197V0.512339H0.512339V88.4877Z" fill="#1B3764"/>
<path d="M95.2241 58.3773H0.00879057V58.9023H95.2241V58.3773Z" fill="#1B3764"/>
<path d="M47.1692 49.3445C39.5639 49.3445 34.2053 45.5103 34.1255 45.4515C33.7812 45.1995 33.7098 44.7166 33.9576 44.3722C34.2095 44.0279 34.6925 43.9565 35.0368 44.2043C35.4946 44.536 46.3587 52.2673 59.1084 44.1749C59.4695 43.9481 59.9441 44.0531 60.175 44.4142C60.4018 44.7754 60.2968 45.2499 59.9357 45.4809C55.3708 48.3744 50.9865 49.3445 47.1692 49.3445Z" fill="#1B3764"/>
<path d="M34.6457 45.2291C34.3308 45.2291 34.0326 45.0318 33.9192 44.7168C33.7764 44.3178 33.9822 43.8727 34.3854 43.7299L39.3324 41.9577C39.7355 41.8149 40.1765 42.0207 40.3193 42.4239C40.4621 42.8228 40.2563 43.268 39.8531 43.4107L34.9061 45.1829C34.8221 45.2165 34.7339 45.2291 34.6457 45.2291Z" fill="#1B3764"/>
<path d="M36.7671 50.9101C36.4647 50.9101 36.1791 50.7337 36.0573 50.4398L33.777 45.035C33.6132 44.6444 33.7938 44.1909 34.1886 44.0229C34.5791 43.8591 35.0327 44.0397 35.2007 44.4345L37.481 49.8392C37.6448 50.2298 37.4642 50.6833 37.0694 50.8513C36.9686 50.8933 36.8679 50.9101 36.7671 50.9101Z" fill="#1B3764"/>
</svg>
