<svg width="98" height="98" viewBox="0 0 98 98" fill="none" xmlns="http://www.w3.org/2000/svg">
<path d="M3.92 0H0V3.92H3.92V0Z" fill="black"/>
<path d="M7.84 0H3.92V3.92H7.84V0Z" fill="black"/>
<path d="M11.76 0H7.84V3.92H11.76V0Z" fill="black"/>
<path d="M15.68 0H11.76V3.92H15.68V0Z" fill="black"/>
<path d="M19.6 0H15.68V3.92H19.6V0Z" fill="black"/>
<path d="M23.52 0H19.6V3.92H23.52V0Z" fill="black"/>
<path d="M27.44 0H23.52V3.92H27.44V0Z" fill="black"/>
<path d="M35.28 0H31.36V3.92H35.28V0Z" fill="black"/>
<path d="M39.2 0H35.28V3.92H39.2V0Z" fill="black"/>
<path d="M47.04 0H43.12V3.92H47.04V0Z" fill="black"/>
<path d="M50.96 0H47.04V3.92H50.96V0Z" fill="black"/>
<path d="M54.88 0H50.96V3.92H54.88V0Z" fill="black"/>
<path d="M66.64 0H62.72V3.92H66.64V0Z" fill="black"/>
<path d="M74.48 0H70.56V3.92H74.48V0Z" fill="black"/>
<path d="M78.4 0H74.48V3.92H78.4V0Z" fill="black"/>
<path d="M82.32 0H78.4V3.92H82.32V0Z" fill="black"/>
<path d="M86.24 0H82.32V3.92H86.24V0Z" fill="black"/>
<path d="M90.16 0H86.24V3.92H90.16V0Z" fill="black"/>
<path d="M94.08 0H90.16V3.92H94.08V0Z" fill="black"/>
<path d="M98 0H94.08V3.92H98V0Z" fill="black"/>
<path d="M3.92 3.92H0V7.84H3.92V3.92Z" fill="black"/>
<path d="M27.44 3.92H23.52L23.52 7.84H27.44V3.92Z" fill="black"/>
<path d="M39.2 3.92H35.28V7.84H39.2V3.92Z" fill="black"/>
<path d="M47.04 3.92H43.12V7.84H47.04V3.92Z" fill="black"/>
<path d="M50.96 3.92H47.04V7.84H50.96V3.92Z" fill="black"/>
<path d="M66.64 3.92H62.72V7.84H66.64V3.92Z" fill="black"/>
<path d="M74.48 3.92H70.56V7.84H74.48V3.92Z" fill="black"/>
<path d="M98 3.92H94.08V7.84H98V3.92Z" fill="black"/>
<path d="M3.92 7.84H0V11.76H3.92V7.84Z" fill="black"/>
<path d="M11.76 7.84H7.84V11.76H11.76V7.84Z" fill="black"/>
<path d="M15.68 7.84H11.76V11.76H15.68V7.84Z" fill="black"/>
<path d="M19.6 7.84H15.68V11.76H19.6V7.84Z" fill="black"/>
<path d="M27.44 7.84H23.52V11.76H27.44V7.84Z" fill="black"/>
<path d="M39.2 7.84H35.28V11.76H39.2V7.84Z" fill="black"/>
<path d="M47.04 7.84H43.12V11.76H47.04V7.84Z" fill="black"/>
<path d="M54.88 7.84H50.96V11.76H54.88V7.84Z" fill="black"/>
<path d="M58.8 7.84H54.88V11.76H58.8V7.84Z" fill="black"/>
<path d="M62.72 7.84H58.8V11.76H62.72V7.84Z" fill="black"/>
<path d="M66.64 7.84H62.72V11.76H66.64V7.84Z" fill="black"/>
<path d="M74.48 7.84H70.56V11.76H74.48V7.84Z" fill="black"/>
<path d="M82.32 7.84H78.4V11.76H82.32V7.84Z" fill="black"/>
<path d="M86.24 7.84H82.32V11.76H86.24V7.84Z" fill="black"/>
<path d="M90.16 7.84H86.24V11.76H90.16V7.84Z" fill="black"/>
<path d="M98 7.84H94.08V11.76H98V7.84Z" fill="black"/>
<path d="M3.92 11.76H0V15.68H3.92V11.76Z" fill="black"/>
<path d="M11.76 11.76H7.84V15.68H11.76V11.76Z" fill="black"/>
<path d="M15.68 11.76H11.76V15.68H15.68V11.76Z" fill="black"/>
<path d="M19.6 11.76H15.68V15.68H19.6V11.76Z" fill="black"/>
<path d="M27.44 11.76H23.52V15.68H27.44V11.76Z" fill="black"/>
<path d="M47.04 11.76H43.12V15.68H47.04V11.76Z" fill="black"/>
<path d="M58.8 11.76H54.88V15.68H58.8V11.76Z" fill="black"/>
<path d="M66.64 11.76H62.72V15.68H66.64V11.76Z" fill="black"/>
<path d="M74.48 11.76H70.56V15.68H74.48V11.76Z" fill="black"/>
<path d="M82.32 11.76H78.4V15.68H82.32V11.76Z" fill="black"/>
<path d="M86.24 11.76H82.32V15.68H86.24V11.76Z" fill="black"/>
<path d="M90.16 11.76H86.24V15.68H90.16V11.76Z" fill="black"/>
<path d="M98 11.76H94.08V15.68H98V11.76Z" fill="black"/>
<path d="M3.92 15.68H0V19.6H3.92V15.68Z" fill="black"/>
<path d="M11.76 15.68H7.84V19.6H11.76V15.68Z" fill="black"/>
<path d="M15.68 15.68H11.76V19.6H15.68V15.68Z" fill="black"/>
<path d="M19.6 15.68H15.68V19.6H19.6V15.68Z" fill="black"/>
<path d="M27.44 15.68H23.52V19.6H27.44V15.68Z" fill="black"/>
<path d="M35.28 15.68H31.36V19.6H35.28V15.68Z" fill="black"/>
<path d="M50.96 15.68H47.04V19.6H50.96V15.68Z" fill="black"/>
<path d="M54.88 15.68H50.96V19.6H54.88V15.68Z" fill="black"/>
<path d="M58.8 15.68H54.88V19.6H58.8V15.68Z" fill="black"/>
<path d="M62.72 15.68H58.8V19.6H62.72V15.68Z" fill="black"/>
<path d="M66.64 15.68H62.72V19.6H66.64V15.68Z" fill="black"/>
<path d="M74.48 15.68H70.56V19.6H74.48V15.68Z" fill="black"/>
<path d="M82.32 15.68H78.4V19.6H82.32V15.68Z" fill="black"/>
<path d="M86.24 15.68H82.32V19.6H86.24V15.68Z" fill="black"/>
<path d="M90.16 15.68H86.24V19.6H90.16V15.68Z" fill="black"/>
<path d="M98 15.68H94.08V19.6H98V15.68Z" fill="black"/>
<path d="M3.92 19.6H0V23.52H3.92V19.6Z" fill="black"/>
<path d="M27.44 19.6H23.52V23.52H27.44V19.6Z" fill="black"/>
<path d="M50.96 19.6H47.04V23.52H50.96V19.6Z" fill="black"/>
<path d="M62.72 19.6H58.8L58.8 23.52H62.72V19.6Z" fill="black"/>
<path d="M74.48 19.6H70.56V23.52H74.48V19.6Z" fill="black"/>
<path d="M98 19.6H94.08V23.52H98V19.6Z" fill="black"/>
<path d="M3.92 23.52H0V27.44H3.92V23.52Z" fill="black"/>
<path d="M7.84 23.52L3.92 23.52V27.44H7.84V23.52Z" fill="black"/>
<path d="M11.76 23.52H7.84V27.44H11.76V23.52Z" fill="black"/>
<path d="M15.68 23.52H11.76V27.44H15.68V23.52Z" fill="black"/>
<path d="M19.6 23.52H15.68V27.44H19.6V23.52Z" fill="black"/>
<path d="M23.52 23.52L19.6 23.52V27.44H23.52L23.52 23.52Z" fill="black"/>
<path d="M27.44 23.52H23.52L23.52 27.44H27.44V23.52Z" fill="black"/>
<path d="M35.28 23.52H31.36V27.44H35.28V23.52Z" fill="black"/>
<path d="M43.12 23.52H39.2V27.44H43.12V23.52Z" fill="black"/>
<path d="M50.96 23.52H47.04V27.44H50.96V23.52Z" fill="black"/>
<path d="M58.8 23.52L54.88 23.52V27.44H58.8L58.8 23.52Z" fill="black"/>
<path d="M66.64 23.52L62.72 23.52V27.44H66.64V23.52Z" fill="black"/>
<path d="M74.48 23.52H70.56V27.44H74.48V23.52Z" fill="black"/>
<path d="M78.4 23.52L74.48 23.52V27.44H78.4V23.52Z" fill="black"/>
<path d="M82.32 23.52H78.4V27.44H82.32V23.52Z" fill="black"/>
<path d="M86.24 23.52H82.32V27.44H86.24V23.52Z" fill="black"/>
<path d="M90.16 23.52H86.24V27.44H90.16V23.52Z" fill="black"/>
<path d="M94.08 23.52L90.16 23.52V27.44H94.08V23.52Z" fill="black"/>
<path d="M98 23.52H94.08V27.44H98V23.52Z" fill="black"/>
<path d="M35.28 27.44H31.36V31.36H35.28V27.44Z" fill="black"/>
<path d="M47.04 27.44H43.12V31.36H47.04V27.44Z" fill="black"/>
<path d="M50.96 27.44H47.04V31.36H50.96V27.44Z" fill="black"/>
<path d="M58.8 27.44H54.88V31.36H58.8V27.44Z" fill="black"/>
<path d="M62.72 27.44H58.8V31.36H62.72V27.44Z" fill="black"/>
<path d="M66.64 27.44H62.72V31.36H66.64V27.44Z" fill="black"/>
<path d="M3.92 31.36H0V35.28H3.92V31.36Z" fill="black"/>
<path d="M15.68 31.36H11.76V35.28H15.68V31.36Z" fill="black"/>
<path d="M19.6 31.36H15.68V35.28H19.6V31.36Z" fill="black"/>
<path d="M23.52 31.36H19.6V35.28H23.52V31.36Z" fill="black"/>
<path d="M27.44 31.36H23.52V35.28H27.44V31.36Z" fill="black"/>
<path d="M31.36 31.36H27.44V35.28H31.36V31.36Z" fill="black"/>
<path d="M35.28 31.36H31.36V35.28H35.28V31.36Z" fill="black"/>
<path d="M58.8 31.36H54.88V35.28H58.8V31.36Z" fill="black"/>
<path d="M66.64 31.36H62.72V35.28H66.64V31.36Z" fill="black"/>
<path d="M70.56 31.36H66.64V35.28H70.56V31.36Z" fill="black"/>
<path d="M74.48 31.36H70.56V35.28H74.48V31.36Z" fill="black"/>
<path d="M82.32 31.36H78.4V35.28H82.32V31.36Z" fill="black"/>
<path d="M98 31.36H94.08V35.28H98V31.36Z" fill="black"/>
<path d="M7.84 35.28H3.92V39.2H7.84V35.28Z" fill="black"/>
<path d="M11.76 35.28H7.84V39.2H11.76V35.28Z" fill="black"/>
<path d="M35.28 35.28H31.36V39.2H35.28V35.28Z" fill="black"/>
<path d="M39.2 35.28H35.28V39.2H39.2V35.28Z" fill="black"/>
<path d="M43.12 35.28H39.2V39.2H43.12V35.28Z" fill="black"/>
<path d="M47.04 35.28H43.12V39.2H47.04V35.28Z" fill="black"/>
<path d="M50.96 35.28H47.04V39.2H50.96V35.28Z" fill="black"/>
<path d="M54.88 35.28H50.96V39.2H54.88V35.28Z" fill="black"/>
<path d="M58.8 35.28H54.88V39.2H58.8V35.28Z" fill="black"/>
<path d="M82.32 35.28H78.4V39.2H82.32V35.28Z" fill="black"/>
<path d="M94.08 35.28H90.16V39.2H94.08V35.28Z" fill="black"/>
<path d="M98 35.28H94.08V39.2H98V35.28Z" fill="black"/>
<path d="M11.76 39.2H7.84V43.12H11.76V39.2Z" fill="black"/>
<path d="M15.68 39.2H11.76V43.12H15.68V39.2Z" fill="black"/>
<path d="M19.6 39.2H15.68V43.12H19.6V39.2Z" fill="black"/>
<path d="M23.52 39.2H19.6V43.12H23.52V39.2Z" fill="black"/>
<path d="M27.44 39.2H23.52V43.12H27.44V39.2Z" fill="black"/>
<path d="M31.36 39.2H27.44V43.12H31.36V39.2Z" fill="black"/>
<path d="M39.2 39.2H35.28V43.12H39.2V39.2Z" fill="black"/>
<path d="M47.04 39.2H43.12V43.12H47.04V39.2Z" fill="black"/>
<path d="M50.96 39.2H47.04V43.12H50.96V39.2Z" fill="black"/>
<path d="M74.48 39.2H70.56V43.12H74.48V39.2Z" fill="black"/>
<path d="M82.32 39.2H78.4V43.12H82.32V39.2Z" fill="black"/>
<path d="M98 39.2H94.08V43.12H98V39.2Z" fill="black"/>
<path d="M3.92 43.12H0V47.04H3.92V43.12Z" fill="black"/>
<path d="M19.6 43.12H15.68V47.04H19.6V43.12Z" fill="black"/>
<path d="M23.52 43.12H19.6V47.04H23.52V43.12Z" fill="black"/>
<path d="M35.28 43.12H31.36V47.04H35.28V43.12Z" fill="black"/>
<path d="M47.04 43.12H43.12V47.04H47.04V43.12Z" fill="black"/>
<path d="M66.64 43.12H62.72V47.04H66.64V43.12Z" fill="black"/>
<path d="M74.48 43.12H70.56V47.04H74.48V43.12Z" fill="black"/>
<path d="M78.4 43.12H74.48V47.04H78.4V43.12Z" fill="black"/>
<path d="M98 43.12H94.08V47.04H98V43.12Z" fill="black"/>
<path d="M3.92 47.04H0V50.96H3.92V47.04Z" fill="black"/>
<path d="M7.84 47.04H3.92V50.96H7.84V47.04Z" fill="black"/>
<path d="M27.44 47.04H23.52L23.52 50.96H27.44V47.04Z" fill="black"/>
<path d="M35.28 47.04H31.36V50.96H35.28V47.04Z" fill="black"/>
<path d="M47.04 47.04H43.12V50.96H47.04V47.04Z" fill="black"/>
<path d="M50.96 47.04H47.04V50.96H50.96V47.04Z" fill="black"/>
<path d="M62.72 47.04H58.8V50.96H62.72V47.04Z" fill="black"/>
<path d="M70.56 47.04H66.64V50.96H70.56V47.04Z" fill="black"/>
<path d="M74.48 47.04H70.56V50.96H74.48V47.04Z" fill="black"/>
<path d="M82.32 47.04H78.4V50.96H82.32V47.04Z" fill="black"/>
<path d="M94.08 47.04H90.16V50.96H94.08V47.04Z" fill="black"/>
<path d="M11.76 50.96H7.84V54.88H11.76V50.96Z" fill="black"/>
<path d="M19.6 50.96H15.68V54.88H19.6V50.96Z" fill="black"/>
<path d="M23.52 50.96H19.6V54.88H23.52L23.52 50.96Z" fill="black"/>
<path d="M35.28 50.96H31.36V54.88H35.28V50.96Z" fill="black"/>
<path d="M43.12 50.96H39.2V54.88H43.12V50.96Z" fill="black"/>
<path d="M47.04 50.96H43.12V54.88H47.04V50.96Z" fill="black"/>
<path d="M50.96 50.96H47.04V54.88H50.96V50.96Z" fill="black"/>
<path d="M54.88 50.96H50.96V54.88H54.88V50.96Z" fill="black"/>
<path d="M66.64 50.96H62.72V54.88H66.64V50.96Z" fill="black"/>
<path d="M74.48 50.96H70.56V54.88H74.48V50.96Z" fill="black"/>
<path d="M78.4 50.96H74.48V54.88H78.4V50.96Z" fill="black"/>
<path d="M82.32 50.96H78.4V54.88H82.32V50.96Z" fill="black"/>
<path d="M86.24 50.96H82.32V54.88H86.24V50.96Z" fill="black"/>
<path d="M98 50.96H94.08V54.88H98V50.96Z" fill="black"/>
<path d="M15.68 54.88H11.76V58.8H15.68V54.88Z" fill="black"/>
<path d="M19.6 54.88H15.68V58.8H19.6V54.88Z" fill="black"/>
<path d="M23.52 54.88H19.6V58.8H23.52V54.88Z" fill="black"/>
<path d="M27.44 54.88H23.52V58.8H27.44V54.88Z" fill="black"/>
<path d="M31.36 54.88H27.44V58.8H31.36V54.88Z" fill="black"/>
<path d="M35.28 54.88H31.36V58.8H35.28V54.88Z" fill="black"/>
<path d="M43.12 54.88H39.2V58.8H43.12V54.88Z" fill="black"/>
<path d="M54.88 54.88H50.96V58.8H54.88V54.88Z" fill="black"/>
<path d="M62.72 54.88H58.8V58.8H62.72V54.88Z" fill="black"/>
<path d="M66.64 54.88H62.72V58.8H66.64V54.88Z" fill="black"/>
<path d="M74.48 54.88H70.56V58.8H74.48V54.88Z" fill="black"/>
<path d="M86.24 54.88H82.32V58.8H86.24V54.88Z" fill="black"/>
<path d="M94.08 54.88H90.16V58.8H94.08V54.88Z" fill="black"/>
<path d="M98 54.88H94.08V58.8H98V54.88Z" fill="black"/>
<path d="M11.76 58.8L7.84 58.8V62.72H11.76V58.8Z" fill="black"/>
<path d="M15.68 58.8H11.76V62.72H15.68V58.8Z" fill="black"/>
<path d="M23.52 58.8H19.6V62.72H23.52V58.8Z" fill="black"/>
<path d="M35.28 58.8H31.36V62.72H35.28V58.8Z" fill="black"/>
<path d="M43.12 58.8H39.2V62.72H43.12V58.8Z" fill="black"/>
<path d="M47.04 58.8L43.12 58.8V62.72H47.04V58.8Z" fill="black"/>
<path d="M66.64 58.8H62.72V62.72H66.64V58.8Z" fill="black"/>
<path d="M74.48 58.8H70.56V62.72H74.48V58.8Z" fill="black"/>
<path d="M78.4 58.8L74.48 58.8V62.72H78.4V58.8Z" fill="black"/>
<path d="M90.16 58.8H86.24V62.72H90.16V58.8Z" fill="black"/>
<path d="M94.08 58.8H90.16V62.72H94.08V58.8Z" fill="black"/>
<path d="M7.84 62.72H3.92V66.64H7.84V62.72Z" fill="black"/>
<path d="M11.76 62.72H7.84V66.64H11.76V62.72Z" fill="black"/>
<path d="M15.68 62.72H11.76V66.64H15.68V62.72Z" fill="black"/>
<path d="M19.6 62.72H15.68V66.64H19.6V62.72Z" fill="black"/>
<path d="M27.44 62.72H23.52L23.52 66.64H27.44V62.72Z" fill="black"/>
<path d="M35.28 62.72H31.36V66.64H35.28V62.72Z" fill="black"/>
<path d="M47.04 62.72H43.12V66.64H47.04V62.72Z" fill="black"/>
<path d="M54.88 62.72H50.96V66.64H54.88V62.72Z" fill="black"/>
<path d="M58.8 62.72H54.88V66.64H58.8V62.72Z" fill="black"/>
<path d="M66.64 62.72H62.72V66.64H66.64V62.72Z" fill="black"/>
<path d="M70.56 62.72H66.64V66.64H70.56V62.72Z" fill="black"/>
<path d="M74.48 62.72H70.56V66.64H74.48V62.72Z" fill="black"/>
<path d="M78.4 62.72H74.48V66.64H78.4V62.72Z" fill="black"/>
<path d="M82.32 62.72H78.4V66.64H82.32V62.72Z" fill="black"/>
<path d="M90.16 62.72H86.24V66.64H90.16V62.72Z" fill="black"/>
<path d="M35.28 66.64H31.36V70.56H35.28V66.64Z" fill="black"/>
<path d="M43.12 66.64H39.2V70.56H43.12V66.64Z" fill="black"/>
<path d="M47.04 66.64H43.12V70.56H47.04V66.64Z" fill="black"/>
<path d="M50.96 66.64H47.04V70.56H50.96V66.64Z" fill="black"/>
<path d="M58.8 66.64H54.88V70.56H58.8V66.64Z" fill="black"/>
<path d="M66.64 66.64H62.72V70.56H66.64V66.64Z" fill="black"/>
<path d="M82.32 66.64H78.4V70.56H82.32V66.64Z" fill="black"/>
<path d="M86.24 66.64H82.32V70.56H86.24V66.64Z" fill="black"/>
<path d="M90.16 66.64H86.24V70.56H90.16V66.64Z" fill="black"/>
<path d="M98 66.64H94.08V70.56H98V66.64Z" fill="black"/>
<path d="M3.92 70.56H0V74.48H3.92V70.56Z" fill="black"/>
<path d="M7.84 70.56H3.92V74.48H7.84V70.56Z" fill="black"/>
<path d="M11.76 70.56H7.84V74.48H11.76V70.56Z" fill="black"/>
<path d="M15.68 70.56H11.76V74.48H15.68V70.56Z" fill="black"/>
<path d="M19.6 70.56H15.68V74.48H19.6V70.56Z" fill="black"/>
<path d="M23.52 70.56H19.6V74.48H23.52V70.56Z" fill="black"/>
<path d="M27.44 70.56H23.52V74.48H27.44V70.56Z" fill="black"/>
<path d="M35.28 70.56H31.36V74.48H35.28V70.56Z" fill="black"/>
<path d="M43.12 70.56H39.2V74.48H43.12V70.56Z" fill="black"/>
<path d="M50.96 70.56H47.04V74.48H50.96V70.56Z" fill="black"/>
<path d="M66.64 70.56H62.72V74.48H66.64V70.56Z" fill="black"/>
<path d="M74.48 70.56H70.56V74.48H74.48V70.56Z" fill="black"/>
<path d="M82.32 70.56H78.4V74.48H82.32V70.56Z" fill="black"/>
<path d="M86.24 70.56H82.32V74.48H86.24V70.56Z" fill="black"/>
<path d="M90.16 70.56H86.24V74.48H90.16V70.56Z" fill="black"/>
<path d="M94.08 70.56H90.16V74.48H94.08V70.56Z" fill="black"/>
<path d="M98 70.56H94.08V74.48H98V70.56Z" fill="black"/>
<path d="M3.92 74.48H0V78.4H3.92V74.48Z" fill="black"/>
<path d="M27.44 74.48H23.52L23.52 78.4H27.44V74.48Z" fill="black"/>
<path d="M35.28 74.48H31.36V78.4H35.28V74.48Z" fill="black"/>
<path d="M43.12 74.48H39.2V78.4H43.12V74.48Z" fill="black"/>
<path d="M50.96 74.48H47.04V78.4H50.96V74.48Z" fill="black"/>
<path d="M66.64 74.48H62.72V78.4H66.64V74.48Z" fill="black"/>
<path d="M82.32 74.48H78.4V78.4H82.32V74.48Z" fill="black"/>
<path d="M90.16 74.48H86.24V78.4H90.16V74.48Z" fill="black"/>
<path d="M98 74.48H94.08V78.4H98V74.48Z" fill="black"/>
<path d="M3.92 78.4H0V82.32H3.92V78.4Z" fill="black"/>
<path d="M11.76 78.4H7.84V82.32H11.76V78.4Z" fill="black"/>
<path d="M15.68 78.4H11.76V82.32H15.68V78.4Z" fill="black"/>
<path d="M19.6 78.4H15.68V82.32H19.6V78.4Z" fill="black"/>
<path d="M27.44 78.4H23.52V82.32H27.44V78.4Z" fill="black"/>
<path d="M35.28 78.4H31.36V82.32H35.28V78.4Z" fill="black"/>
<path d="M39.2 78.4H35.28V82.32H39.2V78.4Z" fill="black"/>
<path d="M54.88 78.4H50.96V82.32H54.88V78.4Z" fill="black"/>
<path d="M58.8 78.4H54.88V82.32H58.8V78.4Z" fill="black"/>
<path d="M66.64 78.4H62.72V82.32H66.64V78.4Z" fill="black"/>
<path d="M70.56 78.4H66.64V82.32H70.56V78.4Z" fill="black"/>
<path d="M74.48 78.4H70.56V82.32H74.48V78.4Z" fill="black"/>
<path d="M78.4 78.4H74.48V82.32H78.4V78.4Z" fill="black"/>
<path d="M82.32 78.4H78.4V82.32H82.32V78.4Z" fill="black"/>
<path d="M94.08 78.4H90.16V82.32H94.08V78.4Z" fill="black"/>
<path d="M98 78.4H94.08V82.32H98V78.4Z" fill="black"/>
<path d="M3.92 82.32H0V86.24H3.92V82.32Z" fill="black"/>
<path d="M11.76 82.32H7.84V86.24H11.76V82.32Z" fill="black"/>
<path d="M15.68 82.32H11.76V86.24H15.68V82.32Z" fill="black"/>
<path d="M19.6 82.32H15.68V86.24H19.6V82.32Z" fill="black"/>
<path d="M27.44 82.32H23.52V86.24H27.44V82.32Z" fill="black"/>
<path d="M35.28 82.32H31.36V86.24H35.28V82.32Z" fill="black"/>
<path d="M43.12 82.32H39.2V86.24H43.12V82.32Z" fill="black"/>
<path d="M54.88 82.32H50.96V86.24H54.88V82.32Z" fill="black"/>
<path d="M58.8 82.32H54.88V86.24H58.8V82.32Z" fill="black"/>
<path d="M62.72 82.32H58.8V86.24H62.72V82.32Z" fill="black"/>
<path d="M74.48 82.32H70.56V86.24H74.48V82.32Z" fill="black"/>
<path d="M3.92 86.24H0V90.16H3.92V86.24Z" fill="black"/>
<path d="M11.76 86.24H7.84V90.16H11.76V86.24Z" fill="black"/>
<path d="M15.68 86.24H11.76V90.16H15.68V86.24Z" fill="black"/>
<path d="M19.6 86.24H15.68V90.16H19.6V86.24Z" fill="black"/>
<path d="M27.44 86.24H23.52V90.16H27.44V86.24Z" fill="black"/>
<path d="M39.2 86.24H35.28V90.16H39.2V86.24Z" fill="black"/>
<path d="M43.12 86.24H39.2V90.16H43.12V86.24Z" fill="black"/>
<path d="M47.04 86.24H43.12V90.16H47.04V86.24Z" fill="black"/>
<path d="M50.96 86.24H47.04V90.16H50.96V86.24Z" fill="black"/>
<path d="M54.88 86.24H50.96V90.16H54.88V86.24Z" fill="black"/>
<path d="M62.72 86.24H58.8L58.8 90.16H62.72V86.24Z" fill="black"/>
<path d="M66.64 86.24H62.72V90.16H66.64V86.24Z" fill="black"/>
<path d="M74.48 86.24H70.56V90.16H74.48V86.24Z" fill="black"/>
<path d="M78.4 86.24H74.48V90.16H78.4V86.24Z" fill="black"/>
<path d="M90.16 86.24H86.24V90.16H90.16V86.24Z" fill="black"/>
<path d="M94.08 86.24H90.16V90.16H94.08V86.24Z" fill="black"/>
<path d="M98 86.24H94.08V90.16H98V86.24Z" fill="black"/>
<path d="M3.92 90.16H0V94.08H3.92V90.16Z" fill="black"/>
<path d="M27.44 90.16H23.52V94.08H27.44V90.16Z" fill="black"/>
<path d="M50.96 90.16H47.04V94.08H50.96V90.16Z" fill="black"/>
<path d="M62.72 90.16H58.8V94.08H62.72V90.16Z" fill="black"/>
<path d="M82.32 90.16H78.4V94.08H82.32V90.16Z" fill="black"/>
<path d="M90.16 90.16H86.24V94.08H90.16V90.16Z" fill="black"/>
<path d="M94.08 90.16H90.16V94.08H94.08V90.16Z" fill="black"/>
<path d="M98 90.16H94.08V94.08H98V90.16Z" fill="black"/>
<path d="M3.92 94.08H0V98H3.92V94.08Z" fill="black"/>
<path d="M7.84 94.08H3.92V98H7.84V94.08Z" fill="black"/>
<path d="M11.76 94.08H7.84V98H11.76V94.08Z" fill="black"/>
<path d="M15.68 94.08H11.76V98H15.68V94.08Z" fill="black"/>
<path d="M19.6 94.08H15.68V98H19.6V94.08Z" fill="black"/>
<path d="M23.52 94.08H19.6V98H23.52L23.52 94.08Z" fill="black"/>
<path d="M27.44 94.08H23.52L23.52 98H27.44V94.08Z" fill="black"/>
<path d="M35.28 94.08H31.36V98H35.28V94.08Z" fill="black"/>
<path d="M47.04 94.08H43.12V98H47.04V94.08Z" fill="black"/>
<path d="M62.72 94.08H58.8V98H62.72V94.08Z" fill="black"/>
<path d="M70.56 94.08H66.64V98H70.56V94.08Z" fill="black"/>
<path d="M86.24 94.08H82.32V98H86.24V94.08Z" fill="black"/>
<path d="M98 94.08H94.08V98H98V94.08Z" fill="black"/>
</svg>
