<svg width="32" height="44" viewBox="0 0 32 44" fill="none" xmlns="http://www.w3.org/2000/svg">
<path d="M21.5565 1.09373L0.999983 26.5H13L10.0459 42.7403C10.0403 42.7722 10.0417 42.8049 10.0501 42.8361C10.0585 42.8674 10.0737 42.8964 10.0945 42.9211C10.1153 42.9459 10.1413 42.9658 10.1707 42.9794C10.2 42.993 10.232 43.0001 10.2644 43V43C10.2988 42.9999 10.3327 42.9919 10.3635 42.9764C10.3942 42.961 10.421 42.9385 10.4415 42.9109L31 17.5H19L21.9681 1.2578C21.9721 1.22544 21.9692 1.1926 21.9595 1.16147C21.9498 1.13033 21.9336 1.10162 21.912 1.07723C21.8903 1.05284 21.8637 1.03334 21.834 1.02002C21.8042 1.0067 21.772 0.999872 21.7394 0.999985V0.999985C21.7037 1.00013 21.6685 1.00869 21.6367 1.02498C21.605 1.04127 21.5775 1.06483 21.5565 1.09373V1.09373Z" stroke="white" stroke-width="2" stroke-linecap="round" stroke-linejoin="round"/>
</svg>
