<svg width="100" height="100" viewBox="0 0 100 100" fill="none" xmlns="http://www.w3.org/2000/svg">
<path d="M50.002 100C22.4302 100 0 77.5697 0 50.002C0 22.4302 22.4302 0 50.002 0C77.5697 0 100 22.4302 100 50.002C100 77.5697 77.5697 100 50.002 100ZM50.002 2.03062C23.5511 2.03062 2.03062 23.5511 2.03062 50.002C2.03062 76.4529 23.5511 97.9734 50.002 97.9734C76.4529 97.9734 97.9734 76.4529 97.9734 50.002C97.9694 23.5511 76.4529 2.03062 50.002 2.03062Z" fill="#1B3764"/>
<path d="M10.2508 49.3404C10.2508 49.5028 10.531 49.584 11.0956 49.584C11.2336 49.584 11.3392 49.5678 11.4042 49.5394C11.5788 49.4541 11.7981 49.4135 12.054 49.4135C12.3099 49.4135 12.4398 49.4784 12.4398 49.6125C12.4398 49.6653 12.4195 49.7424 12.3748 49.8399C12.3302 49.9414 12.2977 50.0023 12.2774 50.0226C12.2571 50.0429 12.1758 50.0754 12.0378 50.112C11.8997 50.1485 11.8103 50.1729 11.7657 50.177C11.725 50.181 11.6966 50.1851 11.6844 50.1851C11.6723 50.1892 11.656 50.1892 11.6357 50.1932C11.6154 50.1973 11.5748 50.2013 11.5098 50.2135C11.4448 50.2257 11.3961 50.2257 11.3677 50.2135C10.5473 50.6196 9.98277 51.0623 9.67412 51.5456C9.53604 51.7649 9.46699 51.9517 9.46699 52.1061C9.46699 52.3497 9.63757 52.4756 9.97871 52.4756C10.2427 52.4756 10.5838 52.37 10.99 52.1629C11.4001 51.9558 11.7616 51.6999 12.0784 51.4035C12.3952 51.107 12.5535 50.8511 12.5535 50.6318C12.5535 50.5628 12.6063 50.5262 12.7079 50.5262C12.9475 50.5262 13.0693 50.6684 13.0693 50.9527C13.0693 51.0867 13.0125 51.2451 12.8947 51.4319C12.7769 51.6187 12.6145 51.8055 12.4073 51.9923C12.2002 52.1832 11.9687 52.3579 11.7129 52.5244C11.457 52.6868 11.1727 52.8208 10.86 52.9264C10.5473 53.032 10.2833 53.0848 10.0681 53.0848C9.85281 53.0848 9.67818 53.0645 9.54416 53.0239C9.41014 52.9833 9.2883 52.9224 9.17052 52.8411C8.91873 52.6665 8.78877 52.3985 8.78877 52.0411C8.78877 51.8461 8.84156 51.6512 8.94716 51.4522C9.05275 51.2532 9.18677 51.0704 9.35734 50.908C9.666 50.5993 9.99902 50.3435 10.3564 50.1404C9.84469 50.0226 9.58883 49.7587 9.58883 49.3525C9.58883 48.8896 9.94216 48.4672 10.6529 48.0854C11.0468 47.8742 11.4773 47.724 11.9362 47.6306C12.1555 47.5859 12.3383 47.5615 12.4845 47.5615C12.781 47.5615 13.0084 47.5859 13.1587 47.6306C13.2521 47.6752 13.3252 47.7362 13.382 47.8174C13.4389 47.8986 13.4673 47.9677 13.4673 48.0245C13.4673 48.0814 13.4592 48.1342 13.447 48.1829C13.4308 48.2316 13.4064 48.2682 13.3739 48.2926C13.3252 48.3291 13.2683 48.3575 13.2074 48.3778C13.1465 48.3981 13.1099 48.4103 13.0977 48.4144C12.9028 48.4956 12.7363 48.5362 12.5982 48.5362C12.3505 48.5362 12.2165 48.5037 12.1921 48.4388C12.1962 48.3738 12.2246 48.3007 12.2733 48.2154C12.0378 48.2235 11.7941 48.2722 11.5382 48.3575C11.2864 48.4428 11.0671 48.5444 10.8803 48.6581C10.6935 48.7718 10.5432 48.8936 10.4254 49.0155C10.3117 49.1495 10.2508 49.2551 10.2508 49.3404Z" fill="#1B3764"/>
<path d="M13.3336 52.2365L13.3295 52.2975C13.3295 52.3584 13.3539 52.4112 13.3986 52.4558C13.4473 52.5005 13.4879 52.5249 13.5285 52.5249C13.825 52.5249 14.089 52.4802 14.3205 52.3909C14.552 52.3015 14.6657 52.2122 14.6657 52.1228C14.6657 52.0822 14.6251 52.0457 14.5398 52.0132C14.4545 51.9807 14.3164 51.9441 14.1174 51.8994C13.9184 51.8548 13.7763 51.8182 13.6869 51.7898C13.5976 51.7654 13.5285 51.7411 13.4757 51.7167C13.4229 51.6964 13.3701 51.6639 13.3173 51.6233C13.1996 51.5421 13.1427 51.4202 13.1427 51.2578C13.1427 51.0953 13.2036 50.9329 13.3214 50.7745C13.4432 50.6161 13.5935 50.478 13.7722 50.3643C13.9509 50.2506 14.1499 50.1491 14.357 50.0638C14.7672 49.8932 15.1165 49.8079 15.3967 49.8079C15.6729 49.8079 15.8434 49.8688 15.9084 49.9866C15.9287 50.0272 15.9368 50.076 15.9368 50.1287V50.1531C15.9368 50.2831 15.9084 50.3887 15.8516 50.4618C15.7947 50.5349 15.7094 50.6039 15.5876 50.6648C15.4657 50.7257 15.3723 50.7542 15.2992 50.7542C15.2302 50.7542 15.1855 50.7501 15.1652 50.7379C15.1449 50.7257 15.1327 50.7136 15.1165 50.6973C15.1043 50.6811 15.088 50.6689 15.0718 50.6608C15.0515 50.6526 15.0434 50.6364 15.0434 50.6039C15.0434 50.5755 15.0556 50.543 15.0799 50.5146C15.1043 50.4821 15.1205 50.4496 15.1327 50.4171C14.9703 50.4252 14.7956 50.4618 14.6169 50.5308C14.4382 50.5998 14.2839 50.677 14.158 50.7582C14.0321 50.8435 13.9225 50.9248 13.8412 51.0019C13.756 51.0791 13.7153 51.1359 13.7153 51.1725C13.7153 51.209 13.7722 51.2375 13.8859 51.2618C14.4017 51.3634 14.7388 51.4527 14.8972 51.5258C15.0556 51.5989 15.1693 51.6842 15.2343 51.7776C15.2952 51.871 15.3277 51.9563 15.3277 52.0335C15.3277 52.1919 15.2627 52.3421 15.1368 52.4843C15.0109 52.6264 14.8525 52.7401 14.6657 52.8295C14.2677 53.0244 13.9184 53.1219 13.6219 53.1219C13.3255 53.1219 13.1224 53.0772 13.0087 52.9879C12.895 52.8985 12.8381 52.7889 12.8381 52.667C12.8381 52.5452 12.8706 52.4274 12.9315 52.3218C12.9965 52.2162 13.0777 52.1634 13.1752 52.1634C13.2808 52.1594 13.3336 52.1837 13.3336 52.2365Z" fill="#1B3764"/>
<path d="M18.2879 48.1831L18.4422 48.2196C18.4625 48.2196 18.4829 48.2318 18.5032 48.2521C18.5235 48.2724 18.5275 48.2968 18.5275 48.3171C18.5275 48.3374 18.5032 48.3902 18.4504 48.4755C18.3976 48.5608 18.3366 48.6623 18.2676 48.772C18.1986 48.8816 18.158 48.9425 18.1539 48.9507C18.3488 48.9344 18.4829 48.9303 18.5641 48.9303C18.6453 48.9303 18.6981 48.9344 18.7306 48.9466C18.7631 48.9588 18.7956 48.9872 18.8321 49.04C18.8687 49.0928 18.9052 49.1293 18.9377 49.1537C18.9702 49.1781 18.9864 49.2187 18.9864 49.2715C18.9864 49.3243 18.954 49.369 18.893 49.4055C18.8281 49.4421 18.7631 49.4624 18.69 49.4705C18.1133 49.5273 17.7965 49.5558 17.7356 49.5598C17.5325 49.8685 17.2523 50.3477 16.8908 50.9975C16.5294 51.6473 16.3385 52.0575 16.3141 52.22C16.306 52.2931 16.2979 52.354 16.2979 52.4027C16.2979 52.5002 16.3507 52.5489 16.4522 52.5489C16.5538 52.5489 16.6675 52.5083 16.7893 52.4311C16.9111 52.354 17.0289 52.2687 17.1305 52.1753C17.4066 51.9275 17.5569 51.8016 17.5772 51.8016C17.6422 51.8016 17.6747 51.9113 17.6747 52.1387C17.6747 52.2606 17.6178 52.3702 17.5082 52.4677C17.2564 52.6829 17.0452 52.8454 16.8746 52.955C16.704 53.0647 16.5335 53.1175 16.3629 53.1175C16.3263 53.1175 16.2898 53.1134 16.2573 53.1053C16.0583 53.0688 15.9121 52.9957 15.8187 52.886C15.7253 52.7763 15.6806 52.6301 15.6806 52.4474C15.6806 52.2646 15.7375 52.0413 15.843 51.7773C15.9527 51.5174 16.0867 51.2371 16.2492 50.9407C16.5172 50.4574 16.7853 50.0066 17.0533 49.5842L16.9111 49.6045C16.6228 49.637 16.4563 49.6532 16.4076 49.6532H16.3751C16.302 49.6532 16.2329 49.637 16.1679 49.6086C16.103 49.5801 16.0664 49.5436 16.0664 49.503C16.0664 49.4624 16.0827 49.4218 16.1192 49.3811C16.1558 49.3405 16.1761 49.3121 16.1842 49.2877C16.2004 49.2349 16.2654 49.174 16.3791 49.105C16.4928 49.0359 16.5781 49.0034 16.635 48.9994C16.6918 48.9953 16.7487 48.9913 16.8015 48.9913C16.8543 48.9872 16.9152 48.9872 16.9802 48.9831C17.0452 48.9791 17.098 48.9791 17.1305 48.975L17.4675 48.9588C17.6747 48.6461 17.8209 48.443 17.898 48.3536C17.9752 48.2643 18.0199 48.2156 18.0321 48.2074C18.0442 48.1993 18.0686 48.1953 18.1052 48.1953L18.2879 48.1831Z" fill="#1B3764"/>
<path d="M17.8698 52.5403C17.9875 52.4226 18.1053 52.3616 18.219 52.3616C18.4262 52.3616 18.5277 52.4469 18.5277 52.6134C18.5277 52.7515 18.4708 52.8855 18.3531 53.0155C18.2353 53.1455 18.1053 53.2104 17.9591 53.2104C17.7804 53.2104 17.6911 53.1211 17.6911 52.9383C17.6911 52.7921 17.752 52.6581 17.8698 52.5403Z" fill="#1B3764"/>
<path d="M80.4244 52.3694C81.0661 52.2435 81.5088 52.1785 81.7565 52.1785C81.8499 52.1785 81.8986 52.2069 81.9149 52.2638C81.9189 52.2882 81.9311 52.3044 81.9514 52.3125C81.9717 52.3247 81.9921 52.3734 82.0124 52.4587C82.0327 52.544 82.0448 52.6171 82.0489 52.6699V52.7024C82.0489 52.7877 82.0164 52.8405 81.9514 52.8527C81.7118 52.9014 81.326 52.9461 80.7859 52.9867C80.2498 53.0273 79.9289 53.0557 79.8274 53.0679C79.7746 53.0679 79.6934 53.0395 79.5797 52.9826C79.5553 52.9583 79.5309 52.9217 79.5066 52.8648C79.4822 52.808 79.466 52.7593 79.466 52.7146C79.466 52.674 79.4903 52.6049 79.535 52.5115C79.5431 52.4953 79.6975 52.3206 80.002 51.9876C80.0751 51.9064 80.2701 51.7318 80.5828 51.4515C80.8955 51.1713 81.1148 50.9682 81.2367 50.8302C81.3585 50.6921 81.5737 50.4647 81.8824 50.1438C82.1911 49.823 82.4185 49.5752 82.5687 49.3965C82.719 49.2179 82.7921 49.092 82.7921 49.0189C82.7921 48.9701 82.7556 48.9498 82.6825 48.9498C82.6094 48.9498 82.5241 48.9701 82.4185 49.0148C82.317 49.0595 82.1951 49.1244 82.0611 49.2097C81.7403 49.4169 81.4316 49.7255 81.1392 50.1398C81.1229 50.1519 81.1189 50.1763 81.1189 50.2169C81.0986 50.2657 81.058 50.3063 80.993 50.3388C80.928 50.3712 80.8752 50.3875 80.8346 50.3875C80.794 50.3875 80.7453 50.3753 80.6843 50.3469C80.6234 50.3225 80.5787 50.2941 80.5503 50.2657C80.5219 50.2372 80.5056 50.1844 80.5056 50.1073C80.5056 50.0301 80.5503 49.9204 80.6356 49.7783C80.7209 49.6362 80.8427 49.4859 81.0011 49.3234C81.1595 49.1651 81.3301 49.0107 81.525 48.8686C81.7159 48.7264 81.9311 48.6087 82.1707 48.5112C82.4104 48.4178 82.6094 48.3691 82.7759 48.3691C82.9424 48.3691 83.0642 48.4056 83.1454 48.4787C83.2916 48.6127 83.3648 48.763 83.3648 48.9254C83.3648 49.0879 83.2876 49.291 83.1333 49.5306C82.9789 49.7702 82.7677 50.0301 82.5038 50.3144C82.2398 50.5987 81.988 50.8586 81.7524 51.0941C81.5169 51.3256 81.2529 51.5774 80.9646 51.8495C80.6762 52.1257 80.4935 52.2963 80.4244 52.3694Z" fill="#1B3764"/>
<path d="M86.4511 48.9825C86.4552 49.0272 86.4389 49.1328 86.4105 49.2952C86.3821 49.4577 86.2846 49.6648 86.1222 49.9125C86.1262 49.9207 86.1262 49.945 86.1303 49.9816C86.1343 50.0181 86.1262 50.0709 86.114 50.14C86.1019 50.209 86.045 50.343 85.9516 50.5298C85.8541 50.7207 85.7363 50.9278 85.5901 51.1512C85.4439 51.3746 85.2734 51.602 85.0744 51.8294C84.8754 52.0569 84.6764 52.264 84.4652 52.4508C84.2581 52.6376 84.0347 52.7879 83.7991 52.9057C83.5636 53.0234 83.3483 53.0844 83.1575 53.0844C82.9666 53.0844 82.8123 53.0275 82.6985 52.9097C82.5848 52.792 82.5198 52.6295 82.5158 52.4183C82.5077 52.2071 82.5605 51.9513 82.6742 51.6548C82.7879 51.3583 82.9381 51.0619 83.125 50.7654C83.3118 50.4689 83.5311 50.1765 83.7829 49.8882C84.0306 49.5998 84.2865 49.344 84.5423 49.1247C84.7982 48.9053 85.0541 48.7267 85.3099 48.5886C85.5658 48.4505 85.7729 48.3855 85.9353 48.3855C86.0978 48.3855 86.2237 48.4424 86.313 48.5561C86.3983 48.6657 86.4471 48.8079 86.4511 48.9825ZM83.1981 52.134C83.2021 52.333 83.2752 52.4305 83.4214 52.4305C83.5676 52.4305 83.7423 52.3493 83.9535 52.1828C84.3149 51.9066 84.7373 51.4436 85.2206 50.7979C85.0865 50.8751 84.981 50.9116 84.8997 50.9116C84.8185 50.9116 84.7576 50.8832 84.717 50.8223C84.6764 50.7654 84.652 50.6801 84.6479 50.5745C84.6439 50.4689 84.6804 50.3999 84.7576 50.3715C85.0662 50.2496 85.3221 50.0628 85.5211 49.8069C85.7201 49.5511 85.8135 49.3074 85.8094 49.08C85.8054 48.9988 85.7485 48.9622 85.6429 48.9622C85.5373 48.9622 85.3546 49.0719 85.1028 49.2912C84.851 49.5105 84.5992 49.7745 84.3433 50.0831C84.0915 50.3918 83.856 50.7248 83.6367 51.0822C83.4174 51.4396 83.2793 51.7442 83.2143 51.996C83.194 52.0406 83.194 52.0853 83.1981 52.134Z" fill="#1B3764"/>
<path d="M86.5488 52.3694C87.1905 52.2435 87.6332 52.1786 87.8809 52.1786C87.9743 52.1786 88.0231 52.207 88.0393 52.2638C88.0434 52.2882 88.0556 52.3045 88.0759 52.3126C88.0962 52.3248 88.1165 52.3735 88.1368 52.4588C88.1571 52.5441 88.1693 52.6172 88.1733 52.67V52.7025C88.1733 52.7877 88.1409 52.8405 88.0759 52.8527C87.8363 52.9015 87.4504 52.9461 86.9103 52.9867C86.3742 53.0274 86.0534 53.0558 85.9518 53.068C85.8991 53.068 85.8178 53.0395 85.7041 52.9827C85.6797 52.9583 85.6554 52.9218 85.631 52.8649C85.6066 52.8081 85.5904 52.7593 85.5904 52.7146C85.5904 52.674 85.6148 52.605 85.6594 52.5116C85.6676 52.4953 85.8219 52.3207 86.1265 51.9877C86.1996 51.9065 86.3945 51.7318 86.7072 51.4516C87.02 51.1714 87.2393 50.9683 87.3611 50.8302C87.4829 50.6921 87.6982 50.4647 88.0068 50.1439C88.3155 49.823 88.5429 49.5753 88.6932 49.3966C88.8435 49.2179 88.9166 49.092 88.9166 49.0189C88.9166 48.9702 88.88 48.9499 88.8069 48.9499C88.7338 48.9499 88.6485 48.9702 88.5429 49.0149C88.4414 49.0595 88.3196 49.1245 88.1855 49.2098C87.8647 49.4169 87.556 49.7256 87.2636 50.1398C87.2474 50.152 87.2433 50.1764 87.2433 50.217C87.223 50.2657 87.1824 50.3063 87.1174 50.3388C87.0524 50.3713 86.9996 50.3876 86.959 50.3876C86.9184 50.3876 86.8697 50.3754 86.8088 50.3469C86.7479 50.3226 86.7032 50.2941 86.6747 50.2657C86.6463 50.2373 86.6301 50.1845 86.6301 50.1073C86.6301 50.0302 86.6747 49.9205 86.76 49.7784C86.8453 49.6362 86.9672 49.486 87.1255 49.3235C87.2839 49.1651 87.4545 49.0108 87.6494 48.8686C87.8403 48.7265 88.0556 48.6087 88.2952 48.5113C88.5348 48.4178 88.7338 48.3691 88.9003 48.3691C89.0668 48.3691 89.1887 48.4057 89.2699 48.4788C89.4161 48.6128 89.4892 48.7631 89.4892 48.9255C89.4892 49.088 89.412 49.291 89.2577 49.5306C89.1034 49.7702 88.8922 50.0302 88.6282 50.3144C88.3642 50.5987 88.1124 50.8587 87.8769 51.0942C87.6413 51.3257 87.3773 51.5775 87.089 51.8496C86.8006 52.1258 86.622 52.2963 86.5488 52.3694Z" fill="#1B3764"/>
<path d="M92.5756 48.9825C92.5796 49.0272 92.5634 49.1328 92.5349 49.2952C92.5065 49.4577 92.409 49.6648 92.2466 49.9125C92.2507 49.9207 92.2507 49.945 92.2547 49.9816C92.2588 50.0181 92.2507 50.0709 92.2385 50.14C92.2263 50.209 92.1694 50.343 92.076 50.5298C91.9786 50.7207 91.8608 50.9278 91.7146 51.1512C91.5684 51.3746 91.3978 51.602 91.1988 51.8294C90.9998 52.0569 90.8008 52.264 90.5896 52.4508C90.3825 52.6376 90.1591 52.7879 89.9236 52.9057C89.688 53.0234 89.4728 53.0844 89.2819 53.0844C89.091 53.0844 88.9367 53.0275 88.823 52.9097C88.7093 52.792 88.6443 52.6295 88.6402 52.4183C88.6321 52.2071 88.6849 51.9513 88.7986 51.6548C88.9123 51.3583 89.0626 51.0619 89.2494 50.7654C89.4362 50.4689 89.6555 50.1765 89.9073 49.8882C90.1551 49.5998 90.4109 49.344 90.6668 49.1247C90.9226 48.9053 91.1785 48.7267 91.4343 48.5886C91.6902 48.4505 91.8973 48.3855 92.0598 48.3855C92.2222 48.3855 92.3481 48.4424 92.4375 48.5561C92.5268 48.6657 92.5715 48.8079 92.5756 48.9825ZM89.3225 52.134C89.3266 52.333 89.3997 52.4305 89.5459 52.4305C89.6921 52.4305 89.8667 52.3493 90.0779 52.1828C90.4393 51.9066 90.8617 51.4436 91.345 50.7979C91.211 50.8751 91.1054 50.9116 91.0242 50.9116C90.9429 50.9116 90.882 50.8832 90.8414 50.8223C90.8008 50.7654 90.7764 50.6801 90.7724 50.5745C90.7683 50.4689 90.8049 50.3999 90.882 50.3715C91.1907 50.2496 91.4465 50.0628 91.6455 49.8069C91.8445 49.5511 91.9379 49.3074 91.9339 49.08C91.9298 48.9988 91.873 48.9622 91.7674 48.9622C91.6618 48.9622 91.479 49.0719 91.2272 49.2912C90.9754 49.5105 90.7236 49.7745 90.4678 50.0831C90.216 50.3918 89.9804 50.7248 89.7611 51.0822C89.5418 51.4396 89.4037 51.7442 89.3387 51.996C89.3225 52.0406 89.3184 52.0853 89.3225 52.134Z" fill="#1B3764"/>
<path d="M20.3141 76.7493C20.2979 76.6234 20.2694 76.5016 20.2369 76.3798C20.2085 76.2782 20.172 76.1645 20.1232 76.0467C20.0745 75.929 20.0176 75.8274 19.9405 75.734C19.8795 75.6609 19.8227 75.6122 19.7658 75.5878C19.709 75.5634 19.6521 75.5716 19.5993 75.6162C19.5587 75.6487 19.5384 75.6853 19.5343 75.734C19.5303 75.7787 19.5343 75.8356 19.5547 75.9005C19.5709 75.9655 19.5993 76.0386 19.6359 76.1239C19.6724 76.2092 19.713 76.3067 19.7537 76.4163C19.8227 76.5869 19.8795 76.7493 19.9202 76.8996C19.9608 77.0499 19.977 77.1961 19.973 77.3301C19.9689 77.4641 19.9323 77.5941 19.8714 77.7159C19.8064 77.8377 19.7049 77.9555 19.5668 78.0692C19.3881 78.2154 19.2094 78.3048 19.0348 78.3373C18.8602 78.3698 18.6896 78.3616 18.5312 78.317C18.3688 78.2682 18.2185 78.1911 18.0764 78.0814C17.9342 77.9718 17.8043 77.8499 17.6946 77.7119C17.6053 77.6022 17.524 77.4844 17.4469 77.3545C17.3697 77.2245 17.3007 77.0905 17.2397 76.9524C17.1788 76.8143 17.126 76.6762 17.0814 76.5341C17.0367 76.3919 17.0042 76.2579 16.9839 76.1239L17.9911 75.8924C18.0073 76.0427 18.0398 76.1889 18.0764 76.331C18.1088 76.4529 18.1535 76.5869 18.2104 76.729C18.2672 76.8712 18.3444 77.0011 18.4419 77.1148C18.515 77.2042 18.58 77.257 18.6287 77.2732C18.6815 77.2895 18.7262 77.2814 18.7668 77.2489C18.8074 77.2164 18.8317 77.1676 18.8317 77.1108C18.8317 77.0539 18.8196 76.9808 18.7911 76.9037C18.7627 76.8224 18.7262 76.7331 18.6855 76.6356C18.6449 76.5381 18.6003 76.4326 18.5596 76.3148C18.4987 76.1483 18.4541 75.9939 18.4256 75.8559C18.4013 75.7178 18.3931 75.5919 18.4094 75.4782C18.4256 75.3645 18.4622 75.2548 18.5231 75.1573C18.584 75.0599 18.6693 74.9664 18.779 74.8771C18.9455 74.7431 19.116 74.6537 19.2907 74.6091C19.4653 74.5644 19.6359 74.5644 19.8064 74.5969C19.977 74.6334 20.1354 74.6984 20.2857 74.7959C20.4359 74.8933 20.574 75.0152 20.6959 75.1654C20.7852 75.2751 20.8624 75.3888 20.9233 75.5107C20.9883 75.6325 21.0411 75.7543 21.0898 75.8762C21.1385 75.998 21.1751 76.1198 21.2076 76.2336C21.2401 76.3473 21.2644 76.4529 21.2847 76.5463L20.3141 76.7493Z" fill="#1B3764"/>
<path d="M20.7528 81.0586L24.4039 79.1742L25.0374 79.7508L23.5104 83.5644L22.6819 82.813L23.0149 82.0982L22.2555 81.4078L21.5813 81.814L20.7528 81.0586ZM23.9774 80.2748L22.8443 80.9895L23.3642 81.4606L23.9774 80.2748Z" fill="#1B3764"/>
<path d="M28.0914 84.5875L27.0598 86.1755L26.1745 85.5988L28.2701 82.3701L28.9605 82.8209L29.192 85.3023L30.256 83.6616L31.1414 84.2383L29.0458 87.467L28.3432 87.008L28.0914 84.5875Z" fill="#1B3764"/>
<path d="M36.1691 90.8291L37.3916 87.178L39.8933 88.0187L39.6009 88.8919L38.0982 88.3883L37.8951 88.9934L39.1176 89.4036L38.8455 90.2158L37.623 89.8057L37.1682 91.1621L36.1691 90.8291Z" fill="#1B3764"/>
<path d="M42.0092 92.5187L42.6712 88.7255L44.4135 89.0301C44.6003 89.0626 44.7627 89.1317 44.9049 89.2332C45.047 89.3388 45.1648 89.4606 45.2582 89.6028C45.3476 89.7449 45.4125 89.8992 45.4491 90.0698C45.4856 90.2404 45.4897 90.4028 45.4613 90.5653C45.4247 90.7846 45.3394 90.9836 45.2095 91.1582C45.0795 91.3329 44.9211 91.4628 44.7262 91.5562L45.3394 93.0995L44.1657 92.8964L43.6459 91.605L43.256 91.5359L43.053 92.7015L42.0092 92.5187ZM43.4103 90.6262L44.0683 90.7399C44.1332 90.7521 44.1982 90.7277 44.2673 90.6628C44.3363 90.6018 44.381 90.5084 44.4013 90.3785C44.4257 90.2444 44.4094 90.1388 44.3566 90.0576C44.3038 89.9764 44.247 89.9317 44.182 89.9195L43.5525 89.8099L43.4103 90.6262Z" fill="#1B3764"/>
<path d="M48.3529 93.3843L49.8556 89.5586L50.7125 89.5748L52.0771 93.4492L50.9602 93.4289L50.7409 92.6695L49.7175 92.6532L49.4779 93.4046L48.3529 93.3843ZM50.2617 90.6673L49.8799 91.9506L50.5785 91.9628L50.2617 90.6673Z" fill="#1B3764"/>
<path d="M56.2034 91.1957L56.4755 93.068L55.4277 93.2223L54.8713 89.4129L55.6876 89.2951L57.4989 91.0089L57.2146 89.0717L58.2625 88.9174L58.8188 92.7268L57.9863 92.8487L56.2034 91.1957Z" fill="#1B3764"/>
<path d="M61.67 90.0618C61.601 89.8384 61.5685 89.6029 61.5807 89.3633C61.5928 89.1237 61.6456 88.8881 61.7431 88.6688C61.8406 88.4495 61.9827 88.2505 62.1695 88.0718C62.3564 87.8972 62.5878 87.7631 62.864 87.6738C63.193 87.5682 63.5016 87.552 63.79 87.621C64.0824 87.69 64.322 87.8281 64.5169 88.0312L63.9199 88.8231C63.859 88.7419 63.7981 88.681 63.729 88.6404C63.66 88.5998 63.591 88.5673 63.5219 88.551C63.4529 88.5348 63.3838 88.5307 63.3107 88.5388C63.2417 88.547 63.1767 88.5591 63.1239 88.5754C62.998 88.616 62.8965 88.6769 62.8234 88.7663C62.7503 88.8516 62.6975 88.949 62.665 89.0627C62.6325 89.1724 62.6244 89.2902 62.6325 89.4161C62.6406 89.542 62.665 89.6597 62.7016 89.7735C62.7422 89.8994 62.799 90.0171 62.8681 90.1227C62.9371 90.2283 63.0183 90.3177 63.1117 90.3867C63.2051 90.4557 63.3026 90.5045 63.4123 90.5288C63.5219 90.5532 63.6316 90.5451 63.7494 90.5085C63.8062 90.4882 63.8671 90.4639 63.924 90.4273C63.9808 90.3908 64.0336 90.3461 64.0783 90.2933C64.123 90.2405 64.1595 90.1755 64.188 90.1065C64.2164 90.0334 64.2326 89.9522 64.2326 89.8628L65.2114 90.0943C65.2033 90.2446 65.1627 90.3908 65.0896 90.5288C65.0165 90.671 64.9271 90.7969 64.8175 90.9106C64.7078 91.0243 64.5819 91.1258 64.4398 91.2111C64.3017 91.2964 64.1595 91.3655 64.0133 91.4101C63.7575 91.4914 63.5057 91.5117 63.2579 91.4711C63.0102 91.4304 62.7828 91.3452 62.5716 91.2152C62.3604 91.0852 62.1777 90.9187 62.0193 90.7197C61.8609 90.5207 61.7472 90.2974 61.67 90.0618Z" fill="#1B3764"/>
<path d="M68.6184 89.5913L66.9817 86.1068L67.9401 85.656L69.5768 89.1405L68.6184 89.5913Z" fill="#1B3764"/>
<path d="M73.3743 83.9825C73.2484 83.9866 73.1225 83.9988 72.9966 84.015C72.891 84.0313 72.7773 84.0556 72.6554 84.0881C72.5336 84.1206 72.424 84.1694 72.3265 84.2303C72.2493 84.279 72.1925 84.3318 72.16 84.3887C72.1275 84.4415 72.1315 84.4983 72.1681 84.5592C72.1965 84.6039 72.2331 84.6283 72.2778 84.6364C72.3224 84.6445 72.3793 84.6445 72.4443 84.6364C72.5092 84.6242 72.5864 84.608 72.6758 84.5836C72.7651 84.5592 72.8666 84.5308 72.9803 84.4983C73.159 84.4496 73.3256 84.413 73.4799 84.3927C73.6342 84.3724 73.7804 84.3684 73.9144 84.3887C74.0485 84.409 74.1703 84.4577 74.284 84.5349C74.3977 84.612 74.5033 84.7258 74.6008 84.8801C74.7267 85.075 74.7957 85.2618 74.8079 85.4405C74.8201 85.6192 74.7957 85.7857 74.7267 85.9401C74.6576 86.0944 74.5642 86.2365 74.4383 86.3665C74.3124 86.4965 74.1744 86.6061 74.0241 86.7036C73.9063 86.7807 73.7764 86.8498 73.6423 86.9107C73.5042 86.9716 73.3662 87.0244 73.22 87.0691C73.0738 87.1138 72.9316 87.1503 72.7854 87.1787C72.6433 87.2072 72.5011 87.2234 72.3671 87.2275L72.2534 86.2C72.4037 86.2 72.5499 86.1878 72.7001 86.1675C72.826 86.1512 72.9641 86.1228 73.1103 86.0781C73.2565 86.0375 73.3946 85.9726 73.5205 85.8913C73.618 85.8304 73.6789 85.7736 73.6992 85.7208C73.7195 85.672 73.7195 85.6233 73.6911 85.5827C73.6626 85.538 73.618 85.5096 73.5611 85.5014C73.5043 85.4933 73.4311 85.5015 73.3499 85.5177C73.2687 85.538 73.1753 85.5624 73.0738 85.5908C72.9722 85.6192 72.8626 85.6517 72.7407 85.6801C72.5661 85.7248 72.4077 85.7492 72.2696 85.7573C72.1315 85.7654 72.0016 85.7573 71.8919 85.7289C71.7782 85.7004 71.6767 85.6517 71.5873 85.5786C71.498 85.5096 71.4127 85.4121 71.3355 85.2943C71.2218 85.1156 71.1528 84.9369 71.1325 84.7542C71.1122 84.5714 71.1284 84.4049 71.1812 84.2425C71.234 84.08 71.3193 83.9257 71.433 83.7876C71.5467 83.6495 71.6848 83.5277 71.8473 83.4221C71.965 83.3449 72.0909 83.284 72.2168 83.2353C72.3427 83.1865 72.4727 83.1459 72.5986 83.1134C72.7245 83.0809 72.8504 83.0566 72.9682 83.0403C73.0859 83.0241 73.1915 83.0078 73.289 82.9997L73.3743 83.9825Z" fill="#1B3764"/>
<path d="M76.5986 82.4188C76.4442 82.2401 76.3224 82.0411 76.2371 81.8137C76.1478 81.5862 76.1072 81.3547 76.1072 81.1111C76.1072 80.8674 76.16 80.6318 76.2574 80.3963C76.3549 80.1607 76.5173 79.9455 76.7367 79.7546C76.9966 79.5272 77.2727 79.3891 77.5652 79.3363C77.8576 79.2835 78.1378 79.3119 78.3936 79.4216L78.1622 80.3882C78.0769 80.3394 77.9916 80.3069 77.9104 80.2948C77.8291 80.2826 77.756 80.2826 77.687 80.2948C77.6179 80.3069 77.553 80.3313 77.488 80.3679C77.423 80.4044 77.3743 80.4369 77.3296 80.4775C77.2281 80.5669 77.1631 80.6643 77.1306 80.7699C77.0981 80.8755 77.09 80.9892 77.1062 81.1029C77.1225 81.2167 77.159 81.3304 77.2159 81.44C77.2727 81.5497 77.3418 81.6512 77.4189 81.7406C77.5083 81.8421 77.6058 81.9274 77.7114 81.9964C77.8169 82.0655 77.9266 82.1142 78.0403 82.1426C78.154 82.1711 78.2637 82.1711 78.3733 82.1507C78.483 82.1304 78.5845 82.0776 78.6739 81.9964C78.7185 81.9558 78.7632 81.9071 78.7998 81.8543C78.8363 81.7974 78.8688 81.7365 78.8891 81.6715C78.9094 81.6025 78.9175 81.5334 78.9135 81.4522C78.9094 81.3751 78.8932 81.2938 78.8566 81.2126L79.8435 81.0339C79.8963 81.1761 79.9166 81.3263 79.9085 81.4806C79.9004 81.635 79.8679 81.7893 79.811 81.9396C79.7542 82.0898 79.6811 82.232 79.5876 82.366C79.4942 82.5 79.3886 82.6178 79.2749 82.7193C79.0719 82.894 78.8526 83.0158 78.6089 83.0767C78.3652 83.1376 78.1215 83.1498 77.8779 83.1173C77.6342 83.0808 77.3986 83.0036 77.1712 82.8818C76.956 82.7559 76.761 82.6056 76.5986 82.4188Z" fill="#1B3764"/>
<path d="M83.8766 78.0007C83.702 78.2119 83.4989 78.3662 83.2674 78.4678C83.036 78.5693 82.8004 78.6221 82.5567 78.6302C82.3131 78.6383 82.0734 78.5977 81.8338 78.5165C81.5983 78.4353 81.383 78.3134 81.1921 78.151C80.9972 77.9885 80.8388 77.7977 80.717 77.5743C80.5951 77.355 80.518 77.1194 80.4896 76.8798C80.4611 76.6402 80.4733 76.3965 80.5383 76.1529C80.6033 75.9132 80.721 75.6858 80.8916 75.4787C81.0662 75.2675 81.2734 75.1132 81.5008 75.0116C81.7323 74.9101 81.9678 74.8573 82.2156 74.8492C82.4593 74.8451 82.6989 74.8817 82.9385 74.967C83.174 75.0523 83.3852 75.17 83.5761 75.3284C83.771 75.4909 83.9294 75.6818 84.0472 75.9011C84.165 76.1204 84.2421 76.3519 84.2746 76.5915C84.3071 76.8311 84.2909 77.0748 84.23 77.3184C84.169 77.5662 84.0513 77.7895 83.8766 78.0007ZM81.8907 77.3347C81.9922 77.42 82.0978 77.489 82.2115 77.5418C82.3252 77.5946 82.439 77.6271 82.5527 77.6393C82.6664 77.6515 82.776 77.6352 82.8857 77.5987C82.9913 77.5621 83.0887 77.4931 83.17 77.3915C83.2553 77.29 83.3081 77.1803 83.3243 77.0666C83.3405 76.9529 83.3324 76.8433 83.2999 76.7336C83.2674 76.624 83.2106 76.5184 83.1375 76.4168C83.0644 76.3153 82.975 76.2219 82.8816 76.1407C82.7801 76.0554 82.6745 75.9904 82.5608 75.9376C82.4471 75.8848 82.3334 75.8523 82.2237 75.8442C82.1141 75.832 82.0044 75.8483 81.8988 75.8889C81.7932 75.9295 81.6998 75.9985 81.6145 76.096C81.5292 76.1975 81.4764 76.3072 81.4602 76.4168C81.4439 76.5265 81.4521 76.6361 81.4846 76.7458C81.517 76.8555 81.5698 76.961 81.6429 77.0626C81.7161 77.1641 81.7932 77.2535 81.8907 77.3347Z" fill="#1B3764"/>
<path d="M14.8928 34.147C14.9456 34.0292 14.9618 33.9236 14.9456 33.818C14.9293 33.7124 14.8928 33.619 14.8318 33.5296C14.7709 33.4444 14.6897 33.3631 14.5922 33.29C14.4948 33.2169 14.3851 33.156 14.2673 33.1032L12.4073 32.2828L12.8459 31.2878L14.7059 32.1082C14.9577 32.2179 15.1771 32.3559 15.3679 32.5184C15.5588 32.6808 15.705 32.8636 15.8025 33.0707C15.904 33.2778 15.9527 33.5053 15.9527 33.7489C15.9527 33.9967 15.8918 34.2566 15.77 34.5368C15.6441 34.8252 15.4857 35.0526 15.2989 35.2151C15.1121 35.3775 14.9049 35.4872 14.6856 35.5481C14.4663 35.609 14.2308 35.6212 13.9912 35.5887C13.7475 35.5562 13.5079 35.4831 13.2642 35.3775L11.4042 34.5571L11.8428 33.5621L13.7028 34.3825C13.8206 34.4353 13.9424 34.4759 14.0643 34.5003C14.1861 34.5246 14.2998 34.5287 14.4054 34.5165C14.511 34.5043 14.6044 34.4678 14.6897 34.4069C14.775 34.35 14.844 34.2607 14.8928 34.147Z" fill="#1B3764"/>
<path d="M18.0526 30.053L14.7752 27.8436L15.7905 26.3369C15.9002 26.1785 16.0301 26.0526 16.1885 25.9592C16.3469 25.8699 16.5093 25.809 16.684 25.7846C16.8545 25.7602 17.0292 25.7643 17.2038 25.8008C17.3784 25.8374 17.5368 25.9024 17.6749 25.9958C17.8658 26.1257 18.0161 26.2841 18.1257 26.4791C18.2354 26.674 18.2922 26.8811 18.2963 27.0964L19.998 27.1695L19.3116 28.1848L17.8861 28.1279L17.6587 28.465L18.6659 29.1432L18.0526 30.053ZM16.8708 27.9411L17.2525 27.3725C17.2891 27.3157 17.2932 27.2466 17.2647 27.1573C17.2363 27.0679 17.1632 26.9867 17.0535 26.9095C16.9398 26.8324 16.8342 26.7999 16.7368 26.8161C16.6393 26.8324 16.5703 26.8649 16.5337 26.9217L16.1682 27.4659L16.8708 27.9411Z" fill="#1B3764"/>
<path d="M23.482 21.7564C23.612 21.8783 23.6932 22.0123 23.7379 22.1544C23.7785 22.2966 23.7826 22.4428 23.7542 22.5931C23.7217 22.7433 23.6607 22.8936 23.5714 23.0439C23.482 23.1941 23.3683 23.3403 23.2343 23.4784L21.886 24.8795L19.035 22.1382L20.627 20.4853C20.7204 20.3878 20.8301 20.3188 20.9519 20.2781C21.0697 20.2375 21.1915 20.2254 21.3133 20.2335C21.4352 20.2416 21.553 20.2741 21.6707 20.3269C21.7885 20.3797 21.89 20.4487 21.9835 20.5381C22.1175 20.668 22.2109 20.8224 22.2677 21.0092C22.3246 21.196 22.3165 21.3869 22.2474 21.5818C22.4505 21.464 22.6617 21.4153 22.8688 21.4356C23.0759 21.4559 23.279 21.5656 23.482 21.7564ZM20.4483 22.0001L20.8869 22.4225L21.3986 21.8905C21.4514 21.8377 21.4839 21.7727 21.4961 21.6996C21.5083 21.6265 21.4717 21.5493 21.3824 21.464C21.3052 21.3909 21.2321 21.3544 21.1631 21.3584C21.094 21.3625 21.0331 21.3909 20.9844 21.4437L20.4483 22.0001ZM22.5561 22.3981C22.487 22.3291 22.4099 22.2925 22.3287 22.2844C22.2474 22.2763 22.1743 22.3006 22.1175 22.3616L21.4961 23.0073L21.9753 23.4662L22.5683 22.8489C22.6292 22.7839 22.6617 22.7108 22.6657 22.6296C22.6698 22.5484 22.6332 22.4712 22.5561 22.3981Z" fill="#1B3764"/>
<path d="M26.1871 20.7083L25.0175 16.6511L25.7242 16.1272L29.2615 18.4258L28.3396 19.1081L27.6857 18.6289L26.841 19.2543L27.1131 20.0138L26.1871 20.7083ZM26.045 17.2968L26.5405 18.5802L27.1172 18.1537L26.045 17.2968Z" fill="#1B3764"/>
<path d="M31.865 14.6899L32.7301 16.4322L31.7554 16.9155L29.9928 13.3741L30.7523 12.9964L33.0712 14.0889L32.1737 12.2897L33.1443 11.8064L34.9069 15.3479L34.1353 15.7337L31.865 14.6899Z" fill="#1B3764"/>
<path d="M44.9014 11.5015C44.9339 11.6761 44.9217 11.8345 44.873 11.9726C44.8242 12.1107 44.739 12.2325 44.6252 12.3381C44.5115 12.4396 44.3734 12.529 44.211 12.598C44.0485 12.667 43.8698 12.7198 43.683 12.7523L41.7702 13.0975L41.0676 9.20686L43.3256 8.80074C43.4597 8.77637 43.5896 8.78449 43.7074 8.82104C43.8292 8.8576 43.9348 8.91851 44.0282 8.99974C44.1216 9.08096 44.1988 9.17437 44.2638 9.28403C44.3288 9.39368 44.3694 9.51146 44.3937 9.63735C44.4262 9.82011 44.41 10.0029 44.3491 10.1856C44.2841 10.3684 44.1704 10.5186 43.9957 10.6364C44.2313 10.6608 44.4262 10.7461 44.5887 10.8842C44.7471 11.0222 44.8527 11.2294 44.9014 11.5015ZM42.3022 9.92164L42.4119 10.5186L43.1388 10.3887C43.2119 10.3765 43.2769 10.344 43.3297 10.2912C43.3825 10.2384 43.3987 10.1531 43.3784 10.0354C43.3581 9.92976 43.3216 9.85666 43.2607 9.82011C43.1997 9.78356 43.1348 9.77138 43.0657 9.78356L42.3022 9.92164ZM43.7764 11.4771C43.7602 11.3837 43.7196 11.3065 43.6587 11.2537C43.5937 11.2009 43.5246 11.1766 43.4434 11.1928L42.5621 11.3512L42.6799 12.0051L43.5246 11.8548C43.614 11.8385 43.683 11.7979 43.7318 11.733C43.7764 11.6639 43.7927 11.5827 43.7764 11.4771Z" fill="#1B3764"/>
<path d="M49.8397 12.2568C49.5595 12.2568 49.2996 12.2 49.0681 12.0863C48.8366 11.9726 48.6376 11.8223 48.4711 11.6355C48.3046 11.4487 48.1746 11.2334 48.0853 10.9938C47.9919 10.7542 47.9472 10.5024 47.9472 10.2465C47.9472 9.98661 47.9919 9.73482 48.0853 9.4952C48.1787 9.25559 48.3127 9.04034 48.4833 8.85759C48.6538 8.67077 48.8528 8.52457 49.0843 8.41491C49.3158 8.30526 49.5717 8.2484 49.8478 8.2484C50.1321 8.2484 50.388 8.30526 50.6195 8.41897C50.851 8.53269 51.05 8.68702 51.2165 8.87383C51.383 9.06065 51.5089 9.2759 51.6023 9.51957C51.6916 9.75918 51.7363 10.0069 51.7404 10.2587C51.7404 10.5186 51.6957 10.7704 51.6023 11.01C51.5089 11.2497 51.3789 11.4608 51.2124 11.6477C51.0459 11.8304 50.8469 11.9807 50.6114 12.0944C50.3758 12.2 50.1199 12.2568 49.8397 12.2568ZM49.0478 10.2547C49.0478 10.3887 49.064 10.5186 49.0965 10.6405C49.129 10.7623 49.1777 10.876 49.2468 10.9694C49.3158 11.0669 49.397 11.1441 49.4986 11.2009C49.6001 11.2618 49.7179 11.2903 49.8478 11.2903C49.9859 11.2903 50.1037 11.2578 50.2052 11.1969C50.3068 11.1359 50.388 11.0547 50.4489 10.9573C50.5098 10.8598 50.5586 10.7461 50.5911 10.6202C50.6235 10.4943 50.6357 10.3643 50.6357 10.2343C50.6357 10.1003 50.6195 9.97037 50.5829 9.84853C50.5504 9.72263 50.4976 9.61298 50.4327 9.51957C50.3677 9.42616 50.2824 9.349 50.1849 9.29214C50.0834 9.23528 49.9656 9.20685 49.8316 9.20685C49.6935 9.20685 49.5757 9.23934 49.4783 9.2962C49.3808 9.35712 49.2996 9.43428 49.2346 9.53582C49.1696 9.63328 49.1209 9.747 49.0925 9.86884C49.06 9.9988 49.0478 10.1247 49.0478 10.2547Z" fill="#1B3764"/>
<path d="M56.4719 12.8171C56.1957 12.7684 55.952 12.6668 55.7409 12.5125C55.5337 12.3582 55.3632 12.1754 55.2332 11.9642C55.1032 11.753 55.0139 11.5175 54.9652 11.2657C54.9164 11.0139 54.9164 10.758 54.9611 10.5062C55.0058 10.2504 55.0951 10.0108 55.2291 9.79146C55.3632 9.56809 55.5337 9.38534 55.7327 9.23101C55.9317 9.07668 56.1551 8.97109 56.4028 8.90205C56.6506 8.83301 56.9105 8.82488 57.1867 8.87362C57.4628 8.92235 57.7065 9.02388 57.9177 9.17821C58.1248 9.33254 58.2954 9.51529 58.4253 9.73054C58.5553 9.94579 58.6446 10.1813 58.6893 10.4331C58.734 10.6849 58.7381 10.9367 58.6934 11.1845C58.6487 11.4403 58.5594 11.6799 58.4253 11.8992C58.2913 12.1186 58.1248 12.3054 57.9299 12.4556C57.7349 12.6059 57.5116 12.7196 57.2598 12.7887C57.008 12.8577 56.744 12.8658 56.4719 12.8171ZM56.0454 10.7093C56.0211 10.8393 56.017 10.9692 56.0251 11.0992C56.0333 11.2251 56.0658 11.3429 56.1145 11.4525C56.1632 11.5581 56.2323 11.6515 56.3216 11.7246C56.411 11.8018 56.5206 11.8505 56.6506 11.8749C56.7846 11.8992 56.9064 11.8871 57.0161 11.8464C57.1257 11.8058 57.2191 11.7368 57.3004 11.6515C57.3816 11.5662 57.4466 11.4647 57.4994 11.3429C57.5522 11.2251 57.5887 11.0992 57.6131 10.9733C57.6375 10.8433 57.6415 10.7134 57.6293 10.5834C57.6171 10.4534 57.5887 10.3397 57.54 10.2341C57.4912 10.1285 57.4222 10.0392 57.3369 9.96609C57.2476 9.89299 57.1379 9.84426 57.008 9.81989C56.8739 9.79552 56.7521 9.80364 56.6425 9.84832C56.5369 9.88893 56.4394 9.95391 56.3582 10.0392C56.2769 10.1245 56.212 10.226 56.1592 10.3438C56.1023 10.4575 56.0658 10.5793 56.0454 10.7093Z" fill="#1B3764"/>
<path d="M61.3246 13.9339L62.673 10.2178L63.6923 10.5874L63.14 12.1063L64.9269 11.0341L65.9748 11.4159L64.0213 12.5896L64.7198 15.1685L63.6517 14.7827L63.209 12.947L62.742 13.2028L62.3399 14.3075L61.3246 13.9339Z" fill="#1B3764"/>
<path d="M70.633 15.2455C70.5681 15.1318 70.499 15.0262 70.4218 14.9206C70.3569 14.8313 70.2797 14.7419 70.1904 14.6445C70.101 14.5511 70.0035 14.4739 69.902 14.413C69.8167 14.3642 69.7436 14.3399 69.6786 14.3399C69.6137 14.3399 69.5649 14.3683 69.5284 14.4292C69.504 14.4739 69.4959 14.5186 69.5081 14.5632C69.5202 14.6079 69.5487 14.6607 69.5893 14.7135C69.6299 14.7704 69.6827 14.8313 69.7517 14.8963C69.8167 14.9653 69.8939 15.0425 69.9751 15.1318C70.1051 15.2699 70.2188 15.4039 70.3122 15.5339C70.4056 15.6638 70.4787 15.7938 70.5234 15.9238C70.568 16.0537 70.5843 16.1877 70.568 16.3299C70.5518 16.472 70.499 16.6223 70.4097 16.7847C70.2919 16.9919 70.1579 17.1421 69.9995 17.2437C69.8452 17.3411 69.6786 17.398 69.5081 17.4102C69.3375 17.4224 69.1629 17.4061 68.9842 17.3533C68.8055 17.3005 68.639 17.2315 68.4806 17.1421C68.3547 17.0731 68.2288 16.9878 68.1069 16.8944C67.9851 16.801 67.8714 16.6995 67.7577 16.5898C67.648 16.4801 67.5424 16.3664 67.449 16.2487C67.3556 16.1309 67.2744 16.0131 67.2053 15.8953L68.0826 15.2943C68.1557 15.4283 68.2369 15.5582 68.3303 15.6841C68.4075 15.7897 68.5009 15.8994 68.6065 16.0131C68.7161 16.1268 68.838 16.2202 68.972 16.2974C69.0735 16.3542 69.1547 16.3827 69.2116 16.3786C69.2685 16.3746 69.3091 16.3502 69.3334 16.3055C69.3619 16.2568 69.3659 16.204 69.3416 16.1471C69.3213 16.0903 69.2806 16.0293 69.2238 15.9644C69.1669 15.8994 69.1019 15.8263 69.0207 15.7491C68.9436 15.672 68.8623 15.5867 68.7811 15.4892C68.6593 15.3511 68.5577 15.2212 68.4846 15.0993C68.4075 14.9775 68.3547 14.8597 68.3303 14.7419C68.3019 14.6242 68.2978 14.5104 68.3181 14.3927C68.3384 14.2749 68.3872 14.1571 68.4562 14.0312C68.5618 13.8403 68.6918 13.6941 68.8461 13.5845C68.9964 13.4789 69.1629 13.4098 69.3375 13.3814C69.5121 13.353 69.6908 13.3571 69.8736 13.3936C70.0563 13.4302 70.231 13.4951 70.4015 13.5926C70.5274 13.6657 70.6452 13.7469 70.7508 13.8363C70.8564 13.9297 70.9539 14.0231 71.0473 14.1246C71.1407 14.2262 71.2178 14.3236 71.2909 14.4211C71.3641 14.5186 71.429 14.612 71.4818 14.6932L70.633 15.2455Z" fill="#1B3764"/>
<path d="M76.6684 19.1933L75.7831 18.4785L73.8946 20.8218L73.0498 20.1395L74.9383 17.7962L74.0489 17.0814L74.6418 16.3423L77.2613 18.4541L76.6684 19.1933Z" fill="#1B3764"/>
<path d="M77.9881 24.8381C77.8012 24.627 77.6713 24.3995 77.6022 24.1477C77.5332 23.8959 77.5129 23.6482 77.5413 23.4005C77.5698 23.1527 77.6429 22.9131 77.7647 22.6857C77.8825 22.4583 78.0368 22.2552 78.2317 22.0846C78.4267 21.91 78.6419 21.78 78.8856 21.6866C79.1293 21.5973 79.377 21.5526 79.6247 21.5567C79.8765 21.5607 80.1202 21.6135 80.3558 21.711C80.5913 21.8125 80.8025 21.9669 80.9893 22.1699C81.1761 22.3811 81.3061 22.6085 81.3751 22.8603C81.4442 23.1081 81.4645 23.3599 81.432 23.6076C81.3995 23.8553 81.3264 24.0949 81.2046 24.3224C81.0827 24.5498 80.9284 24.7488 80.7416 24.9153C80.5466 25.0899 80.3314 25.2199 80.0877 25.3093C79.8441 25.3986 79.6004 25.4433 79.3526 25.4392C79.1049 25.4392 78.8612 25.3864 78.6216 25.2849C78.3861 25.1996 78.1749 25.0453 77.9881 24.8381ZM78.9587 22.9172C78.8572 23.0065 78.7719 23.104 78.7028 23.2096C78.6297 23.3152 78.581 23.4248 78.5526 23.5426C78.5241 23.6563 78.5241 23.77 78.5445 23.8838C78.5688 23.9975 78.6216 24.1071 78.711 24.2046C78.8003 24.3061 78.9059 24.3752 79.0156 24.4077C79.1252 24.4401 79.243 24.4483 79.3567 24.432C79.4704 24.4158 79.5882 24.3752 79.7019 24.3142C79.8156 24.2533 79.9212 24.1802 80.0187 24.0949C80.1162 24.0056 80.2014 23.9081 80.2745 23.7985C80.3436 23.6888 80.3923 23.5792 80.4208 23.4695C80.4492 23.3599 80.4492 23.2461 80.4248 23.1324C80.4004 23.0187 80.3436 22.9131 80.2542 22.8116C80.1608 22.7101 80.0634 22.641 79.9496 22.6085C79.84 22.576 79.7263 22.5679 79.6085 22.5842C79.4907 22.6004 79.377 22.641 79.2633 22.6979C79.1618 22.7588 79.0562 22.8278 78.9587 22.9172Z" fill="#1B3764"/>
<path d="M81.1035 28.7459L84.4743 26.6746L85.4247 28.222C85.5262 28.3844 85.5871 28.559 85.6034 28.7418C85.6196 28.9246 85.6074 29.0951 85.5587 29.2616C85.51 29.4282 85.4328 29.5825 85.3272 29.7287C85.2216 29.8708 85.0957 29.9886 84.9536 30.0739C84.7586 30.1957 84.5474 30.2648 84.3281 30.281C84.1088 30.2973 83.8936 30.2648 83.6946 30.1795L82.9229 31.7024L82.2813 30.6587L82.9229 29.3835L82.7118 29.0383L81.6762 29.6759L81.1035 28.7459ZM83.5118 28.5387L83.8692 29.1236C83.9058 29.1804 83.9708 29.2129 84.0642 29.2251C84.1576 29.2332 84.2591 29.2048 84.3769 29.1357C84.4947 29.0626 84.5637 28.9814 84.5921 28.8839C84.6205 28.7905 84.6165 28.7134 84.5799 28.6565L84.2347 28.0961L83.5118 28.5387Z" fill="#1B3764"/>
<path d="M86.1553 36.6284L85.2781 36.9858L84.2181 34.3744L87.8854 32.888L88.9251 35.4547L88.0479 35.8121L87.4143 34.2526L86.8985 34.4638L87.4387 35.7959L86.6224 36.1248L86.0822 34.7927L85.5055 35.0283L86.1553 36.6284Z" fill="#1B3764"/>
<path d="M65.9547 50.3511C65.9222 50.2333 65.7841 50.0993 65.6338 50.1521C64.184 50.6273 62.726 50.4323 61.3046 50.2374C60.9593 50.1886 60.5979 50.144 60.2486 50.1034C59.4892 50.0221 58.486 49.9572 57.4829 50.1602C56.4473 50.3714 55.3995 50.8791 54.1811 51.7603C53.9009 51.9634 53.6166 52.1787 53.3323 52.402C53.7385 50.6273 54.1405 48.8525 54.6116 47.0899L54.6807 46.9884C55.4685 46.5823 56.2889 46.4239 57.2027 46.2695C58.1408 46.1152 59.0628 45.9406 59.9887 45.5385C61.5767 44.8481 63.1687 43.6379 65.0084 41.721C65.8978 40.7909 66.7385 39.8203 67.5183 38.8984C67.6035 38.7969 67.6198 38.6588 67.5589 38.5613C67.4939 38.4598 67.3152 38.3907 67.173 38.5004C65.7597 39.5888 64.1596 40.0234 62.6082 40.4498C62.2305 40.5554 61.8366 40.661 61.4548 40.7747C60.6304 41.0224 59.5542 41.3879 58.5429 42.0174C57.5073 42.6672 56.5285 43.6094 55.4686 44.9821C55.3264 45.1649 55.1843 45.3558 55.0421 45.5466C55.7041 43.3251 56.5245 41.1361 57.6373 39.1055C57.686 39.0162 57.7347 38.9309 57.7835 38.8456C57.8241 38.7806 57.8728 38.7278 57.9337 38.6831L57.9378 38.671C58.6323 38.0293 59.4486 37.6069 60.3664 37.1602C61.3086 36.7013 62.2265 36.2342 63.0671 35.5479C64.5129 34.3742 65.7882 32.7091 67.0837 30.3089C67.7132 29.1433 68.2655 27.9533 68.7813 26.8365C68.8382 26.7106 68.8097 26.5766 68.7123 26.5075C68.6148 26.4385 68.4077 26.4344 68.294 26.5806C67.169 28.0671 65.6257 29.0093 64.119 29.923C63.7535 30.1464 63.3758 30.3779 63.0103 30.6094C62.2224 31.117 61.203 31.8156 60.3502 32.7415C59.4729 33.6959 58.7582 34.9021 58.1043 36.5388C57.8728 37.1196 57.6494 37.7288 57.4423 38.3542C57.4301 38.3786 57.4139 38.3989 57.4017 38.4232C57.3976 38.4273 57.3976 38.4273 57.3936 38.4313C57.353 38.472 57.3245 38.5248 57.3124 38.5775C56.8697 39.3573 56.4676 40.1655 56.1062 40.9859C56.1102 40.9168 56.1183 40.8478 56.1265 40.7828C56.2686 39.0527 56.1833 37.7003 55.8544 36.5185C55.5335 35.3732 54.9853 34.3782 54.5426 33.6391C54.3395 33.2979 54.1202 32.9527 53.905 32.6156C53.048 31.2592 52.1586 29.8621 51.85 28.1036C51.8175 27.9249 51.6388 27.8599 51.521 27.8884C51.4073 27.9168 51.3261 28.0305 51.322 28.1645C51.2814 29.3707 51.2449 30.6541 51.2773 31.9415C51.3464 34.5935 51.7078 36.5632 52.4145 38.143C52.8287 39.0649 53.3892 39.8122 53.9821 40.5635C54.5548 41.2905 55.0584 41.9646 55.363 42.7931L55.3548 42.8622C55.0502 43.6825 54.7781 44.511 54.5263 45.3436C54.2867 46.1396 54.0674 46.9396 53.8603 47.7438C53.8359 47.5976 53.8116 47.4514 53.7831 47.3052C53.5151 45.904 53.1049 44.8481 52.4876 43.9749C51.8906 43.1302 51.0987 42.4479 50.4773 41.9524C50.1889 41.721 49.8884 41.4935 49.5879 41.2661C48.3979 40.3604 47.1674 39.4263 46.4363 38.0983C46.3632 37.9684 46.1764 37.9481 46.0708 37.9927C46.014 38.0171 45.9693 38.0618 45.9409 38.1146C45.9165 38.1674 45.9084 38.2283 45.9246 38.2851C46.1724 39.2477 46.4404 40.2711 46.7816 41.2864C47.4841 43.3739 48.3208 44.8644 49.4132 45.9771C50.0509 46.6269 50.7981 47.1062 51.5698 47.5854C52.3211 48.0484 52.9871 48.4829 53.4948 49.0799L53.507 49.1774C53.1902 50.4892 52.8978 51.805 52.5972 53.1168C52.4429 53.7828 52.2886 54.4489 52.1261 55.1109C52.1221 55.0987 52.1221 55.0824 52.118 55.0703C51.9068 53.8884 51.5779 52.999 51.0743 52.268C50.5869 51.5573 49.9371 50.9887 49.4254 50.5745C49.1899 50.3836 48.9462 50.1927 48.7066 50.0099L48.6985 50.0018C47.7238 49.2505 46.7166 48.4707 46.1277 47.362C46.0627 47.2402 45.8962 47.228 45.8069 47.2686C45.7053 47.3133 45.6485 47.427 45.6728 47.5367C45.8678 48.3448 46.083 49.2099 46.3551 50.0587C46.9196 51.8172 47.5979 53.0681 48.4913 53.9981C49.0112 54.5423 49.6285 54.9403 50.262 55.3383C50.8469 55.7038 51.3667 56.045 51.7688 56.5039C51.3829 57.9619 50.9484 59.4117 50.4245 60.8291C49.6325 62.9653 48.6172 65.0244 47.3136 66.8641C46.0586 68.6307 44.5276 70.174 42.7893 71.2746C42.566 71.4168 42.3345 71.5508 42.1071 71.6807C41.9852 71.7498 41.9771 71.9001 42.0624 71.9813C42.1639 72.0787 42.3385 72.0787 42.4644 72.0056C44.2798 71.0025 45.9043 69.5405 47.2567 67.8104C48.601 66.0884 49.6813 64.135 50.526 62.0881C51.5535 59.5945 52.2602 56.9872 52.8815 54.3798C52.9668 54.0265 53.048 53.6691 53.1333 53.3158C53.8684 53.2508 54.5832 53.4092 55.367 53.6042C56.2036 53.8153 57.0281 54.0021 57.9094 53.9737C59.4201 53.9331 61.0568 53.4051 63.0631 52.3208C64.0337 51.7928 64.9719 51.204 65.8491 50.6476C65.9384 50.5948 65.9872 50.4689 65.9547 50.3511ZM62.6123 43.2439C61.7554 43.9506 60.9106 44.507 60.0984 44.8928C59.1399 45.3517 58.1855 45.5507 57.3814 45.6847L57.2393 45.7091C56.8088 45.7822 56.3336 45.8594 55.8584 45.9771C56.9875 45.1852 58.218 44.6978 59.3876 44.2714L59.7816 44.1293C60.4801 43.8775 61.199 43.6135 61.9056 43.2967C62.5148 43.0206 63.0753 42.716 63.5992 42.3708C63.2661 42.6875 62.9372 42.9759 62.6123 43.2439ZM58.5348 42.6672C59.8669 41.7575 61.337 41.3554 62.7585 40.9696C63.2621 40.8315 63.7779 40.6935 64.2855 40.531C64.7485 40.3848 65.1668 40.2264 65.5526 40.0599C65.1384 40.462 64.7404 40.8194 64.3424 41.1483C63.6032 41.7616 62.795 42.2773 61.9422 42.6794C61.1787 43.0409 60.3867 43.3292 59.6232 43.6054C58.7622 43.9181 57.8728 44.243 57.0078 44.6735C56.6057 44.8725 56.2361 45.0837 55.8869 45.3111C56.5448 44.4582 57.4545 43.4064 58.5348 42.6672ZM65.0856 32.5304C64.4195 33.4766 63.7129 34.2767 62.99 34.9102C62.129 35.6616 61.1908 36.1652 60.3827 36.5591L60.2405 36.6282C59.7938 36.8434 59.3064 37.083 58.8272 37.3632C59.7572 36.2342 60.9025 35.361 62.0071 34.565C62.1209 34.4838 62.2346 34.4026 62.3483 34.3214L62.3767 34.3011C63.0306 33.834 63.7047 33.3467 64.3424 32.8146C64.9231 32.3314 65.4389 31.8278 65.8938 31.2998C65.6217 31.7425 65.3536 32.1486 65.0856 32.5304ZM60.5451 33.3507C61.6457 32.0552 63.0671 31.1942 64.4398 30.3576C64.9272 30.0611 65.4267 29.7565 65.91 29.4357C66.3649 29.1311 66.771 28.8346 67.1324 28.5382C66.8238 29.0661 66.5151 29.5453 66.2024 29.9961C65.6298 30.8165 64.9475 31.5638 64.1799 32.2258C63.4936 32.8146 62.7544 33.3507 62.0396 33.8665C61.2355 34.4473 60.3989 35.0443 59.6313 35.7387C59.2577 36.0718 58.9247 36.4088 58.6241 36.7541C59.0303 35.7266 59.6394 34.4188 60.5451 33.3507ZM54.3314 40.1289L54.2421 40.0152C53.7385 39.3736 53.1658 38.5816 52.7678 37.5988C52.4307 36.7662 52.183 35.7875 52.0246 34.6869C51.9637 34.2726 51.919 33.8381 51.8825 33.3792C52.0368 33.9883 52.2439 34.5935 52.5079 35.2067C52.8166 35.9174 53.1699 36.5957 53.5151 37.2536L53.71 37.6232C54.2867 38.7278 54.8675 39.9137 55.168 41.262C54.9 40.8478 54.6035 40.4701 54.3314 40.1289ZM55.2046 39.5198C54.8553 38.6182 54.4167 37.7775 53.9903 36.9652C53.6126 36.2464 53.2227 35.4991 52.9018 34.7194C52.5445 33.8462 52.2927 32.9202 52.1586 31.9699C52.0855 31.4582 52.0327 30.9221 52.0002 30.3495C52.1749 30.7353 52.3779 31.1333 52.6176 31.5516C52.8815 32.0105 53.1699 32.4654 53.4501 32.9081C54.238 34.1508 55.0584 35.4382 55.4279 37.0099C55.7285 38.2851 55.6919 39.6741 55.6026 40.7503C55.497 40.3442 55.363 39.9381 55.2046 39.5198ZM51.8053 47.1346L51.6875 47.0615C51.0255 46.6513 50.258 46.1355 49.6204 45.4329C49.0802 44.84 48.5969 44.113 48.1746 43.2764C48.0243 42.9799 47.8862 42.6713 47.7481 42.3383C48.0446 42.7809 48.3939 43.2074 48.7959 43.6297C49.2752 44.1293 49.795 44.6004 50.3026 45.0552L50.5869 45.3111C51.4154 46.0584 52.2642 46.8625 52.8856 47.8412C52.5282 47.5813 52.1505 47.3458 51.8053 47.1346ZM52.5404 46.4807C51.9718 45.835 51.3301 45.2542 50.7047 44.6938C50.1524 44.1983 49.5797 43.6825 49.068 43.1302C48.4954 42.5088 48.0243 41.8265 47.6628 41.0996C47.476 40.7219 47.3014 40.3279 47.1349 39.9015C47.3989 40.1696 47.6953 40.4417 48.0365 40.7219C48.4142 41.0346 48.8162 41.3392 49.2021 41.6316C50.2986 42.4601 51.4276 43.3211 52.1789 44.4907C52.7759 45.4248 53.0724 46.5173 53.2389 47.3783C53.0318 47.0777 52.8044 46.7813 52.5404 46.4807ZM50.4732 54.9322L50.3758 54.8713C49.8315 54.5301 49.2061 54.1037 48.6863 53.5189C48.2477 53.0234 47.8537 52.4183 47.5126 51.7157C47.4151 51.5126 47.3217 51.3014 47.2283 51.0821C47.4517 51.407 47.7035 51.7197 47.9959 52.0324C48.3898 52.4508 48.8162 52.8447 49.2305 53.2224L49.462 53.4336C50.1199 54.0346 50.79 54.6844 51.2895 55.4723C51.0174 55.2693 50.7331 55.0946 50.4732 54.9322ZM51.0905 54.3798C50.6275 53.8397 50.0996 53.3564 49.5879 52.8894C49.1371 52.4751 48.666 52.0487 48.2517 51.5816C47.7887 51.0659 47.4029 50.4932 47.1105 49.8841C46.9684 49.5916 46.8384 49.283 46.7125 48.954C46.9156 49.1571 47.1389 49.3683 47.3948 49.5795C47.7035 49.8394 48.0324 50.0952 48.3492 50.3389C49.2467 51.0293 50.1727 51.7441 50.7778 52.7229C51.2449 53.4742 51.4763 54.3514 51.6104 55.0621C51.456 54.8347 51.2855 54.6073 51.0905 54.3798ZM60.6669 52.8325C59.7775 53.1655 58.9328 53.3605 58.153 53.4173C57.2311 53.4823 56.3742 53.3077 55.6594 53.129L55.5335 53.0965C55.1558 53.0031 54.7416 52.8975 54.3111 52.8285C55.4442 52.5239 56.5895 52.5401 57.6779 52.5807C57.7956 52.5848 57.9134 52.5888 58.0353 52.597H58.0474C58.6972 52.6254 59.3714 52.6538 60.0456 52.6254C60.6182 52.601 61.1584 52.5279 61.6741 52.4101C61.3289 52.5685 60.9918 52.7107 60.6669 52.8325ZM62.6204 51.541C61.8528 51.8294 61.0446 52.004 60.2283 52.0568C59.4973 52.1055 58.7582 52.0731 58.0434 52.0406C57.2393 52.0081 56.4067 51.9715 55.5701 52.0446C55.1843 52.0771 54.8269 52.134 54.4776 52.2111C55.233 51.671 56.2402 51.0415 57.3205 50.7653C58.6607 50.4242 60.005 50.607 61.3046 50.7816C61.7635 50.8425 62.2386 50.9075 62.7057 50.9481C63.1281 50.9846 63.5179 50.9968 63.8834 50.9887C63.4448 51.208 63.0306 51.3867 62.6204 51.541Z" fill="#1B3764"/>
<path d="M32.1488 58.7219C32.6402 59.0955 33.1682 59.4895 33.7205 59.8469C34.8576 60.586 35.8039 60.9759 36.6974 61.0693C37.2172 61.1261 37.7168 61.053 38.2244 60.9678C38.6996 60.8865 39.1301 60.8297 39.5646 60.9028C39.5971 61.118 39.6296 61.3333 39.6621 61.5485C39.9058 63.1243 40.2022 64.7041 40.6936 66.2311C41.0998 67.4861 41.648 68.6963 42.3628 69.7807C43.0817 70.8691 43.9792 71.8153 45.0067 72.4976C45.0798 72.5464 45.1813 72.5545 45.2463 72.5017C45.3032 72.457 45.3032 72.3677 45.2341 72.3189C45.1042 72.2336 44.9742 72.1402 44.8483 72.0468C43.8695 71.3117 43.0329 70.3249 42.375 69.2161C41.6886 68.0627 41.1851 66.7916 40.8155 65.4879C40.5718 64.6229 40.3809 63.7416 40.2225 62.8603C40.4825 62.6085 40.8074 62.4298 41.1729 62.2389C41.5668 62.0318 41.9526 61.8247 42.2857 61.5282C42.8583 61.0165 43.3213 60.3058 43.7396 59.2905C43.9426 58.7991 44.1091 58.2955 44.2635 57.8244C44.2838 57.7594 44.2554 57.6903 44.1985 57.6578C44.1457 57.6294 44.0482 57.6294 44.0036 57.6985C43.6015 58.328 42.9679 58.7422 42.3547 59.1443L42.3466 59.1483C42.1963 59.2458 42.042 59.3473 41.8958 59.4489C41.5709 59.6722 41.1607 59.9768 40.8398 60.3748C40.5068 60.785 40.2672 61.2967 40.0885 61.9871C40.0845 61.9953 40.0845 62.0034 40.0845 62.0115C40.0195 61.6094 39.9586 61.2074 39.8976 60.8053C39.7799 60.0134 39.6661 59.2174 39.5443 58.4254L39.5565 58.3686C39.8855 58.0396 40.2997 57.8122 40.7708 57.5726C41.2541 57.3248 41.7171 57.0771 42.1273 56.7197C42.8258 56.1105 43.3944 55.2658 43.9101 54.0596C44.1579 53.4748 44.3691 52.8818 44.5599 52.3214C44.5721 52.2889 44.5721 52.2523 44.5599 52.2198C44.5478 52.1874 44.5234 52.1589 44.4909 52.1427C44.43 52.1102 44.3163 52.1142 44.2675 52.1874C43.7721 52.9387 42.9964 53.4382 42.2491 53.9174C42.0623 54.0393 41.8714 54.1611 41.6886 54.283C41.2947 54.551 40.7952 54.9165 40.4012 55.3876C39.9951 55.875 39.7027 56.4841 39.4753 57.3005C39.4509 57.3857 39.4306 57.471 39.4062 57.5563C39.3209 57.069 39.2316 56.5857 39.126 56.1024C39.0163 55.5947 38.8945 55.0911 38.7524 54.5916L38.7483 54.551C38.9676 54.0718 39.2966 53.6981 39.6743 53.292C40.0601 52.8778 40.4297 52.4595 40.718 51.9315C41.2135 51.0299 41.5181 49.8765 41.6846 48.3048C41.7658 47.5454 41.8024 46.7818 41.8349 46.063C41.8389 45.9818 41.7942 45.9127 41.7293 45.8884C41.6602 45.864 41.5506 45.8965 41.5262 46.0021C41.2582 47.0296 40.6652 47.8175 40.0926 48.581C39.9504 48.7718 39.8042 48.9668 39.6661 49.1577C39.3697 49.576 38.996 50.1405 38.7524 50.8025C38.5006 51.4848 38.3869 52.2848 38.3909 53.3164C38.3909 53.357 38.3909 53.3976 38.3909 53.4382C38.2122 52.9346 38.0132 52.4351 37.7899 51.9518C37.7858 51.9193 37.7695 51.8868 37.7492 51.8625L37.7452 51.8584C37.7371 51.8462 37.733 51.83 37.7249 51.8178C37.6315 51.436 37.5299 51.0664 37.4203 50.7091C37.1116 49.7059 36.7421 48.9587 36.2669 48.3495C35.8039 47.7606 35.2353 47.2976 34.7927 46.9605C34.5855 46.8062 34.3743 46.6478 34.1672 46.5016C33.3184 45.8884 32.4453 45.2548 31.8483 44.3207C31.7873 44.2273 31.6655 44.2192 31.6046 44.2557C31.5437 44.2923 31.5193 44.3695 31.5477 44.4466C31.7995 45.133 32.0757 45.8681 32.3925 46.5869C33.0463 48.0733 33.7245 49.1211 34.5287 49.8846C34.9957 50.3314 35.5196 50.6522 36.0557 50.969C36.5796 51.2776 37.0426 51.566 37.4243 51.9802V51.9883C37.4568 52.0168 37.4853 52.0493 37.5056 52.0899C37.5299 52.1427 37.5543 52.1995 37.5787 52.2523C38.1432 53.5113 38.5249 54.8475 38.8133 56.1958C38.7402 56.074 38.663 55.9562 38.5859 55.8384C38.0213 54.9734 37.4893 54.3682 36.9045 53.9337C36.3359 53.5113 35.7146 53.2433 35.2394 53.0565C35.0201 52.9712 34.7927 52.8899 34.5693 52.8087C33.6677 52.4838 32.7377 52.1508 31.9538 51.436C31.8726 51.3629 31.763 51.3995 31.7224 51.4523C31.6817 51.5091 31.6817 51.5903 31.7305 51.6553C32.1528 52.2361 32.6036 52.8534 33.0869 53.4463C34.086 54.6688 34.9754 55.4648 35.8851 55.9481C36.4172 56.2323 36.9532 56.3786 37.5015 56.5126C38.0376 56.6466 38.5168 56.7806 38.9636 57.0568L39.0001 57.1218C39.195 58.1899 39.3494 59.262 39.5078 60.3301C39.3494 60.1839 39.191 60.0418 39.0367 59.9118C38.3544 59.3351 37.7574 58.9818 37.1522 58.8072C36.5674 58.6366 35.9704 58.6285 35.5156 58.6407C35.3044 58.6447 35.0891 58.6569 34.882 58.6691C34.0291 58.7178 33.156 58.7625 32.3194 58.4132C32.2341 58.3767 32.1447 58.4498 32.1204 58.5188C32.0676 58.6001 32.0879 58.6772 32.1488 58.7219ZM33.8626 53.9093C34.1591 54.1408 34.4759 54.3479 34.8251 54.5388C35.2272 54.7622 35.6415 54.949 36.0435 55.1318L36.2709 55.2333C36.9451 55.5419 37.6518 55.8871 38.2853 56.411C38.0092 56.3176 37.733 56.2486 37.4812 56.1877L37.3959 56.1674C36.9248 56.0496 36.3684 55.8871 35.8202 55.5663C35.3572 55.2983 34.882 54.9287 34.4068 54.4698C34.2281 54.2992 34.0494 54.1124 33.8626 53.9093ZM38.3016 56.0212C38.1066 55.8709 37.8954 55.7288 37.668 55.5907C37.1766 55.2942 36.6608 55.0586 36.1654 54.8312C35.7227 54.6282 35.2678 54.421 34.8333 54.1733C34.3459 53.8931 33.8911 53.5479 33.4809 53.1499C33.2616 52.9346 33.0423 52.7031 32.8148 52.4473C33.0382 52.565 33.2778 52.6788 33.5459 52.7884C33.8383 52.9103 34.1388 53.0158 34.4312 53.1214C35.2556 53.4179 36.1085 53.7225 36.8558 54.3276C37.4609 54.815 37.9523 55.481 38.3016 56.0212ZM33.0341 47.2367C33.2819 47.5738 33.5621 47.8946 33.8829 48.2073C34.2363 48.5525 34.614 48.8734 34.9795 49.182L34.9957 49.1942C35.0607 49.247 35.1216 49.2998 35.1866 49.3567C35.8039 49.8806 36.4415 50.4532 36.9411 51.168C36.673 50.9771 36.3928 50.8147 36.1369 50.6644L36.0557 50.6156C35.5968 50.3435 35.0607 49.9983 34.5855 49.5151C34.1835 49.1049 33.8058 48.5972 33.4524 48.0043C33.3062 47.7647 33.1682 47.5088 33.0341 47.2367ZM37.0832 50.8147C36.9207 50.5953 36.738 50.3801 36.5309 50.1649C36.1085 49.7181 35.6415 49.3242 35.1907 48.9424C34.7886 48.6013 34.3784 48.252 33.9967 47.8703C33.5743 47.4438 33.2047 46.9646 32.9042 46.4529C32.7377 46.1686 32.5793 45.8721 32.4209 45.5432C32.624 45.7381 32.8473 45.933 33.1032 46.132C33.3753 46.3432 33.6555 46.5503 33.9317 46.7493C34.7074 47.3098 35.5074 47.8906 36.1004 48.7109C36.5877 49.381 36.8883 50.1852 37.0832 50.8147ZM38.9189 53.6494C39.1626 52.8656 39.5606 52.1874 39.9545 51.5579L40.0845 51.3467C40.32 50.973 40.5637 50.5872 40.7789 50.1811C40.9657 49.8318 41.116 49.4826 41.2379 49.1292C41.1932 49.4013 41.1444 49.6572 41.0916 49.9009C40.9454 50.5466 40.7505 51.1152 40.5149 51.5944C40.2307 52.1589 39.857 52.6016 39.5281 52.959L39.4712 53.024C39.2925 53.2108 39.0976 53.4179 38.9189 53.6494ZM38.6874 53.3245C38.6874 52.6828 38.728 51.8543 38.9676 51.1152C39.26 50.2014 39.8083 49.4785 40.3322 48.7759C40.519 48.5282 40.7099 48.2723 40.8886 48.0124C41.051 47.7768 41.1932 47.5494 41.311 47.3301C41.2622 47.6712 41.2054 47.984 41.1404 48.2845C41.0145 48.8409 40.8236 49.381 40.5718 49.8806C40.3444 50.3273 40.0763 50.7497 39.8205 51.1599C39.5281 51.6228 39.2275 52.098 38.9798 52.6178C38.8661 52.8575 38.7686 53.093 38.6874 53.3245ZM39.9586 57.6619C40.3728 57.1096 40.917 56.671 41.4409 56.2689L41.6196 56.1308C41.9404 55.8871 42.2735 55.6313 42.5821 55.3592C42.842 55.1277 43.0695 54.8881 43.2644 54.6403C43.1669 54.8312 43.0695 55.0059 42.9679 55.1764C42.6796 55.6557 42.3547 56.0618 42.0095 56.3867C41.5993 56.7725 41.1201 57.0405 40.7058 57.2558L40.6327 57.2923C40.4215 57.402 40.186 57.5238 39.9586 57.6619ZM39.7758 57.3695C39.9139 56.8659 40.1413 56.2323 40.5393 55.7084C41.0388 55.0505 41.7496 54.5957 42.44 54.153C42.6837 53.9987 42.9354 53.8362 43.1751 53.6697C43.3903 53.5194 43.5771 53.3732 43.7477 53.227C43.6299 53.4707 43.5081 53.6981 43.3781 53.9134C43.1304 54.3276 42.8177 54.7094 42.4481 55.0505C42.1191 55.3551 41.7536 55.6313 41.4044 55.9034C41.0064 56.208 40.5962 56.5207 40.2307 56.874C40.0601 57.0365 39.9098 57.203 39.7758 57.3695ZM40.5434 62.2592C40.8764 61.8166 41.3069 61.4632 41.7252 61.1383L41.8714 61.0246C42.1354 60.8216 42.4075 60.6063 42.6593 60.3789C42.8461 60.2083 43.0126 60.0337 43.1588 59.8509C43.0938 59.9768 43.0289 60.0987 42.9598 60.2124C42.7243 60.6144 42.4643 60.9556 42.1801 61.2277C41.843 61.5526 41.4531 61.7759 41.116 61.9506L41.0551 61.9831C40.8926 62.0643 40.718 62.1577 40.5434 62.2592ZM40.3769 62.0034C40.4906 61.5891 40.6693 61.0815 40.982 60.655C41.3881 60.1027 41.9729 59.725 42.5334 59.3554C42.7324 59.2255 42.9395 59.0915 43.1345 58.9493C43.2969 58.8356 43.439 58.7219 43.569 58.6082C43.4797 58.7991 43.3862 58.9737 43.2888 59.1402C43.0857 59.4854 42.8339 59.8062 42.5334 60.0905C42.2653 60.3464 41.9648 60.5779 41.6765 60.8013C41.3516 61.053 41.0145 61.317 40.7139 61.6135C40.5921 61.7516 40.4784 61.8734 40.3769 62.0034ZM34.5327 59.9565C34.8333 60.054 35.15 60.119 35.4912 60.1596C35.8892 60.2083 36.2913 60.2246 36.6771 60.2367H36.6852C36.7542 60.2408 36.8273 60.2408 36.8964 60.2449C37.5421 60.2692 38.2244 60.318 38.8823 60.5495C38.6265 60.5698 38.3747 60.6104 38.1472 60.651L38.0701 60.6632C37.6355 60.7363 37.1198 60.7972 36.5796 60.716C36.1207 60.6469 35.6293 60.4885 35.1176 60.2489C34.9226 60.1677 34.7317 60.0662 34.5327 59.9565ZM33.29 59.0102C33.5052 59.0346 33.7367 59.0427 33.9885 59.0427C34.2688 59.0427 34.553 59.0265 34.8292 59.0102C35.609 58.9656 36.4131 58.9209 37.1929 59.1889C37.8223 59.4042 38.3909 59.8225 38.8133 60.1799C38.6102 60.119 38.399 60.0662 38.1716 60.0296C37.6802 59.9443 37.1847 59.9281 36.7055 59.9078C36.2791 59.8915 35.8405 59.8753 35.41 59.8144C34.9267 59.7453 34.4596 59.6032 34.017 59.3961C33.7773 59.2823 33.5377 59.1564 33.29 59.0102Z" fill="#1B3764"/>
</svg>
