<svg width="120" height="20" viewBox="0 0 120 20" fill="none" xmlns="http://www.w3.org/2000/svg">
<circle cx="110" cy="10" r="9.5" stroke="#FFCA42"/>
<path d="M110 20C108.687 20 107.386 19.7413 106.173 19.2388C104.96 18.7362 103.858 17.9997 102.929 17.0711C102 16.1425 101.264 15.0401 100.761 13.8268C100.259 12.6136 100 11.3132 100 10C100 8.68678 100.259 7.38642 100.761 6.17316C101.264 4.95991 102 3.85752 102.929 2.92893C103.858 2.00035 104.96 1.26375 106.173 0.761204C107.386 0.258657 108.687 -6.09322e-07 110 -4.37114e-07L110 10L110 20Z" fill="#FFCA42"/>
<circle cx="85" cy="10" r="10" fill="#FFCA42"/>
<circle cx="60" cy="10" r="10" fill="#FFCA42"/>
<circle cx="35" cy="10" r="10" fill="#FFCA42"/>
<circle cx="10" cy="10" r="10" fill="#FFCA42"/>
</svg>
