<svg width="471" height="216" viewBox="0 0 471 216" fill="none" xmlns="http://www.w3.org/2000/svg">
<path d="M10.002 154.318C10.002 153.927 10.002 153.439 10.002 152.853C10.002 152.169 10.002 151.485 10.002 150.801C10.0997 150.118 10.1485 149.532 10.1485 149.043C10.2462 148.457 10.3927 148.067 10.588 147.871L98.4962 13.5183C99.0822 12.6392 99.7659 12.0043 100.547 11.6136C101.329 11.1253 102.159 10.7834 103.038 10.588C103.917 10.3927 104.747 10.295 105.529 10.295C106.408 10.1973 107.14 10.1485 107.727 10.1485C108.508 10.1485 109.534 10.1973 110.803 10.295C112.171 10.295 113.441 10.4415 114.613 10.7346C115.882 10.9299 116.957 11.2718 117.836 11.7602C118.813 12.2485 119.301 12.9811 119.301 13.9579V128.531C119.301 130.387 119.399 131.462 119.594 131.755C119.887 132.048 120.717 132.194 122.085 132.194H146.553C147.627 132.194 148.653 132.292 149.629 132.487C150.606 132.683 151.095 133.464 151.095 134.832V156.516C151.095 158.86 150.118 160.032 148.164 160.032H121.499C120.424 160.032 119.789 160.178 119.594 160.471C119.399 160.667 119.301 161.497 119.301 162.962V210.579C119.301 211.067 119.106 211.849 118.715 212.923C118.422 213.998 117.299 214.535 115.345 214.535H89.2658C87.8983 214.535 87.0681 214.095 86.7751 213.216C86.482 212.337 86.3355 211.653 86.3355 211.165V164.427C86.3355 163.353 86.2867 162.523 86.189 161.937C86.189 161.35 85.9937 160.911 85.603 160.618C85.2123 160.325 84.6262 160.178 83.8448 160.178C83.0634 160.081 81.9401 160.032 80.475 160.032H16.4486C14.5927 160.032 13.0299 159.446 11.7602 158.274C10.588 157.004 10.002 155.685 10.002 154.318ZM37.693 130.436C37.693 131.218 37.9861 131.706 38.5721 131.901C39.2559 132.097 40.5256 132.194 42.3815 132.194H83.1122C84.382 132.194 85.1634 131.901 85.4565 131.315C85.8472 130.729 86.1402 130.045 86.3355 129.264V70.5121C86.3355 69.1446 86.1402 67.8748 85.7495 66.7027C85.4565 65.4329 84.7727 64.798 83.6983 64.798C82.9169 64.798 82.1355 65.1887 81.3541 65.9702C80.6703 66.6539 80.0355 67.2888 79.4494 67.8748L39.3047 127.945C39.1093 128.141 38.914 128.385 38.7186 128.678C38.621 128.873 38.4745 129.117 38.2791 129.411C38.0837 129.801 37.8884 130.143 37.693 130.436Z" fill="#FFCA42"/>
<path d="M240.901 216C229.766 216 219.95 213.509 211.452 208.528C202.954 203.449 195.824 196.416 190.061 187.43C184.396 178.346 180.098 167.504 177.168 154.904C174.238 142.304 172.773 128.434 172.773 113.294C172.773 105.285 173.408 97.1775 174.677 88.9728C176.045 80.6703 177.998 72.7098 180.538 65.0911C183.077 57.3747 186.252 50.1955 190.061 43.5536C193.968 36.814 198.413 31.0023 203.394 26.1185C208.473 21.137 214.138 17.23 220.39 14.3974C226.641 11.4671 233.478 10.002 240.901 10.002C248.325 10.002 255.113 11.4183 261.267 14.2509C267.518 17.0835 273.086 20.9905 277.969 25.972C282.853 30.9534 287.102 36.814 290.716 43.5536C294.428 50.1955 297.456 57.3747 299.8 65.0911C302.242 72.7098 304.049 80.6703 305.221 88.9728C306.491 97.1775 307.126 105.333 307.126 113.441C307.126 128.58 305.758 142.45 303.023 155.05C300.288 167.651 296.137 178.493 290.57 187.576C285.1 196.563 278.214 203.546 269.911 208.528C261.706 213.509 252.036 216 240.901 216ZM207.35 113.441C207.35 121.059 207.496 128.629 207.789 136.15C208.082 143.573 208.668 150.704 209.548 157.541C210.427 164.281 211.599 170.532 213.064 176.295C214.627 182.058 216.629 187.039 219.071 191.239C221.61 195.439 224.638 198.76 228.155 201.202C231.769 203.546 236.018 204.718 240.901 204.718C245.785 204.718 249.985 203.498 253.502 201.056C257.018 198.614 259.948 195.293 262.292 191.093C264.637 186.795 266.492 181.716 267.86 175.855C269.227 169.995 270.253 163.695 270.937 156.955C271.62 150.118 272.06 142.987 272.255 135.564C272.451 128.141 272.548 120.669 272.548 113.148C272.548 106.994 272.353 100.45 271.962 93.5147C271.669 86.482 271.083 79.5959 270.204 72.8563C269.423 66.019 268.299 59.5236 266.834 53.37C265.369 47.1187 263.465 41.6489 261.12 36.9605C258.776 32.1744 255.943 28.365 252.623 25.5324C249.302 22.6998 245.443 21.2835 241.048 21.2835C236.164 21.2835 231.915 22.6998 228.301 25.5324C224.687 28.365 221.61 32.1744 219.071 36.9605C216.629 41.7466 214.627 47.2653 213.064 53.5165C211.501 59.7677 210.28 66.312 209.401 73.1493C208.62 79.9866 208.082 86.8728 207.789 93.8077C207.496 100.743 207.35 107.287 207.35 113.441Z" fill="#FFCA42"/>
<path d="M329.683 154.318C329.683 153.927 329.683 153.439 329.683 152.853C329.683 152.169 329.683 151.485 329.683 150.801C329.78 150.118 329.829 149.532 329.829 149.043C329.927 148.457 330.073 148.067 330.269 147.871L418.177 13.5183C418.763 12.6392 419.447 12.0043 420.228 11.6136C421.01 11.1253 421.84 10.7834 422.719 10.588C423.598 10.3927 424.428 10.295 425.21 10.295C426.089 10.1973 426.821 10.1485 427.407 10.1485C428.189 10.1485 429.214 10.1973 430.484 10.295C431.852 10.295 433.121 10.4415 434.293 10.7346C435.563 10.9299 436.638 11.2718 437.517 11.7602C438.493 12.2485 438.982 12.9811 438.982 13.9579V128.531C438.982 130.387 439.08 131.462 439.275 131.755C439.568 132.048 440.398 132.194 441.766 132.194H466.233C467.308 132.194 468.333 132.292 469.31 132.487C470.287 132.683 470.775 133.464 470.775 134.832V156.516C470.775 158.86 469.799 160.032 467.845 160.032H441.18C440.105 160.032 439.47 160.178 439.275 160.471C439.08 160.667 438.982 161.497 438.982 162.962V210.579C438.982 211.067 438.787 211.849 438.396 212.923C438.103 213.998 436.98 214.535 435.026 214.535H408.947C407.579 214.535 406.749 214.095 406.456 213.216C406.163 212.337 406.016 211.653 406.016 211.165V164.427C406.016 163.353 405.967 162.523 405.87 161.937C405.87 161.35 405.674 160.911 405.284 160.618C404.893 160.325 404.307 160.178 403.526 160.178C402.744 160.081 401.621 160.032 400.156 160.032H336.129C334.274 160.032 332.711 159.446 331.441 158.274C330.269 157.004 329.683 155.685 329.683 154.318ZM357.374 130.436C357.374 131.218 357.667 131.706 358.253 131.901C358.937 132.097 360.206 132.194 362.062 132.194H402.793C404.063 132.194 404.844 131.901 405.137 131.315C405.528 130.729 405.821 130.045 406.016 129.264V70.5121C406.016 69.1446 405.821 67.8748 405.43 66.7027C405.137 65.4329 404.454 64.798 403.379 64.798C402.598 64.798 401.816 65.1887 401.035 65.9702C400.351 66.6539 399.716 67.2888 399.13 67.8748L358.985 127.945C358.79 128.141 358.595 128.385 358.399 128.678C358.302 128.873 358.155 129.117 357.96 129.411C357.765 129.801 357.569 130.143 357.374 130.436Z" fill="#FFCA42"/>
<path d="M0 144.316C0 143.925 0 143.437 0 142.851C0 142.167 0 141.483 0 140.799C0.0976757 140.116 0.146514 139.53 0.146514 139.041C0.244189 138.455 0.390703 138.065 0.586054 137.869L88.4942 3.51632C89.0802 2.63724 89.764 2.00235 90.5454 1.61165C91.3268 1.12327 92.157 0.781405 93.0361 0.586054C93.9152 0.390703 94.7454 0.293027 95.5268 0.293027C96.4059 0.195351 97.1385 0.146514 97.7245 0.146514C98.5059 0.146514 99.5315 0.195351 100.801 0.293027C102.169 0.293027 103.439 0.439541 104.611 0.732568C105.88 0.927919 106.955 1.26978 107.834 1.75816C108.811 2.24654 109.299 2.97911 109.299 3.95587V118.529C109.299 120.385 109.397 121.46 109.592 121.753C109.885 122.046 110.715 122.192 112.083 122.192H136.551C137.625 122.192 138.651 122.29 139.627 122.485C140.604 122.681 141.093 123.462 141.093 124.83V146.514C141.093 148.858 140.116 150.03 138.162 150.03H111.497C110.422 150.03 109.787 150.176 109.592 150.469C109.397 150.665 109.299 151.495 109.299 152.96V200.577C109.299 201.065 109.104 201.847 108.713 202.921C108.42 203.996 107.297 204.533 105.343 204.533H79.2638C77.8964 204.533 77.0661 204.093 76.7731 203.214C76.4801 202.335 76.3335 201.651 76.3335 201.163V154.425C76.3335 153.351 76.2847 152.521 76.187 151.935C76.187 151.348 75.9917 150.909 75.601 150.616C75.2103 150.323 74.6242 150.176 73.8428 150.176C73.0614 150.079 71.9381 150.03 70.473 150.03H6.44659C4.59076 150.03 3.02795 149.444 1.75816 148.272C0.586054 147.002 0 145.683 0 144.316ZM27.6911 120.434C27.6911 121.216 27.9841 121.704 28.5701 121.899C29.2539 122.095 30.5237 122.192 32.3795 122.192H73.1102C74.38 122.192 75.1614 121.899 75.4545 121.313C75.8452 120.727 76.1382 120.043 76.3335 119.262V60.5101C76.3335 59.1426 76.1382 57.8728 75.7475 56.7007C75.4545 55.4309 74.7707 54.7961 73.6963 54.7961C72.9149 54.7961 72.1335 55.1868 71.3521 55.9682C70.6684 56.6519 70.0335 57.2868 69.4474 57.8728L29.3027 117.943C29.1074 118.139 28.912 118.383 28.7167 118.676C28.619 118.871 28.4725 119.115 28.2771 119.409C28.0818 119.799 27.8864 120.141 27.6911 120.434Z" fill="#1B3764"/>
<path d="M230.899 205.998C219.764 205.998 209.948 203.507 201.45 198.526C192.952 193.447 185.822 186.414 180.059 177.428C174.394 168.344 170.096 157.502 167.166 144.902C164.236 132.302 162.771 118.432 162.771 103.292C162.771 95.2826 163.406 87.1755 164.675 78.9708C166.043 70.6684 167.996 62.7078 170.536 55.0891C173.075 47.3727 176.25 40.1935 180.059 33.5516C183.966 26.812 188.411 21.0003 193.392 16.1165C198.471 11.135 204.136 7.228 210.388 4.39541C216.639 1.46514 223.476 0 230.899 0C238.323 0 245.111 1.4163 251.265 4.24889C257.516 7.08149 263.084 10.9885 267.967 15.97C272.851 20.9514 277.1 26.812 280.714 33.5516C284.426 40.1935 287.454 47.3727 289.798 55.0891C292.24 62.7078 294.047 70.6684 295.219 78.9708C296.489 87.1755 297.124 95.3315 297.124 103.439C297.124 118.578 295.756 132.448 293.021 145.048C290.286 157.649 286.135 168.491 280.568 177.574C275.098 186.561 268.212 193.544 259.909 198.526C251.704 203.507 242.034 205.998 230.899 205.998ZM197.348 103.439C197.348 111.057 197.494 118.627 197.787 126.148C198.08 133.571 198.666 140.702 199.546 147.539C200.425 154.279 201.597 160.53 203.062 166.293C204.625 172.056 206.627 177.037 209.069 181.237C211.609 185.437 214.636 188.758 218.153 191.2C221.767 193.544 226.016 194.716 230.899 194.716C235.783 194.716 239.983 193.496 243.5 191.054C247.016 188.612 249.946 185.291 252.29 181.091C254.635 176.793 256.49 171.714 257.858 165.853C259.225 159.993 260.251 153.693 260.935 146.953C261.618 140.116 262.058 132.985 262.253 125.562C262.449 118.139 262.546 110.667 262.546 103.146C262.546 96.992 262.351 90.4477 261.96 83.5127C261.667 76.4801 261.081 69.5939 260.202 62.8543C259.421 56.017 258.297 49.5216 256.832 43.368C255.367 37.1168 253.463 31.6469 251.118 26.9585C248.774 22.1724 245.942 18.363 242.621 15.5304C239.3 12.6978 235.441 11.2815 231.046 11.2815C226.162 11.2815 221.913 12.6978 218.299 15.5304C214.685 18.363 211.609 22.1724 209.069 26.9585C206.627 31.7446 204.625 37.2633 203.062 43.5145C201.499 49.7658 200.278 56.31 199.399 63.1473C198.618 69.9846 198.08 76.8708 197.787 83.8057C197.494 90.7407 197.348 97.285 197.348 103.439Z" fill="#1B3764"/>
<path d="M319.681 144.316C319.681 143.925 319.681 143.437 319.681 142.851C319.681 142.167 319.681 141.483 319.681 140.799C319.778 140.116 319.827 139.53 319.827 139.041C319.925 138.455 320.071 138.065 320.267 137.869L408.175 3.51632C408.761 2.63724 409.445 2.00235 410.226 1.61165C411.008 1.12327 411.838 0.781405 412.717 0.586054C413.596 0.390703 414.426 0.293027 415.208 0.293027C416.087 0.195351 416.819 0.146514 417.405 0.146514C418.187 0.146514 419.212 0.195351 420.482 0.293027C421.85 0.293027 423.119 0.439541 424.291 0.732568C425.561 0.927919 426.636 1.26978 427.515 1.75816C428.491 2.24654 428.98 2.97911 428.98 3.95587V118.529C428.98 120.385 429.078 121.46 429.273 121.753C429.566 122.046 430.396 122.192 431.764 122.192H456.231C457.306 122.192 458.331 122.29 459.308 122.485C460.285 122.681 460.773 123.462 460.773 124.83V146.514C460.773 148.858 459.797 150.03 457.843 150.03H431.178C430.103 150.03 429.468 150.176 429.273 150.469C429.078 150.665 428.98 151.495 428.98 152.96V200.577C428.98 201.065 428.785 201.847 428.394 202.921C428.101 203.996 426.978 204.533 425.024 204.533H398.945C397.577 204.533 396.747 204.093 396.454 203.214C396.161 202.335 396.014 201.651 396.014 201.163V154.425C396.014 153.351 395.965 152.521 395.868 151.935C395.868 151.348 395.672 150.909 395.282 150.616C394.891 150.323 394.305 150.176 393.524 150.176C392.742 150.079 391.619 150.03 390.154 150.03H326.127C324.272 150.03 322.709 149.444 321.439 148.272C320.267 147.002 319.681 145.683 319.681 144.316ZM347.372 120.434C347.372 121.216 347.665 121.704 348.251 121.899C348.935 122.095 350.204 122.192 352.06 122.192H392.791C394.061 122.192 394.842 121.899 395.135 121.313C395.526 120.727 395.819 120.043 396.014 119.262V60.5101C396.014 59.1426 395.819 57.8728 395.428 56.7007C395.135 55.4309 394.452 54.7961 393.377 54.7961C392.596 54.7961 391.814 55.1868 391.033 55.9682C390.349 56.6519 389.714 57.2868 389.128 57.8728L348.983 117.943C348.788 118.139 348.593 118.383 348.397 118.676C348.3 118.871 348.153 119.115 347.958 119.409C347.763 119.799 347.567 120.141 347.372 120.434Z" fill="#1B3764"/>
</svg>
