<svg width="232" height="108" viewBox="0 0 232 108" fill="none" xmlns="http://www.w3.org/2000/svg">
<g clip-path="url(#clip0_1_4774)">
<path d="M44.1547 42.502L34.04 50.118H40.6643L45.5841 46.414L44.1547 42.502Z" fill="#FFCA42" stroke="#FFCA42" stroke-miterlimit="10"/>
<path d="M31.3444 7.40796H28.4977L11.0546 20.5437L8.53125 27.4329L32.1574 9.63999L31.3444 7.40796Z" fill="#FFCA42" stroke="#FFCA42" stroke-miterlimit="10"/>
<path d="M46.9375 50.1181L46.8408 49.8557L46.4902 50.1181H46.9375Z" fill="#FFCA42" stroke="#FFCA42" stroke-miterlimit="10"/>
<path d="M16.0465 7.40796L15.8017 7.59195L13.2783 14.4811L22.6677 7.40796H16.0465Z" fill="#FFCA42" stroke="#FFCA42" stroke-miterlimit="10"/>
<path d="M38.7845 27.7917L17.709 43.6633H24.3332L40.2139 31.7038L38.7845 27.7917Z" fill="#FFCA42" stroke="#FFCA42" stroke-miterlimit="10"/>
<path d="M41.4716 35.1455L30.1602 43.6634H30.6799L31.8857 47.3523L42.8979 39.0576L41.4716 35.1455Z" fill="#FFCA42" stroke="#FFCA42" stroke-miterlimit="10"/>
<path d="M19.6796 33.5889L20.0181 32.5483L1.56266 46.4472L0.214844 50.118H3.31241L25.2583 33.5889H19.6796Z" fill="#FFCA42" stroke="#FFCA42" stroke-miterlimit="10"/>
<path d="M14.3003 50.118L15.9896 44.9602L9.13867 50.118H14.3003Z" fill="#FFCA42" stroke="#FFCA42" stroke-miterlimit="10"/>
<path d="M23.5472 21.705L24.5384 24.7544L34.8435 16.9936L33.414 13.0815L6.30961 33.4955L3.7832 40.3847L21.9092 26.7361L23.5472 21.705Z" fill="#FFCA42" stroke="#FFCA42" stroke-miterlimit="10"/>
<path d="M25.6875 28.2805L26.99 32.2861L37.5278 24.3503L36.1014 20.4382L25.6875 28.2805Z" fill="#FFCA42" stroke="#FFCA42" stroke-miterlimit="10"/>
<path d="M52.0721 27.2549V32.1472L71.0534 17.8562V16.0947H66.7652L51.9482 27.2549H52.0721Z" fill="#FFCA42" stroke="#FFCA42" stroke-miterlimit="10"/>
<path d="M47.8418 25.958L65.4904 12.6654V7.89062H65.2093L47.8418 20.9691V25.958Z" fill="#FFCA42" stroke="#FFCA42" stroke-miterlimit="10"/>
<path d="M52.0723 13.3953L59.3795 7.89062H52.7583L52.0723 8.4064V13.3953Z" fill="#FFCA42" stroke="#FFCA42" stroke-miterlimit="10"/>
<path d="M52.616 41.1146L65.4898 31.4203V27.27H71.0201L71.0534 27.2488V22.2449L52.0781 36.5329C52.0848 38.0754 52.2653 39.6123 52.616 41.1146Z" fill="#FFCA42" stroke="#FFCA42" stroke-miterlimit="10"/>
<path d="M71.1745 45.8954V40.9065L60.0596 49.2887C61.8471 49.8349 63.7053 50.1164 65.5747 50.1242L71.1745 45.8954Z" fill="#FFCA42" stroke="#FFCA42" stroke-miterlimit="10"/>
<path d="M67.9683 38.7318C67.0839 38.7318 66.4503 38.5508 66.0675 38.1889C65.6847 37.8269 65.4923 37.2438 65.4903 36.4394V35.8362L53.9492 44.529C54.6153 45.7012 55.5116 46.7271 56.5844 47.5453L68.2524 38.7318H67.9683Z" fill="#FFCA42" stroke="#FFCA42" stroke-miterlimit="10"/>
<path d="M47.8418 16.5803L48.4885 16.0947H47.8418V16.5803Z" fill="#FFCA42" stroke="#FFCA42" stroke-miterlimit="10"/>
<path d="M101.755 48.4289C105.095 46.7256 107.718 43.891 109.156 40.4329L96.1064 50.2598C98.0744 49.952 99.9809 49.334 101.755 48.4289Z" fill="#FFCA42" stroke="#FFCA42" stroke-miterlimit="10"/>
<path d="M92.5069 38.9579C91.8997 38.9718 91.2975 38.8457 90.7471 38.5894C90.1968 38.333 89.7131 37.9533 89.3338 37.4799C89.1868 37.2986 89.0544 37.106 88.9379 36.9038L78.5361 44.7461C79.4275 45.7747 80.4518 46.6804 81.5823 47.4396L92.8574 38.9488C92.7487 38.9488 92.6278 38.9579 92.5069 38.9579Z" fill="#FFCA42" stroke="#FFCA42" stroke-miterlimit="10"/>
<path d="M76.5357 41.8565L88.098 33.1486C88.098 33.1486 88.098 33.1214 88.098 33.1064C88.098 31.176 88.5211 29.7181 89.3672 28.7328C89.7454 28.2657 90.2245 27.89 90.7689 27.6341C91.3132 27.3781 91.9085 27.2484 92.5101 27.2548C93.3698 27.2436 94.209 27.5161 94.8975 28.03L105.266 20.2209C104.227 19.2724 103.067 18.4661 101.815 17.823L75.0459 37.9836C75.377 39.3321 75.8776 40.6334 76.5357 41.8565Z" fill="#FFCA42" stroke="#FFCA42" stroke-miterlimit="10"/>
<path d="M74.4954 33.1065C74.4954 33.4081 74.4954 33.7097 74.5166 34.0113L97.9523 16.3572C96.1753 15.9017 94.3473 15.6746 92.5127 15.6815H92.2105L74.9487 28.6846C74.6395 30.1381 74.4876 31.6206 74.4954 33.1065Z" fill="#FFCA42" stroke="#FFCA42" stroke-miterlimit="10"/>
<path d="M110.518 33.1064C110.519 32.1259 110.454 31.1464 110.324 30.1746L85.0391 49.2192C86.6561 49.843 88.3492 50.2487 90.0737 50.4257L110.433 35.0941C110.491 34.4446 110.52 33.782 110.518 33.1064Z" fill="#FFCA42" stroke="#FFCA42" stroke-miterlimit="10"/>
<path d="M83.2597 17.7838C81.3251 18.7658 79.6167 20.1392 78.2432 21.8165L84.1663 17.3555C83.8611 17.4912 83.5589 17.633 83.2597 17.7838Z" fill="#FFCA42" stroke="#FFCA42" stroke-miterlimit="10"/>
<path d="M96.375 36.2977L109.43 26.4647C109.099 25.5568 108.686 24.6805 108.197 23.8466C108.001 23.5118 107.792 23.189 107.578 22.8723L96.7256 31.0464C96.865 31.7241 96.9318 32.4146 96.925 33.1065C96.9567 34.1962 96.7697 35.2812 96.375 36.2977Z" fill="#FFCA42" stroke="#FFCA42" stroke-miterlimit="10"/>
<path d="M115.366 50.118L128.167 40.4781V35.4922L114.749 45.5966V50.118H115.366Z" fill="#FFCA42" stroke="#FFCA42" stroke-miterlimit="10"/>
<path d="M114.749 22.453L123.193 16.0947H116.568L114.749 17.4671V22.453Z" fill="#FFCA42" stroke="#FFCA42" stroke-miterlimit="10"/>
<path d="M121.195 50.118H127.82L128.167 49.8556V44.8667L121.195 50.118Z" fill="#FFCA42" stroke="#FFCA42" stroke-miterlimit="10"/>
<path d="M151.073 36.9944L137.716 47.0536V50.1181H140.269L151.073 41.9802V36.9944Z" fill="#FFCA42" stroke="#FFCA42" stroke-miterlimit="10"/>
<path d="M173.98 30.3917C173.98 29.9694 173.98 29.5532 173.944 29.146L160.623 39.1781V44.1609L173.98 34.1017V30.3917Z" fill="#FFCA42" stroke="#FFCA42" stroke-miterlimit="10"/>
<path d="M173.981 50.1181V47.874L170.998 50.1181H173.981Z" fill="#FFCA42" stroke="#FFCA42" stroke-miterlimit="10"/>
<path d="M165.171 50.1182L173.98 43.4824V38.4966L160.623 48.5558V50.1182H165.171Z" fill="#FFCA42" stroke="#FFCA42" stroke-miterlimit="10"/>
<path d="M151.073 32.6057V32.096C151.073 30.6482 151.496 29.5121 152.342 28.6876C153.189 27.8632 154.357 27.451 155.848 27.451C156.442 27.446 157.034 27.5304 157.604 27.7013L169.39 18.8275C168.275 17.8821 166.991 17.1564 165.606 16.689L137.716 37.6761V42.6529L151.073 32.6057Z" fill="#FFCA42" stroke="#FFCA42" stroke-miterlimit="10"/>
<path d="M137.717 32.0959V33.3024L160.85 15.8805C160.654 15.8805 160.46 15.8805 160.246 15.8805C157.993 15.858 155.777 16.4527 153.839 17.5998C151.954 18.7018 150.326 20.1929 149.064 21.9733C148.767 21.4661 148.436 20.9794 148.073 20.5165L136.731 29.0585C137.409 29.9229 137.758 30.999 137.717 32.0959Z" fill="#FFCA42" stroke="#FFCA42" stroke-miterlimit="10"/>
<path d="M160.623 32.0959V34.8105L173.315 25.2399C172.959 23.9145 172.403 22.6505 171.668 21.4907L160.251 30.0931C160.502 30.7308 160.628 31.4107 160.623 32.0959Z" fill="#FFCA42" stroke="#FFCA42" stroke-miterlimit="10"/>
<path d="M151.074 50.118V46.3718L146.097 50.118H151.074Z" fill="#FFCA42" stroke="#FFCA42" stroke-miterlimit="10"/>
<path d="M114.749 41.2079L128.248 31.0402C128.375 30.1429 128.792 29.3116 129.436 28.6724C130.282 27.85 131.451 27.4377 132.942 27.4357H133.029L145.495 18.0491C145.193 17.838 144.891 17.6359 144.546 17.4459C143.532 16.8807 142.442 16.4641 141.31 16.2092L114.749 36.2191V41.2079Z" fill="#FFCA42" stroke="#FFCA42" stroke-miterlimit="10"/>
<path d="M114.748 31.8304L135.739 16.0222C134.474 16.2018 133.248 16.5934 132.113 17.1805C130.52 17.9964 129.158 19.1997 128.154 20.6793V16.7371L114.736 26.8445L114.748 31.8304Z" fill="#FFCA42" stroke="#FFCA42" stroke-miterlimit="10"/>
<path d="M179.782 20.3597L185.446 16.0947H179.782V20.3597Z" fill="#FFCA42" stroke="#FFCA42" stroke-miterlimit="10"/>
<path d="M179.782 39.1148L193.2 29.0074V24.0215L179.782 34.1259V39.1148Z" fill="#FFCA42" stroke="#FFCA42" stroke-miterlimit="10"/>
<path d="M193.2 38.3848V33.3989L179.782 43.5034V48.4923L193.2 38.3848Z" fill="#FFCA42" stroke="#FFCA42" stroke-miterlimit="10"/>
<path d="M178.816 6.80457C178.788 8.21995 179.264 9.59934 180.157 10.6986L191.913 1.84886C190.667 0.842179 189.137 0.250405 187.537 0.156738L178.819 6.72011C178.819 6.75932 178.816 6.77742 178.816 6.80457Z" fill="#FFCA42" stroke="#FFCA42" stroke-miterlimit="10"/>
<path d="M186.552 13.3952C187.613 13.4095 188.668 13.2506 189.677 12.9247L193.225 10.2523C193.898 9.23499 194.248 8.03868 194.228 6.81981C194.237 6.11656 194.135 5.41631 193.926 4.74463L183.177 12.8403C184.26 13.2236 185.403 13.4116 186.552 13.3952Z" fill="#FFCA42" stroke="#FFCA42" stroke-miterlimit="10"/>
<path d="M190.073 50.118L193.2 47.7623V42.7734L183.448 50.118H190.073Z" fill="#FFCA42" stroke="#FFCA42" stroke-miterlimit="10"/>
<path d="M179.782 29.7372L193.2 19.6328V16.0947H191.272L179.782 24.7484V29.7372Z" fill="#FFCA42" stroke="#FFCA42" stroke-miterlimit="10"/>
<path d="M197.432 33.1064C197.432 33.8001 197.46 34.4767 197.516 35.1363L221.741 16.891C220.109 16.2645 218.395 15.8793 216.652 15.7478L197.643 30.063C197.505 31.0717 197.435 32.0883 197.432 33.1064Z" fill="#FFCA42" stroke="#FFCA42" stroke-miterlimit="10"/>
<path d="M229.516 29.7886L231.495 28.2986C231.16 26.9497 230.674 25.6426 230.048 24.4016L222.895 29.7886H229.516Z" fill="#FFCA42" stroke="#FFCA42" stroke-miterlimit="10"/>
<path d="M226.05 46.8002C226.921 46.0849 227.711 45.2757 228.404 44.3872L221.997 49.2132C223.461 48.6148 224.827 47.8015 226.05 46.8002Z" fill="#FFCA42" stroke="#FFCA42" stroke-miterlimit="10"/>
<path d="M199.864 42.7433L211.075 34.2978C211.045 33.9207 211.03 33.5256 211.03 33.0912C211.03 31.1206 211.342 29.6326 211.967 28.6272L198.217 38.991C198.56 40.1651 199.033 41.2972 199.628 42.3662C199.707 42.4959 199.788 42.6166 199.864 42.7433Z" fill="#FFCA42" stroke="#FFCA42" stroke-miterlimit="10"/>
<path d="M214.536 27.1342C215.966 27.1342 216.958 27.9083 217.51 29.4567L228.135 21.4636C227.511 20.7171 226.818 20.0304 226.065 19.4126C225.763 19.1713 225.461 18.942 225.158 18.7249L213.868 27.2096C214.087 27.1608 214.311 27.1355 214.536 27.1342Z" fill="#FFCA42" stroke="#FFCA42" stroke-miterlimit="10"/>
<path d="M214.536 39.0786C214.072 39.0879 213.614 38.9826 213.201 38.7721C212.788 38.5616 212.434 38.2524 212.17 37.8721L201.979 45.5455C202.935 46.5366 204.025 47.3903 205.216 48.0822L220.704 36.4153H217.618C217.093 38.1929 216.065 39.0806 214.536 39.0786Z" fill="#FFCA42" stroke="#FFCA42" stroke-miterlimit="10"/>
<path d="M214.427 50.5314L231.565 37.6218C231.658 37.2327 231.746 36.8345 231.822 36.4153H226.533L208.896 49.6868C210.692 50.2235 212.553 50.5077 214.427 50.5314Z" fill="#FFCA42" stroke="#FFCA42" stroke-miterlimit="10"/>
<path d="M205.802 17.7838C203.196 19.1578 201.053 21.2661 199.637 23.8465C199.541 24.0214 199.447 24.1964 199.356 24.3743L210.269 16.155C208.712 16.4915 207.21 17.0396 205.802 17.7838Z" fill="#FFCA42" stroke="#FFCA42" stroke-miterlimit="10"/>
<path d="M66.0037 72.9299L55.4629 80.8687C56.0456 82.2229 56.3646 83.6755 56.4027 85.1488L68.0254 76.4016C67.7413 75.7984 67.421 75.1951 67.0916 74.613C66.7622 74.0309 66.3875 73.4698 66.0037 72.9299Z" fill="#FFCA42" stroke="#FFCA42" stroke-miterlimit="10"/>
<path d="M36.9925 66.7979C36.6903 66.9759 36.37 67.1599 36.0647 67.3469L32.9853 69.6694C31.4098 71.1113 30.0609 72.782 28.9842 74.6251C28.1354 76.0631 27.4618 77.5972 26.9775 79.1947L47.1162 64.0139C43.5673 64.1218 40.0959 65.0764 36.9925 66.7979Z" fill="#FFCA42" stroke="#FFCA42" stroke-miterlimit="10"/>
<path d="M41.8582 92.7982C41.567 92.453 41.3042 92.0848 41.0725 91.6973L30.6133 99.5757C31.4393 100.63 32.3653 101.603 33.3784 102.48L43.9887 94.4903C43.172 94.0746 42.4475 93.4991 41.8582 92.7982Z" fill="#FFCA42" stroke="#FFCA42" stroke-miterlimit="10"/>
<path d="M69.268 79.8494L55.811 89.984C55.4739 91.0125 54.9437 91.9676 54.2486 92.7981C52.9129 94.3767 51.0614 95.2262 48.6942 95.3469L36.3613 104.634C36.5729 104.761 36.7784 104.893 36.9929 105.014C38.0864 105.629 39.231 106.149 40.4138 106.567L69.9752 84.3044C69.888 82.7997 69.6511 81.3073 69.268 79.8494Z" fill="#FFCA42" stroke="#FFCA42" stroke-miterlimit="10"/>
<path d="M52.45 64.385L26.0769 84.2471C26.0436 84.787 26.0225 85.3359 26.0225 85.8909C26.0222 86.9701 26.0919 88.0481 26.231 89.1183L57.1673 65.8208C55.6549 65.1642 54.0721 64.6825 52.45 64.385Z" fill="#FFCA42" stroke="#FFCA42" stroke-miterlimit="10"/>
<path d="M63.7377 70.2516C62.7659 69.2845 61.6999 68.4166 60.5555 67.6606L48.957 76.4078C50.5687 76.4795 52.1158 77.0604 53.3752 78.0667L63.7377 70.2516Z" fill="#FFCA42" stroke="#FFCA42" stroke-miterlimit="10"/>
<path d="M39.6823 85.8909C39.6788 84.9804 39.7608 84.0715 39.9271 83.1763L27.0654 92.8645C27.4785 94.1743 28.0201 95.4402 28.6822 96.6438L39.8637 88.2225C39.7394 87.4515 39.6788 86.6717 39.6823 85.8909Z" fill="#FFCA42" stroke="#FFCA42" stroke-miterlimit="10"/>
<path d="M69.8595 88.7805L44.8281 107.632C45.9068 107.778 46.9943 107.851 48.0828 107.849C49.2204 107.85 50.3566 107.77 51.4826 107.608L68.1853 95.0302C69.0536 93.0424 69.618 90.9356 69.8595 88.7805Z" fill="#FFCA42" stroke="#FFCA42" stroke-miterlimit="10"/>
<path d="M77.826 73.4036L74.8584 75.6386V80.6275L84.4472 73.4036H77.826Z" fill="#FFCA42" stroke="#FFCA42" stroke-miterlimit="10"/>
<path d="M88.2756 107.427V103.041L82.4521 107.427H88.2756Z" fill="#FFCA42" stroke="#FFCA42" stroke-miterlimit="10"/>
<path d="M111.183 107.427V104.543L107.354 107.427H111.183Z" fill="#FFCA42" stroke="#FFCA42" stroke-miterlimit="10"/>
<path d="M89.5454 85.5591C90.3916 84.616 91.5601 84.1435 93.0509 84.1415C93.6255 84.1375 94.197 84.2261 94.7433 84.4039L106.402 75.6236C105.236 74.684 103.884 74.0023 102.434 73.6238L74.8584 94.3937V99.3796L88.2822 89.2721C88.3003 87.7218 88.7214 86.4841 89.5454 85.5591Z" fill="#FFCA42" stroke="#FFCA42" stroke-miterlimit="10"/>
<path d="M88.2761 78.5916V74.9268L74.8584 85.0312V90.0081L97.1095 73.2498C95.4821 73.3936 93.9034 73.8787 92.4767 74.6734C90.7828 75.6254 89.3423 76.969 88.2761 78.5916Z" fill="#FFCA42" stroke="#FFCA42" stroke-miterlimit="10"/>
<path d="M97.3447 86.8349C97.6822 87.6489 97.8458 88.5241 97.8252 89.4048V91.4739L110.436 81.9788C110.067 80.6583 109.504 79.3999 108.765 78.2446L97.3447 86.8349Z" fill="#FFCA42" stroke="#FFCA42" stroke-miterlimit="10"/>
<path d="M111.183 87.7005C111.183 87.0611 111.16 86.4418 111.113 85.8425L97.8164 95.8505V100.836L111.183 90.7771V87.7005Z" fill="#FFCA42" stroke="#FFCA42" stroke-miterlimit="10"/>
<path d="M111.183 95.1658L97.8252 105.225V107.427H101.524L111.183 100.155V95.1658Z" fill="#FFCA42" stroke="#FFCA42" stroke-miterlimit="10"/>
<path d="M88.2761 93.6638L74.8584 103.768V107.427H76.6233L88.2761 98.6527V93.6638Z" fill="#FFCA42" stroke="#FFCA42" stroke-miterlimit="10"/>
<path d="M146.208 101.666C147.744 99.7875 148.792 97.5601 149.26 95.1809H148.517L131.732 107.828C132.016 107.828 132.298 107.849 132.588 107.849C135.268 107.88 137.921 107.313 140.354 106.19C140.533 106.109 140.702 106.018 140.877 105.931L145.634 102.351C145.821 102.127 146.017 101.901 146.208 101.666Z" fill="#FFCA42" stroke="#FFCA42" stroke-miterlimit="10"/>
<path d="M132.579 83.4778C132.808 83.4788 133.037 83.4939 133.265 83.5231L143.216 76.0337C142.703 75.6801 142.17 75.3559 141.621 75.0625C140.853 74.6638 140.057 74.323 139.239 74.043L115.232 92.1194C115.328 93.6062 115.591 95.0774 116.018 96.505L128.75 86.9163H128.408C128.811 84.624 130.201 83.4778 132.579 83.4778Z" fill="#FFCA42" stroke="#FFCA42" stroke-miterlimit="10"/>
<path d="M132.579 72.9812C130.807 72.9728 129.042 73.1918 127.326 73.6327L117.414 81.0979L117.378 81.1553C116.278 83.1668 115.584 85.3741 115.335 87.6523L134.676 73.0838C133.993 73.0204 133.298 72.9812 132.579 72.9812Z" fill="#FFCA42" stroke="#FFCA42" stroke-miterlimit="10"/>
<path d="M136.063 95.1809L122.696 105.249C122.971 105.418 123.252 105.584 123.542 105.738C124.61 106.303 125.734 106.754 126.897 107.083L142.699 95.1809H136.063Z" fill="#FFCA42" stroke="#FFCA42" stroke-miterlimit="10"/>
<path d="M139.27 92.768H145.891L149.98 89.6884C149.963 88.1527 149.772 86.6239 149.411 85.1309L139.27 92.768Z" fill="#FFCA42" stroke="#FFCA42" stroke-miterlimit="10"/>
<path d="M128.227 92.7678H133.44L148.148 81.6921C148.031 81.4599 147.91 81.2306 147.78 81.0044C147.248 80.0712 146.62 79.1957 145.906 78.3923L136.208 85.6977C136.331 86.0881 136.391 86.4952 136.387 86.9042H134.589L117.463 99.8017C118.12 100.962 118.926 102.031 119.859 102.984L129.212 95.9409C128.653 95.223 128.324 94.1643 128.227 92.7678Z" fill="#FFCA42" stroke="#FFCA42" stroke-miterlimit="10"/>
<path d="M157.722 64.7168L157.655 65.1542L158.236 64.7168H157.722Z" fill="#FFCA42" stroke="#FFCA42" stroke-miterlimit="10"/>
<path d="M155.338 80.6667L155.062 82.5127H159.508L165.779 77.7892L168.643 70.6467L155.338 80.6667Z" fill="#FFCA42" stroke="#FFCA42" stroke-miterlimit="10"/>
<path d="M164.065 64.7168L156.918 70.1008L156.078 75.7201L170.687 64.7168H164.065Z" fill="#FFCA42" stroke="#FFCA42" stroke-miterlimit="10"/>
<path d="M190.178 85.3782C189.332 85.0363 188.909 84.5236 188.909 83.8399C188.909 83.7225 188.92 83.6053 188.942 83.49L179.387 90.6838C180.357 91.6075 181.511 92.3176 182.774 92.768C182.877 92.8072 182.989 92.8434 183.098 92.8796L192.23 85.9995C191.532 85.8414 190.847 85.6338 190.178 85.3782Z" fill="#FFCA42" stroke="#FFCA42" stroke-miterlimit="10"/>
<path d="M196.751 86.9917L187.383 94.0407C187.851 94.1432 188.335 94.2428 188.839 94.3423C190.395 94.656 191.604 94.9435 192.466 95.205L201.402 88.4727C201.092 88.322 200.774 88.1871 200.45 88.0685C199.237 87.6457 198.002 87.2863 196.751 86.9917Z" fill="#FFCA42" stroke="#FFCA42" stroke-miterlimit="10"/>
<path d="M191.025 82.2714C191.952 82.2241 192.867 82.4897 193.624 83.0254C194.032 83.3474 194.36 83.7607 194.579 84.2319L203.379 77.5962C202.985 77.1548 202.563 76.7388 202.116 76.3505C201.523 75.8397 200.881 75.3881 200.2 75.0022L190.529 82.2925C190.694 82.2761 190.859 82.2691 191.025 82.2714Z" fill="#FFCA42" stroke="#FFCA42" stroke-miterlimit="10"/>
<path d="M205.787 85.182L206.694 84.5064C206.444 83.1201 205.997 81.7765 205.367 80.5159L199.163 85.182H205.787Z" fill="#FFCA42" stroke="#FFCA42" stroke-miterlimit="10"/>
<path d="M204.865 91.1692C204.702 90.9822 204.539 90.7982 204.369 90.6233L183.617 106.254L183.681 106.281C185.216 106.918 186.827 107.356 188.474 107.584L206.355 94.1161C206.084 93.0353 205.575 92.0284 204.865 91.1692Z" fill="#FFCA42" stroke="#FFCA42" stroke-miterlimit="10"/>
<path d="M188.184 95.6636H185.222L177.468 101.506C177.574 101.651 177.673 101.808 177.77 101.937C178.493 102.856 179.335 103.673 180.275 104.368L189.175 97.6664C188.619 97.1359 188.268 96.4268 188.184 95.6636Z" fill="#FFCA42" stroke="#FFCA42" stroke-miterlimit="10"/>
<path d="M191.327 72.9813C191.024 72.9813 190.722 72.9813 190.42 72.9994L176.869 83.2034C176.839 83.5321 176.821 83.8639 176.821 84.2017C176.799 85.4238 176.995 86.64 177.398 87.7941L196.346 73.5242C194.7 73.149 193.015 72.9668 191.327 72.9813Z" fill="#FFCA42" stroke="#FFCA42" stroke-miterlimit="10"/>
<path d="M199.939 106.462C202.133 105.547 203.815 104.285 204.986 102.676C205.934 101.388 206.518 99.869 206.678 98.2786L194.034 107.798C196.063 107.683 198.059 107.231 199.939 106.462Z" fill="#FFCA42" stroke="#FFCA42" stroke-miterlimit="10"/>
<path d="M175.31 95.6636C175.386 96.5722 175.568 97.4689 175.851 98.336L179.398 95.6636H175.31Z" fill="#FFCA42" stroke="#FFCA42" stroke-miterlimit="10"/>
<path d="M15.8713 7.40796L15.8018 7.59195L16.0465 7.40796H15.8713Z" fill="#FFCA42"/>
<path d="M52.0723 8.4064L52.7583 7.89062H52.0723V8.4064Z" fill="#FFCA42"/>
<path d="M15.9893 44.9603L17.7088 43.6633H16.4154L15.9893 44.9603Z" fill="#FFCA42"/>
<path d="M71.0538 27.2548V27.2307L71.0205 27.2548H71.0538Z" fill="#FFCA42"/>
<path d="M32.9854 69.6695L36.0648 67.3469C34.9682 68.0238 33.9372 68.8014 32.9854 69.6695Z" fill="#FFCA42"/>
<path d="M114.749 17.4671L116.568 16.0947H114.749V17.4671Z" fill="#FFCA42"/>
<path d="M95.6498 37.48C95.9483 37.1246 96.1908 36.7259 96.369 36.2976L92.8574 38.9429C93.3981 38.9016 93.9247 38.7506 94.4048 38.499C94.885 38.2475 95.3086 37.9007 95.6498 37.48Z" fill="#FFCA42"/>
<path d="M128.167 50.1181V49.8557L127.819 50.1181H128.167Z" fill="#FFCA42"/>
<path d="M123.543 75.0927C120.959 76.4575 118.829 78.5444 117.414 81.098L127.326 73.6328C126.012 73.969 124.742 74.459 123.543 75.0927Z" fill="#FFCA42"/>
<path d="M211.967 28.6424L213.868 27.2097C213.468 27.3031 213.093 27.4789 212.766 27.7256C212.438 27.9723 212.166 28.2846 211.967 28.6424Z" fill="#FFCA42"/>
<path d="M145.633 102.351L140.883 105.931C142.672 105.037 144.282 103.823 145.633 102.351Z" fill="#FFCA42"/>
<path d="M189.453 82.6635C189.317 82.7603 189.202 82.8833 189.114 83.0252C189.026 83.1672 188.968 83.3252 188.942 83.4899L190.52 82.3015C190.139 82.328 189.771 82.4527 189.453 82.6635Z" fill="#FFCA42"/>
</g>
<defs>
<clipPath id="clip0_1_4774">
<rect width="232" height="108" fill="white"/>
</clipPath>
</defs>
</svg>
