<svg width="40" height="44" viewBox="0 0 40 44" fill="none" xmlns="http://www.w3.org/2000/svg">
<path d="M39 30.0284V13.1303C38.9993 12.5772 38.8538 12.0339 38.5779 11.5546C38.302 11.0752 37.9054 10.6765 37.4276 10.398L22.3859 1.64419C21.6612 1.22228 20.8376 1 19.999 1C19.1604 1 18.3368 1.22228 17.6121 1.64419L2.57245 10.398C2.09457 10.6765 1.69795 11.0752 1.42207 11.5546C1.14619 12.0339 1.00067 12.5772 1 13.1303V30.0284C1.00033 30.5818 1.14568 31.1255 1.42158 31.6052C1.69748 32.085 2.09428 32.484 2.57245 32.7626L17.6141 41.5165C18.339 41.9378 19.1625 42.1597 20.001 42.1597C20.8394 42.1597 21.663 41.9378 22.3879 41.5165L37.4295 32.7626C37.9073 32.4838 38.3037 32.0846 38.5793 31.6049C38.8548 31.1252 38.9999 30.5816 39 30.0284Z" stroke="white" stroke-width="2" stroke-linecap="round" stroke-linejoin="round"/>
<path d="M19.9997 22.371V42.1627M19.9997 22.371L1.98926 11.9319M19.9997 22.371L38.7028 11.9319" stroke="white" stroke-width="2" stroke-linecap="round" stroke-linejoin="round"/>
</svg>
