<svg width="76" height="13" viewBox="0 0 76 13" fill="none" xmlns="http://www.w3.org/2000/svg">
<circle cx="69.6663" cy="6.33333" r="5.83333" stroke="#FFCA42"/>
<path d="M69.6667 12.6667C68.835 12.6667 68.0114 12.5029 67.243 12.1846C66.4746 11.8663 65.7764 11.3998 65.1883 10.8117C64.6002 10.2236 64.1337 9.52539 63.8154 8.75699C63.4971 7.9886 63.3333 7.16504 63.3333 6.33333C63.3333 5.50163 63.4971 4.67807 63.8154 3.90967C64.1337 3.14128 64.6002 2.44309 65.1883 1.85499C65.7764 1.26689 66.4746 0.800375 67.243 0.482096C68.0114 0.163816 68.835 -3.85904e-07 69.6667 -2.76839e-07L69.6667 6.33333L69.6667 12.6667Z" fill="#FFCA42"/>
<circle cx="53.8333" cy="6.33333" r="6.33333" fill="#FFCA42"/>
<circle cx="38.0003" cy="6.33333" r="6.33333" fill="#FFCA42"/>
<circle cx="22.1663" cy="6.33333" r="6.33333" fill="#FFCA42"/>
<circle cx="6.33333" cy="6.33333" r="6.33333" fill="#FFCA42"/>
</svg>
