<svg width="96" height="89" viewBox="0 0 96 89" fill="none" xmlns="http://www.w3.org/2000/svg">
<path d="M18.0163 11.1751H20.158L23.1144 19.7715H21.0819L20.4982 17.8481H17.6677L17.084 19.7715H15.0514L18.0163 11.1751ZM20.0824 16.479L19.0829 13.174L18.0834 16.479H20.0824Z" fill="#1B3764"/>
<path d="M33.1637 19.7713V14.6479L31.3117 18.377H30.2198L28.3678 14.6479V19.7713H26.3815V11.1749H28.5358L30.7616 15.6684L32.9999 11.1749H35.1416V19.7713H33.1637Z" fill="#1B3764"/>
<path d="M41.3865 11.1749H43.5282L46.4847 19.7713H44.4521L43.8684 17.8479H41.0379L40.4542 19.7713H38.4216L41.3865 11.1749ZM43.4526 16.4789L42.4531 13.1739L41.4537 16.4789H43.4526Z" fill="#1B3764"/>
<path d="M49.2692 18.2847L53.6535 12.9219H49.4414V11.1791H56.0388V12.6699L51.8603 18.0327H56.085V19.7755H49.2692V18.2847Z" fill="#1B3764"/>
<path d="M65.7857 18.0285V19.7713H59.7427V11.1749H65.6766V12.9177H61.729V14.5891H65.118V16.2017H61.729V18.0285H65.7857Z" fill="#1B3764"/>
<path d="M71.4045 14.8579V19.7755H69.4182V11.1749H70.993L74.9783 16.2353V11.1749H76.9647V19.7713H75.3436L71.4045 14.8579Z" fill="#1B3764"/>
<path d="M24.3196 29.9215C24.3196 29.3965 24.4162 28.8842 24.6094 28.376C24.8025 27.8721 25.0839 27.4144 25.4577 27.0028C25.8272 26.5913 26.2808 26.2637 26.8141 26.0159C27.3474 25.7682 27.9522 25.6464 28.6283 25.6464C29.4346 25.6464 30.1359 25.8185 30.728 26.1671C31.3202 26.5157 31.7653 26.965 32.0551 27.5235L30.5307 28.5902C30.4005 28.2837 30.2283 28.0443 30.0141 27.8763C29.7999 27.7083 29.5648 27.5865 29.3128 27.5193C29.0566 27.4521 28.8131 27.4144 28.5821 27.4144C28.2041 27.4144 27.8724 27.4899 27.591 27.6369C27.3096 27.7881 27.0745 27.9855 26.8897 28.2375C26.7049 28.4894 26.5663 28.7666 26.4781 29.0732C26.39 29.3797 26.3438 29.6863 26.3438 29.9928C26.3438 30.333 26.3942 30.6606 26.4991 30.9755C26.6041 31.2905 26.7553 31.5677 26.9527 31.8112C27.1501 32.0548 27.3894 32.2438 27.675 32.3866C27.9564 32.5293 28.2671 32.5965 28.6073 32.5965C28.8509 32.5965 29.0944 32.5545 29.3464 32.4748C29.5984 32.395 29.8293 32.2648 30.0435 32.0926C30.2577 31.9204 30.4215 31.6894 30.5349 31.4081L32.1559 32.3656C31.9879 32.7855 31.7065 33.1425 31.3202 33.4448C30.9338 33.743 30.4929 33.9698 30.0057 34.1294C29.5186 34.2847 29.0356 34.3645 28.5569 34.3645C27.9354 34.3645 27.3642 34.2385 26.8435 33.9824C26.3228 33.7262 25.8734 33.3902 25.4997 32.9661C25.1259 32.5419 24.8319 32.0674 24.6262 31.5383C24.4246 31.0091 24.3196 30.4674 24.3196 29.9215Z" fill="#1B3764"/>
<path d="M39.2157 34.3641C38.569 34.3641 37.9853 34.2423 37.4646 33.9945C36.9438 33.7467 36.4945 33.4192 36.1207 33.0034C35.747 32.5877 35.4572 32.1215 35.2556 31.6008C35.054 31.08 34.9533 30.5425 34.9533 29.984C34.9533 29.4128 35.0582 28.8669 35.2724 28.3504C35.4866 27.8338 35.7848 27.3719 36.1669 26.9645C36.5491 26.5572 37.0026 26.238 37.5276 26.0028C38.0525 25.7677 38.6236 25.6501 39.2451 25.6501C39.8835 25.6501 40.463 25.7719 40.9837 26.0196C41.5045 26.2674 41.9538 26.5992 42.3276 27.0191C42.7013 27.4391 42.9911 27.9094 43.1927 28.4302C43.3943 28.9509 43.495 29.48 43.495 30.0218C43.495 30.5971 43.3901 31.1388 43.1801 31.6554C42.9701 32.1719 42.6719 32.6339 42.2856 33.0412C41.8992 33.4486 41.4457 33.7719 40.9249 34.0113C40.4084 34.2465 39.8373 34.3641 39.2157 34.3641ZM36.9732 30.005C36.9732 30.3367 37.0236 30.6559 37.1202 30.9667C37.2168 31.2774 37.3596 31.5546 37.5485 31.794C37.7375 32.0375 37.9727 32.2307 38.2583 32.3735C38.5396 32.5205 38.863 32.5919 39.2283 32.5919C39.6063 32.5919 39.9381 32.5163 40.2194 32.3693C40.5008 32.2223 40.736 32.0207 40.9207 31.7688C41.1055 31.5168 41.2441 31.2396 41.3365 30.9289C41.4289 30.6181 41.4751 30.3031 41.4751 29.9798C41.4751 29.648 41.4289 29.3289 41.3281 29.0223C41.2315 28.7157 41.0845 28.4386 40.8914 28.1908C40.6982 27.943 40.4588 27.754 40.1774 27.6155C39.8961 27.4769 39.5769 27.4097 39.2199 27.4097C38.842 27.4097 38.5102 27.4811 38.2331 27.6281C37.9559 27.775 37.7207 27.9682 37.5318 28.216C37.3428 28.4638 37.2 28.7409 37.1076 29.0517C37.0194 29.3666 36.9732 29.6816 36.9732 30.005Z" fill="#1B3764"/>
<path d="M47.0725 34.3012V25.7048H50.9487C51.3518 25.7048 51.7256 25.7888 52.0699 25.9526C52.4143 26.1163 52.7083 26.3389 52.9602 26.6203C53.2122 26.8974 53.4054 27.2124 53.5482 27.561C53.6909 27.9095 53.7581 28.2581 53.7581 28.615C53.7581 28.972 53.7035 29.308 53.5902 29.6271C53.4768 29.9463 53.3172 30.2318 53.1072 30.488C52.8972 30.7442 52.6453 30.95 52.3555 31.1095L54.2453 34.3054H52.0531L50.4069 31.5337H49.0631V34.3054H47.0725V34.3012ZM49.0589 29.7993H50.8773C51.0369 29.7993 51.1838 29.7489 51.3056 29.6481C51.4316 29.5473 51.5324 29.4087 51.6122 29.2324C51.692 29.056 51.734 28.8502 51.734 28.615C51.734 28.3799 51.6878 28.1783 51.5954 28.0019C51.503 27.8297 51.3854 27.6911 51.251 27.5946C51.1124 27.498 50.9697 27.4476 50.8143 27.4476H49.0589V29.7993Z" fill="#1B3764"/>
<path d="M57.6095 34.3012V25.7048H61.2799C61.6914 25.7048 62.0694 25.7888 62.4137 25.9526C62.7581 26.1163 63.052 26.3389 63.304 26.6203C63.556 26.8974 63.7492 27.2124 63.8835 27.561C64.0221 27.9095 64.0893 28.2623 64.0893 28.6276C64.0893 29.119 63.9759 29.5893 63.745 30.0303C63.514 30.4754 63.1948 30.8366 62.7875 31.1137C62.3801 31.3909 61.8972 31.5295 61.3386 31.5295H59.5959V34.3012H57.6095ZM59.5917 29.7993H61.2127C61.3638 29.7993 61.5066 29.7531 61.6368 29.6649C61.767 29.5767 61.872 29.4423 61.9518 29.266C62.0316 29.0896 62.0736 28.8712 62.0736 28.6108C62.0736 28.3463 62.0274 28.1237 61.935 27.9515C61.8426 27.7793 61.725 27.6492 61.5822 27.5694C61.4394 27.4896 61.2924 27.4476 61.1413 27.4476H59.5917V29.7993Z" fill="#1B3764"/>
<path d="M66.5788 34.3016V32.3278H68.1662V34.3016H66.5788Z" fill="#1B3764"/>
<path d="M18.9142 70.0306V70.2154C18.7294 70.2532 18.5866 70.3162 18.4943 70.4086C18.3977 70.501 18.3347 70.6437 18.3053 70.8369C18.2759 71.0301 18.2591 71.3031 18.2591 71.6558V76.5818C18.1667 76.5692 18.0659 76.5651 17.9567 76.5651C17.8475 76.5651 17.7341 76.5692 17.6082 76.5818L13.5095 72.101V74.7677C13.5095 75.1792 13.5262 75.4984 13.5598 75.7167C13.5934 75.9351 13.6774 76.0947 13.8076 76.1871C13.942 76.2837 14.152 76.3509 14.4417 76.3971V76.5818C14.32 76.5692 14.1562 76.5608 13.9588 76.5566C13.7614 76.5524 13.5766 76.5524 13.4045 76.5524C13.2701 76.5524 13.1315 76.5524 12.9887 76.5566C12.8459 76.5608 12.7283 76.5692 12.636 76.5818V76.3971C12.8291 76.3551 12.9677 76.2879 13.0601 76.1997C13.1525 76.1115 13.2155 75.9687 13.2449 75.7713C13.2743 75.574 13.2911 75.301 13.2911 74.9566V71.0133C13.2911 70.7865 13.2743 70.6186 13.2449 70.5094C13.2155 70.4002 13.1525 70.3288 13.0559 70.2868C12.9593 70.2448 12.8207 70.2238 12.636 70.2154V70.0306C12.7283 70.0348 12.8459 70.0432 12.9887 70.0474C13.1315 70.0516 13.2701 70.0558 13.4045 70.0558C13.5598 70.0558 13.711 70.0516 13.858 70.0474C14.005 70.0432 14.1394 70.0348 14.257 70.0306L18.0449 74.0285V71.8448C18.0449 71.4333 18.0281 71.1141 17.9945 70.8957C17.9609 70.6774 17.8769 70.5178 17.7509 70.4212C17.6208 70.3246 17.4066 70.2532 17.1126 70.2196V70.0348C17.2344 70.039 17.3982 70.0474 17.5956 70.0516C17.7929 70.0558 17.9777 70.06 18.1499 70.06C18.2927 70.06 18.4313 70.0558 18.5699 70.0516C18.7042 70.0432 18.8218 70.0348 18.9142 70.0306Z" fill="#1B3764"/>
<path d="M26.8845 70.0306C26.8593 70.3372 26.8425 70.6354 26.8341 70.9251C26.8257 71.2107 26.8215 71.4333 26.8215 71.5886C26.8215 71.7188 26.8257 71.8406 26.8299 71.9582C26.8341 72.0758 26.8425 72.1724 26.8467 72.2564H26.6326C26.557 71.744 26.4352 71.3409 26.263 71.0469C26.0908 70.7529 25.8893 70.5472 25.6583 70.4254C25.4273 70.3036 25.1837 70.2448 24.9318 70.2448H24.81C24.6504 70.2448 24.5286 70.2574 24.4488 70.2868C24.369 70.3162 24.3144 70.3666 24.285 70.4506C24.2557 70.5304 24.2431 70.6564 24.2431 70.8285V75.7881C24.2431 75.9561 24.2557 76.0779 24.285 76.1619C24.3144 76.2459 24.3648 76.3005 24.4488 76.3299C24.5286 76.3593 24.6504 76.3719 24.81 76.3719H25.1165C25.3181 76.3719 25.5365 76.3047 25.7591 76.1745C25.9858 76.0401 26.1916 75.8133 26.3848 75.4942C26.578 75.175 26.7208 74.7341 26.8215 74.1797H27.0357C27.0189 74.4023 27.0063 74.6879 27.0063 75.0322C27.0063 75.1876 27.0105 75.406 27.0147 75.6958C27.0189 75.9813 27.0399 76.2795 27.0693 76.5902C26.7544 76.5776 26.4016 76.5692 26.0068 76.5651C25.6121 76.5609 25.2593 76.5608 24.9528 76.5608C24.7302 76.5608 24.432 76.5608 24.0583 76.5608C23.6845 76.5608 23.2898 76.5609 22.874 76.5651C22.4583 76.5692 22.0719 76.5776 21.7108 76.5902V76.4055C21.9039 76.3929 22.0425 76.3677 22.1349 76.3299C22.2273 76.2921 22.2903 76.2207 22.3197 76.1073C22.3491 75.9981 22.3659 75.8301 22.3659 75.6076V71.0133C22.3659 70.7865 22.3491 70.6186 22.3197 70.5094C22.2903 70.4002 22.2273 70.3288 22.1307 70.2868C22.0341 70.2448 21.8955 70.2238 21.7108 70.2154V70.0306C22.0677 70.0348 22.4541 70.0432 22.874 70.0474C23.2898 70.0516 23.6845 70.0558 24.0583 70.0558C24.432 70.0558 24.7302 70.0558 24.9528 70.0558C25.2383 70.0558 25.5575 70.0558 25.9187 70.0516C26.2756 70.0516 26.599 70.0432 26.8845 70.0306ZM25.5407 73.197V73.3818H23.9659V73.197H25.5407ZM25.8095 71.975C25.7843 72.3278 25.7759 72.5965 25.7759 72.7813C25.7801 72.9661 25.7801 73.1341 25.7801 73.2894C25.7801 73.4448 25.7843 73.6128 25.7885 73.7976C25.7927 73.9824 25.8095 74.2511 25.8347 74.6039H25.6205C25.5827 74.3771 25.5071 74.1671 25.3937 73.9824C25.2803 73.7976 25.1333 73.6506 24.9528 73.5414C24.7722 73.4322 24.5664 73.3776 24.3312 73.3776V73.1928C24.5664 73.1928 24.768 73.1299 24.9402 72.9997C25.1123 72.8695 25.2551 72.7099 25.3643 72.5209C25.4735 72.332 25.5491 72.1514 25.5869 71.9708H25.8095V71.975Z" fill="#1B3764"/>
<path d="M32.3821 70.0306V70.2154C32.2771 70.2322 32.2057 70.2868 32.1721 70.3792C32.1385 70.4674 32.1301 70.5724 32.1427 70.6857C32.1595 70.7991 32.1805 70.9041 32.2141 70.9965L33.6126 74.9314L33.3522 75.3304L34.4609 72.3236L34.591 72.5923L33.1758 76.5902C33.1002 76.586 33.0246 76.5776 32.9406 76.5776C32.8567 76.5776 32.7727 76.5734 32.6845 76.5734C32.6047 76.5734 32.5207 76.5734 32.4409 76.5776C32.3569 76.5818 32.2771 76.586 32.2057 76.5902L30.0598 70.8159C29.98 70.6018 29.8918 70.4506 29.791 70.3624C29.6944 70.2742 29.5978 70.228 29.5138 70.2238V70.039C29.7364 70.0432 29.9968 70.0516 30.295 70.0558C30.5931 70.06 30.8787 70.0642 31.1517 70.0642C31.4246 70.0642 31.664 70.06 31.874 70.0558C32.0839 70.0432 32.2519 70.0348 32.3821 70.0306ZM39.0761 70.0306V70.2154C38.9333 70.2826 38.7863 70.417 38.631 70.6144C38.4756 70.8117 38.337 71.1099 38.2152 71.513L36.6614 76.586C36.5858 76.5818 36.5102 76.5734 36.4262 76.5734C36.3422 76.5734 36.2582 76.5692 36.1701 76.5692C36.0903 76.5692 36.0063 76.5692 35.9265 76.5734C35.8425 76.5776 35.7627 76.5818 35.6913 76.586L33.7469 70.6522C33.6966 70.4926 33.6336 70.3792 33.5538 70.3204C33.474 70.2574 33.3816 70.2238 33.2766 70.2196V70.0348C33.4866 70.039 33.7343 70.0474 34.0157 70.0516C34.3013 70.0558 34.5868 70.06 34.8766 70.06C35.1664 70.06 35.4393 70.0558 35.6955 70.0516C35.9517 70.0474 36.1575 70.039 36.3128 70.0348V70.2196C36.1197 70.2238 35.9727 70.249 35.8677 70.291C35.7627 70.333 35.7039 70.4044 35.6871 70.5136C35.6703 70.6228 35.6997 70.7823 35.7753 71.0007L37.0436 74.8517L36.7748 75.4144L37.7113 72.4243C37.8835 71.8742 37.9674 71.4417 37.959 71.1225C37.9548 70.8033 37.8793 70.5766 37.7365 70.438C37.5937 70.2994 37.4005 70.228 37.1527 70.2196V70.0348C37.3879 70.039 37.5937 70.0474 37.7785 70.0516C37.959 70.0558 38.1564 70.06 38.3664 70.06C38.4882 70.06 38.6142 70.0558 38.7444 70.0516C38.8703 70.0432 38.9837 70.0348 39.0761 70.0306Z" fill="#1B3764"/>
<path d="M51.2207 70.0226V70.2073C51.0779 70.2745 50.9267 70.4047 50.7671 70.5895C50.6075 70.7743 50.4312 71.0598 50.238 71.4378L48.5708 74.7428H47.9492L45.7823 70.7365C45.6773 70.5391 45.5807 70.4047 45.4883 70.3291C45.396 70.2535 45.3162 70.2199 45.249 70.2199V70.0268C45.4421 70.0436 45.6395 70.0604 45.8453 70.0688C46.0511 70.0772 46.2778 70.0814 46.5256 70.0814C46.8406 70.0814 47.1807 70.0772 47.5503 70.0646C47.9157 70.052 48.2558 70.0394 48.5624 70.0268V70.2199C48.407 70.2199 48.2642 70.2241 48.1382 70.2367C48.008 70.2493 47.9157 70.2787 47.8611 70.3249C47.8065 70.3711 47.8065 70.4509 47.8611 70.5685L49.2595 73.252L48.8227 73.8273L49.5997 72.2735C49.86 71.7612 50.0028 71.358 50.028 71.0598C50.0574 70.7659 50.0028 70.5475 49.8642 70.4173C49.7298 70.2829 49.5367 70.2157 49.2889 70.2073V70.0226C49.5241 70.0268 49.7298 70.0352 49.9146 70.0394C50.0952 70.0436 50.2926 70.0478 50.5025 70.0478C50.6243 70.0478 50.7503 70.0436 50.8805 70.0394C51.0149 70.0352 51.1283 70.0268 51.2207 70.0226ZM49.3771 72.9454V75.6037C49.3771 75.8263 49.3939 75.9943 49.4275 76.1034C49.4611 76.2126 49.5241 76.2882 49.6165 76.326C49.7088 76.3638 49.8474 76.389 50.0322 76.4016V76.5864C49.8516 76.5738 49.6165 76.5654 49.3183 76.5612C49.0243 76.557 48.7304 76.557 48.4406 76.557C48.1256 76.557 47.8233 76.557 47.5293 76.5612C47.2353 76.5654 47.0044 76.5738 46.8406 76.5864V76.4016C47.0338 76.389 47.1723 76.3638 47.2647 76.326C47.3571 76.2882 47.4201 76.2168 47.4495 76.1034C47.4789 75.9943 47.4957 75.8263 47.4957 75.6037V73.7055L48.5036 74.2809L49.3771 72.9454Z" fill="#1B3764"/>
<path d="M56.9781 69.9008C57.6752 69.9008 58.2883 70.0352 58.809 70.2998C59.334 70.5644 59.7413 70.9465 60.0311 71.4421C60.3209 71.9376 60.4678 72.5423 60.4678 73.252C60.4678 73.945 60.3209 74.5497 60.0227 75.0662C59.7245 75.5828 59.313 75.9901 58.788 76.2799C58.2589 76.5696 57.6542 76.7166 56.9697 76.7166C56.2725 76.7166 55.6594 76.5822 55.1387 76.3177C54.6137 76.0531 54.2064 75.671 53.9166 75.1712C53.6269 74.6715 53.4799 74.0709 53.4799 73.3654C53.4799 72.6725 53.6311 72.0678 53.9292 71.5512C54.2274 71.0347 54.6389 70.6274 55.1639 70.3376C55.6888 70.0478 56.2935 69.9008 56.9781 69.9008ZM56.9403 70.0688C56.6337 70.0688 56.3649 70.2074 56.134 70.4846C55.9072 70.7617 55.7308 71.1439 55.6048 71.631C55.483 72.1182 55.42 72.6851 55.42 73.3234C55.42 73.9786 55.4914 74.5455 55.6342 75.0326C55.777 75.5156 55.966 75.8893 56.2096 76.1539C56.4489 76.4143 56.7135 76.5486 57.0075 76.5486C57.314 76.5486 57.5828 76.4101 57.8138 76.1329C58.0405 75.8557 58.2169 75.4694 58.3429 74.9822C58.4647 74.4909 58.5277 73.9282 58.5277 73.294C58.5277 72.6347 58.4563 72.0636 58.3135 71.5806C58.1707 71.0977 57.9817 70.7281 57.7382 70.4636C57.4946 70.199 57.23 70.0688 56.9403 70.0688Z" fill="#1B3764"/>
<path d="M63.2989 70.0306C63.4795 70.0348 63.7147 70.0432 64.0087 70.0474C64.3026 70.0516 64.5966 70.0558 64.8947 70.0558C65.2013 70.0558 65.4995 70.0516 65.785 70.0474C66.0706 70.0432 66.268 70.039 66.3856 70.039C67.3221 70.039 68.0234 70.1692 68.4811 70.4338C68.9389 70.6941 69.1698 71.1015 69.1698 71.6516C69.1698 71.8784 69.1236 72.101 69.0313 72.3194C68.9389 72.5335 68.7835 72.7309 68.5609 72.9073C68.3383 73.0837 68.036 73.2222 67.6496 73.323C67.2633 73.4238 66.7761 73.4742 66.184 73.4742H65.2937V73.2894H66.0916C66.4066 73.2894 66.6459 73.218 66.8097 73.0795C66.9735 72.9409 67.0827 72.7561 67.1415 72.5251C67.2003 72.2942 67.2297 72.038 67.2297 71.7524C67.2297 71.2653 67.1625 70.8873 67.0323 70.6186C66.8979 70.3498 66.6711 70.2154 66.3436 70.2154C66.1336 70.2154 65.9992 70.2658 65.9362 70.3708C65.8732 70.4758 65.8438 70.6899 65.8438 71.0091V75.5992C65.8438 75.8217 65.8606 75.9897 65.8942 76.0989C65.9278 76.2081 65.9908 76.2837 66.0832 76.3215C66.1756 76.3593 66.3142 76.3845 66.499 76.3971V76.5818C66.3184 76.5692 66.0916 76.5608 65.8102 76.5566C65.5289 76.5524 65.2433 76.5524 64.9535 76.5524C64.6218 76.5524 64.3068 76.5524 64.0129 76.5566C63.7189 76.5608 63.4837 76.5692 63.3031 76.5818V76.3971C63.4963 76.3845 63.6349 76.3593 63.7273 76.3215C63.8197 76.2837 63.8827 76.2123 63.9121 76.0989C63.9415 75.9897 63.9583 75.8217 63.9583 75.5992V71.0133C63.9583 70.7865 63.9415 70.6186 63.9121 70.5094C63.8827 70.4002 63.8197 70.3288 63.7231 70.2868C63.6265 70.2448 63.4879 70.2238 63.3031 70.2154V70.0306H63.2989ZM65.2349 73.3146C65.4575 73.3188 65.6675 73.3314 65.8648 73.3524C66.0622 73.3692 66.2428 73.386 66.4108 73.4028C66.5787 73.4196 66.7173 73.428 66.8349 73.4364C67.4942 73.4658 67.9898 73.5834 68.3215 73.7808C68.6533 73.9782 68.8549 74.2679 68.9263 74.6501L69.1194 75.6118C69.1698 75.8385 69.2244 75.9981 69.2874 76.0821C69.3504 76.1703 69.4344 76.2123 69.5394 76.2123C69.6024 76.2123 69.6528 76.2039 69.6948 76.1829C69.7368 76.1661 69.783 76.1325 69.825 76.0905L69.9467 76.2123C69.7536 76.4055 69.5478 76.5356 69.321 76.607C69.0943 76.6784 68.8423 76.712 68.5567 76.712C68.1536 76.712 67.8302 76.6406 67.5866 76.4937C67.3389 76.3467 67.1877 76.0863 67.1331 75.7125L66.9945 74.7887C66.9567 74.5367 66.9105 74.3099 66.8559 74.1125C66.8013 73.9152 66.7257 73.7598 66.6333 73.6464C66.541 73.533 66.415 73.4742 66.2554 73.4742H65.2559L65.2349 73.3146Z" fill="#1B3764"/>
<path d="M75.4817 70.0306V70.2154C75.2969 70.2196 75.1583 70.2448 75.0617 70.2868C74.9651 70.3288 74.9021 70.4002 74.8727 70.5094C74.8433 70.6186 74.8265 70.7865 74.8265 71.0133V75.6034C74.8265 75.8259 74.8433 75.9939 74.8769 76.1031C74.9105 76.2123 74.9735 76.2879 75.0659 76.3257C75.1583 76.3635 75.2969 76.3887 75.4817 76.4013V76.586C75.3011 76.5734 75.0743 76.565 74.7929 76.5608C74.5116 76.5566 74.226 76.5566 73.9362 76.5566C73.6045 76.5566 73.2895 76.5566 72.9955 76.5608C72.7016 76.565 72.4664 76.5734 72.2858 76.586V76.4013C72.479 76.3887 72.6176 76.3635 72.71 76.3257C72.8024 76.2879 72.8654 76.2165 72.8948 76.1031C72.9242 75.9939 72.941 75.8259 72.941 75.6034V71.0133C72.941 70.7865 72.9242 70.6186 72.8948 70.5094C72.8654 70.4002 72.8024 70.3288 72.7058 70.2868C72.6092 70.2448 72.4706 70.2238 72.2858 70.2154V70.0306C72.4664 70.0348 72.7016 70.0432 72.9955 70.0474C73.2895 70.0516 73.6003 70.0558 73.9362 70.0558C74.226 70.0558 74.5116 70.0516 74.7929 70.0474C75.0743 70.0432 75.3011 70.0348 75.4817 70.0306ZM78.8706 70.0306V70.207C78.6607 70.2616 78.4297 70.3624 78.1735 70.5136C77.9174 70.6606 77.6444 70.8999 77.3546 71.2275L75.6496 73.1635L76.4013 72.1808L78.5935 75.8385C78.6733 75.9687 78.7531 76.0779 78.8329 76.1619C78.9126 76.2501 79.0218 76.3299 79.1562 76.4013V76.586C78.8958 76.5734 78.6229 76.565 78.3289 76.5608C78.0349 76.5566 77.7578 76.5566 77.4932 76.5566C77.3504 76.5566 77.174 76.5566 76.9641 76.5608C76.7541 76.565 76.4895 76.5734 76.1662 76.586V76.4013C76.4559 76.3887 76.6239 76.3551 76.6701 76.3005C76.7163 76.2459 76.6953 76.1409 76.5987 75.9855L75.2549 73.7178C75.1919 73.6086 75.1373 73.5246 75.0869 73.47C75.0365 73.4154 74.9903 73.3734 74.9441 73.3482C74.8979 73.323 74.8391 73.3062 74.7635 73.302V73.1089C75.0365 73.0963 75.2927 73.0039 75.532 72.8359C75.7714 72.6679 76.0612 72.3907 76.4013 72.0086L76.7163 71.6558C76.9767 71.3661 77.1111 71.1141 77.1279 70.8999C77.1447 70.6857 77.0775 70.522 76.9347 70.4002C76.7877 70.2784 76.5987 70.2154 76.3635 70.2112V70.0348C76.6239 70.039 76.8633 70.0474 77.0817 70.0516C77.3 70.0558 77.5814 70.06 77.93 70.06C78.3121 70.06 78.6229 70.0474 78.8706 70.0306Z" fill="#1B3764"/>
<path d="M95.2363 89H0V0H95.2363V89ZM0.512339 88.4877H94.7197V0.512339H0.512339V88.4877Z" fill="#1B3764"/>
<path d="M95.2241 58.3773H0.00879057V58.9023H95.2241V58.3773Z" fill="#1B3764"/>
<path d="M47.1692 49.3445C39.5639 49.3445 34.2053 45.5103 34.1255 45.4515C33.7812 45.1995 33.7098 44.7166 33.9576 44.3722C34.2095 44.0279 34.6925 43.9565 35.0368 44.2043C35.4946 44.536 46.3587 52.2673 59.1084 44.1749C59.4695 43.9481 59.9441 44.0531 60.175 44.4142C60.4018 44.7754 60.2968 45.2499 59.9357 45.4809C55.3708 48.3744 50.9865 49.3445 47.1692 49.3445Z" fill="#1B3764"/>
<path d="M34.6457 45.2291C34.3308 45.2291 34.0326 45.0318 33.9192 44.7168C33.7764 44.3178 33.9822 43.8727 34.3854 43.7299L39.3324 41.9577C39.7355 41.8149 40.1765 42.0207 40.3193 42.4239C40.4621 42.8228 40.2563 43.268 39.8531 43.4107L34.9061 45.1829C34.8221 45.2165 34.7339 45.2291 34.6457 45.2291Z" fill="#1B3764"/>
<path d="M36.7671 50.9101C36.4647 50.9101 36.1791 50.7337 36.0573 50.4398L33.777 45.035C33.6132 44.6444 33.7938 44.1909 34.1886 44.0229C34.5791 43.8591 35.0327 44.0397 35.2007 44.4345L37.481 49.8392C37.6448 50.2298 37.4642 50.6833 37.0694 50.8513C36.9686 50.8933 36.8679 50.9101 36.7671 50.9101Z" fill="#1B3764"/>
</svg>
