<svg width="141" height="89" viewBox="0 0 141 89" fill="none" xmlns="http://www.w3.org/2000/svg">
<path d="M0 49.9753V44.9284H1.16729V48.9485H3.61326V49.9705H0V49.9753Z" fill="#1B3764"/>
<path d="M7.69171 50.0089C7.31392 50.0089 6.97003 49.9363 6.66489 49.7909C6.35975 49.6456 6.0982 49.4519 5.8754 49.2097C5.65259 48.9675 5.48792 48.6915 5.36683 48.3863C5.25058 48.0812 5.18762 47.7664 5.18762 47.437C5.18762 47.1028 5.25058 46.7831 5.37651 46.478C5.50245 46.1728 5.67681 45.9016 5.89961 45.6643C6.12242 45.4269 6.38881 45.238 6.69879 45.0976C7.00393 44.962 7.34298 44.8893 7.70624 44.8893C8.07919 44.8893 8.41824 44.962 8.72822 45.1073C9.03336 45.2526 9.29491 45.4463 9.51771 45.6933C9.73567 45.9404 9.9052 46.2164 10.0263 46.5216C10.1425 46.8267 10.2055 47.1367 10.2055 47.4564C10.2055 47.7906 10.1425 48.1102 10.0214 48.4154C9.90035 48.7205 9.72114 48.9918 9.4935 49.2291C9.26585 49.4664 8.99946 49.6602 8.69432 49.7958C8.39402 49.9411 8.05982 50.0089 7.69171 50.0089ZM6.37912 47.4515C6.37912 47.6453 6.40818 47.8342 6.4663 48.0182C6.52443 48.2023 6.60677 48.3621 6.71817 48.5026C6.82957 48.643 6.97003 48.7593 7.13471 48.8416C7.29939 48.9288 7.48828 48.9675 7.7014 48.9675C7.9242 48.9675 8.11794 48.924 8.28262 48.8368C8.4473 48.7496 8.58776 48.6333 8.69432 48.4832C8.80088 48.333 8.88321 48.1732 8.94134 47.9892C8.99462 47.8051 9.02368 47.6211 9.02368 47.4322C9.02368 47.2384 8.99462 47.0495 8.93649 46.8703C8.87837 46.6911 8.79603 46.5264 8.67979 46.386C8.56354 46.2455 8.42793 46.1293 8.2584 46.0469C8.09372 45.9646 7.90483 45.9258 7.69656 45.9258C7.47375 45.9258 7.28001 45.9694 7.11533 46.0518C6.95065 46.1389 6.81504 46.2503 6.70364 46.3956C6.59224 46.541 6.5099 46.7056 6.45662 46.8848C6.40818 47.0737 6.37912 47.2626 6.37912 47.4515Z" fill="#1B3764"/>
<path d="M15.3002 46.415C15.2857 46.3908 15.2372 46.3521 15.1501 46.3036C15.0629 46.2552 14.9563 46.2019 14.8304 46.1438C14.7045 46.0857 14.564 46.0372 14.409 45.9936C14.2589 45.95 14.1039 45.9307 13.9537 45.9307C13.7551 45.9307 13.6001 45.9646 13.4936 46.0324C13.3822 46.1002 13.3289 46.2067 13.3289 46.3472C13.3289 46.4586 13.3725 46.5506 13.4548 46.6136C13.5372 46.6814 13.6583 46.7347 13.8133 46.788C13.9682 46.8364 14.162 46.8945 14.3896 46.9623C14.7141 47.0447 14.9902 47.1512 15.2276 47.2675C15.4649 47.3886 15.6441 47.5436 15.77 47.7276C15.896 47.9117 15.9589 48.1635 15.9589 48.4735C15.9589 48.7544 15.9057 48.9966 15.8039 49.1903C15.7022 49.3841 15.5569 49.5439 15.3826 49.665C15.2033 49.7861 15.0048 49.8733 14.7771 49.9266C14.5495 49.9798 14.317 50.0089 14.0748 50.0089C13.8278 50.0089 13.5759 49.9847 13.3192 49.9362C13.0625 49.8878 12.8155 49.8152 12.5782 49.7231C12.3408 49.6311 12.1229 49.5197 11.9243 49.3841L12.4377 48.367C12.4571 48.3912 12.52 48.4348 12.6218 48.4977C12.7235 48.5607 12.8542 48.6285 13.0092 48.6963C13.1642 48.7641 13.3337 48.8271 13.5226 48.8755C13.7115 48.9288 13.9053 48.953 14.099 48.953C14.3073 48.953 14.4623 48.9191 14.564 48.8561C14.6657 48.7932 14.719 48.7012 14.719 48.5849C14.719 48.459 14.6657 48.3573 14.5592 48.2895C14.4526 48.2168 14.3073 48.1538 14.1281 48.1006C13.944 48.0424 13.7358 47.9795 13.4984 47.9117C13.1884 47.8196 12.9366 47.7131 12.7332 47.592C12.5297 47.4757 12.3844 47.3304 12.2876 47.1609C12.1907 46.9914 12.1422 46.7783 12.1422 46.5264C12.1422 46.1728 12.2246 45.8774 12.3941 45.6304C12.5636 45.3882 12.7864 45.2041 13.0722 45.0782C13.358 44.9523 13.668 44.8893 14.0022 44.8893C14.2395 44.8893 14.4671 44.9184 14.6899 44.9765C14.9127 45.0346 15.1162 45.1024 15.3099 45.1896C15.5036 45.2768 15.6732 45.3591 15.8233 45.4463L15.3002 46.415Z" fill="#1B3764"/>
<path d="M125.244 46.0722V48.9589H124.077V43.912H125.002L127.341 46.8811V43.912H128.509V48.9541H127.559L125.244 46.0722Z" fill="#1B3764"/>
<path d="M131.671 43.912L132.756 46.1448L133.855 43.912H135.134L133.337 47.2346V48.9541H132.18V47.225L130.412 43.9168H131.671V43.912Z" fill="#1B3764"/>
<path d="M136.404 46.3866C136.404 46.0766 136.462 45.7763 136.573 45.4809C136.685 45.1854 136.854 44.9142 137.072 44.6768C137.29 44.4347 137.556 44.2409 137.866 44.0956C138.181 43.9503 138.535 43.8777 138.932 43.8777C139.407 43.8777 139.818 43.9794 140.162 44.1828C140.506 44.3862 140.768 44.6526 140.942 44.9771L140.046 45.602C139.968 45.4227 139.872 45.2823 139.746 45.1806C139.62 45.0789 139.484 45.011 139.334 44.9723C139.184 44.9336 139.043 44.9142 138.903 44.9142C138.68 44.9142 138.486 44.9578 138.322 45.045C138.157 45.1321 138.017 45.2484 137.91 45.3985C137.799 45.5438 137.721 45.7085 137.668 45.8877C137.615 46.0669 137.59 46.2461 137.59 46.4254C137.59 46.6239 137.619 46.8177 137.682 47.0017C137.745 47.1858 137.832 47.3505 137.949 47.4909C138.065 47.6314 138.205 47.7476 138.37 47.83C138.535 47.9123 138.719 47.9559 138.917 47.9559C139.058 47.9559 139.203 47.9317 139.353 47.8832C139.499 47.8348 139.634 47.7622 139.76 47.6604C139.886 47.5587 139.983 47.4231 140.046 47.2584L141 47.8203C140.898 48.0673 140.739 48.2756 140.511 48.4548C140.283 48.6291 140.027 48.7648 139.741 48.8568C139.455 48.9488 139.169 48.9973 138.893 48.9973C138.53 48.9973 138.196 48.9246 137.886 48.7745C137.576 48.6243 137.319 48.4257 137.096 48.1787C136.873 47.9317 136.704 47.6508 136.583 47.3408C136.467 47.0259 136.404 46.7063 136.404 46.3866Z" fill="#1B3764"/>
<path d="M66.5064 0V0.426229C66.0802 0.440759 65.7557 0.494038 65.5329 0.586065C65.3101 0.678091 65.1648 0.847614 65.097 1.09948C65.0243 1.3465 64.9904 1.73882 64.9904 2.26192V12.8498C64.9904 13.3632 65.0292 13.7459 65.1067 14.0026C65.1842 14.2593 65.3295 14.4288 65.5426 14.516C65.7557 14.6032 66.0754 14.6565 66.5016 14.6855V15.1117C66.0608 15.0827 65.499 15.0633 64.8161 15.0585C64.1331 15.0536 63.4356 15.0488 62.7237 15.0488C61.9535 15.0488 61.2319 15.0536 60.5586 15.0585C59.8805 15.0682 59.338 15.0827 58.9263 15.1117V14.6855C59.4107 14.6565 59.7788 14.5983 60.0258 14.516C60.2728 14.4288 60.4424 14.2593 60.5295 14.0026C60.6167 13.7459 60.6555 13.3632 60.6555 12.8498V1.42884L60.8686 1.38524L55.5117 15.0924H55.1678L49.1473 1.38524V10.927C49.1473 11.8811 49.186 12.6125 49.2635 13.1162C49.341 13.6199 49.5348 13.9832 49.8399 14.206C50.1451 14.4288 50.6343 14.5886 51.3027 14.6855V15.1117C51.0169 15.0827 50.6488 15.0633 50.1935 15.0585C49.7382 15.0536 49.312 15.0488 48.9148 15.0488C48.6 15.0488 48.2803 15.0536 47.9558 15.0585C47.6264 15.0682 47.36 15.0827 47.1469 15.1117V14.6855C47.5877 14.5838 47.917 14.4337 48.1302 14.2254C48.3433 14.0171 48.4837 13.6878 48.5564 13.2325C48.629 12.7772 48.6629 12.1524 48.6629 11.3532V2.26192C48.6629 1.73398 48.629 1.3465 48.5564 1.09948C48.4837 0.852458 48.3384 0.678091 48.1205 0.586065C47.8977 0.494038 47.578 0.440759 47.1469 0.426229V0C47.36 0.0145305 47.6313 0.0290611 47.9558 0.0435916C48.2852 0.0581221 48.6048 0.0629656 48.9148 0.0629656C49.7382 0.0629656 50.5277 0.0581221 51.2833 0.0435916C52.0389 0.0290611 52.7218 0.0145305 53.3321 0L57.5605 9.52234L56.9211 10.2246L60.8686 0.0629656C61.1544 0.0629656 61.4595 0.0629656 61.7889 0.0629656C62.1182 0.0629656 62.4282 0.0629656 62.7285 0.0629656C63.4405 0.0629656 64.138 0.0581221 64.8209 0.0435916C65.5038 0.0290611 66.0657 0.0145305 66.5064 0Z" fill="#1B3764"/>
<path d="M90.3077 0C90.2495 0.711996 90.2108 1.39977 90.1914 2.05849C90.172 2.72205 90.1575 3.23062 90.1575 3.5842C90.1575 3.88449 90.1623 4.17026 90.1769 4.43665C90.1914 4.70789 90.2059 4.93554 90.2205 5.11959H89.7313C89.5618 3.93777 89.276 3.00782 88.8788 2.33457C88.4817 1.65648 88.0118 1.18182 87.479 0.905736C86.9463 0.629656 86.3844 0.489194 85.8032 0.489194H85.5271C85.159 0.489194 84.8781 0.523099 84.694 0.586065C84.51 0.64903 84.384 0.774962 84.3211 0.959015C84.2581 1.14307 84.2242 1.43368 84.2242 1.83569V13.2809C84.2242 13.6635 84.2581 13.9541 84.3211 14.1479C84.384 14.3416 84.51 14.4676 84.694 14.5305C84.8781 14.5935 85.1542 14.6274 85.5271 14.6274H86.2343C86.7041 14.6274 87.1981 14.4724 87.7164 14.1673C88.2346 13.8621 88.7141 13.339 89.1549 12.598C89.5957 11.8569 89.9299 10.8495 90.1575 9.56593H90.6467C90.6031 10.0793 90.5837 10.7332 90.5837 11.5324C90.5837 11.886 90.5886 12.3994 90.6031 13.0581C90.6176 13.7217 90.6612 14.4046 90.729 15.1166C90.0025 15.0875 89.184 15.0682 88.2734 15.0633C87.3628 15.0585 86.5491 15.0536 85.8371 15.0536C85.3237 15.0536 84.6359 15.0536 83.7786 15.0536C82.9165 15.0536 82.0059 15.0585 81.0469 15.0633C80.0879 15.073 79.1918 15.0875 78.3684 15.1166V14.6904C78.8092 14.6613 79.1385 14.6032 79.3516 14.5208C79.5648 14.4385 79.7052 14.2641 79.7779 14.0074C79.8505 13.7507 79.8844 13.3681 79.8844 12.8547V2.26192C79.8844 1.73398 79.8505 1.3465 79.7779 1.09948C79.7052 0.852458 79.5599 0.678091 79.342 0.586065C79.1191 0.494038 78.7995 0.440759 78.3732 0.426229V0C79.1966 0.0145305 80.0927 0.0290611 81.0517 0.0435916C82.0107 0.0581221 82.9213 0.0629656 83.7834 0.0629656C84.6456 0.0629656 85.3334 0.0629656 85.8419 0.0629656C86.4958 0.0629656 87.2417 0.0581221 88.0748 0.0532786C88.9127 0.0484351 89.6538 0.0290611 90.3077 0ZM87.2127 7.29917V7.7254H83.5849V7.29917H87.2127ZM87.8326 4.48509C87.7745 5.29396 87.7503 5.91393 87.76 6.34015C87.7648 6.76638 87.7697 7.15871 87.7697 7.51228C87.7697 7.86586 87.7745 8.25818 87.789 8.68441C87.8036 9.11064 87.8375 9.73061 87.8956 10.5395H87.4064C87.3192 10.0115 87.1448 9.53687 86.8833 9.11064C86.6217 8.68441 86.2827 8.34537 85.871 8.09835C85.4593 7.85133 84.9798 7.7254 84.4422 7.7254V7.29917C84.9846 7.29917 85.4545 7.14902 85.8516 6.84872C86.2488 6.54842 86.5782 6.18516 86.8349 5.74925C87.0916 5.31333 87.2611 4.89194 87.3483 4.48025H87.8326V4.48509Z" fill="#1B3764"/>
<path d="M44.5264 36.2344C45.5241 36.2344 46.3427 36.37 46.982 36.6413C47.6214 36.9125 48.1832 37.237 48.6676 37.6245C48.8226 37.7504 48.9679 37.8182 49.0938 37.8182C49.365 37.8182 49.5394 37.392 49.6266 36.5395H50.1158C50.0867 37.1111 50.0674 37.8037 50.0528 38.6223C50.0383 39.4408 50.0335 40.5258 50.0335 41.8771H49.5443C49.4425 40.8503 49.2682 39.993 49.0212 39.3052C48.7741 38.6174 48.2898 38.0265 47.5778 37.5422C47.2775 37.3436 46.9288 37.1886 46.5316 37.0723C46.1344 36.9609 45.7469 36.9028 45.3788 36.9028C44.5506 36.9028 43.8677 37.1256 43.33 37.5761C42.7876 38.0265 42.3565 38.6077 42.0368 39.3246C41.7171 40.0414 41.4895 40.8261 41.3539 41.6737C41.2183 42.5213 41.1505 43.3447 41.1505 44.139C41.1505 46.7012 41.4653 48.5708 42.0901 49.7526C42.7149 50.9345 43.548 51.5254 44.5893 51.5254C44.817 51.5254 45.0156 51.506 45.1851 51.4624C45.3546 51.4188 45.5048 51.3558 45.6355 51.2687C45.7905 51.1573 45.9068 51.012 45.9794 50.8424C46.0521 50.6729 46.086 50.4598 46.086 50.2031V48.0671C46.086 47.3696 46.0327 46.8514 45.9262 46.5075C45.8196 46.1636 45.6113 45.9311 45.2965 45.8052C44.9817 45.6792 44.5264 45.6066 43.9306 45.5921V45.1658C44.26 45.1804 44.6572 45.1901 45.127 45.1997C45.5968 45.2094 46.086 45.2143 46.5994 45.2191C47.1128 45.2288 47.5826 45.2288 48.0089 45.2288C48.6918 45.2288 49.3215 45.224 49.8978 45.2094C50.4742 45.1949 50.9392 45.1804 51.2976 45.1658V45.5921C50.9392 45.6211 50.7067 45.7325 50.5905 45.936C50.4742 46.1345 50.4209 46.6334 50.4209 47.4326V51.661H49.9947C49.9802 51.4188 49.9221 51.1573 49.8252 50.8715C49.7235 50.5857 49.5636 50.4453 49.336 50.4453C49.2197 50.4453 49.0599 50.4743 48.8565 50.5324C48.6482 50.5906 48.3237 50.7262 47.8829 50.9393C47.3259 51.2105 46.7399 51.4479 46.1199 51.6561C45.4999 51.8644 44.8848 51.9661 44.2745 51.9661C41.5961 51.9661 39.5908 51.288 38.254 49.927C36.9172 48.566 36.2488 46.6722 36.2488 44.2359C36.2488 42.6424 36.6024 41.2474 37.3047 40.0511C38.0119 38.8547 38.9854 37.9248 40.2302 37.2564C41.4701 36.5686 42.9038 36.2344 44.5264 36.2344Z" fill="#1B3764"/>
<path d="M70.5308 36.5342L75.6989 49.8538C75.8974 50.3382 76.1106 50.682 76.3382 50.8903C76.5659 51.0986 76.7741 51.2051 76.9582 51.2197V51.6459C76.4448 51.6168 75.849 51.5975 75.1661 51.5926C74.4831 51.5878 73.7857 51.5829 73.0737 51.5829C72.3472 51.5829 71.6642 51.5878 71.0249 51.5926C70.3855 51.6023 69.8721 51.6168 69.4895 51.6459V51.2197C70.216 51.1906 70.6761 51.0647 70.865 50.8467C71.0588 50.6239 71.0104 50.1541 70.7246 49.4276L67.3099 39.9682L67.7361 39.2223L64.7913 46.8847C64.3215 48.1101 64.089 49.0256 64.0987 49.6407C64.1035 50.251 64.2876 50.6627 64.6411 50.8661C64.9947 51.0744 65.4597 51.1906 66.0264 51.2197V51.6459C65.4984 51.6168 65.0286 51.5975 64.6072 51.5926C64.1858 51.5878 63.7306 51.5829 63.2317 51.5829C62.9604 51.5829 62.6747 51.5878 62.3647 51.5926C62.0595 51.6023 61.798 51.6168 61.5849 51.6459V51.2197C61.9142 51.1616 62.2339 50.9533 62.5584 50.59C62.8781 50.2268 63.2075 49.6068 63.5513 48.7204L68.2931 36.5293C68.637 36.5584 69.01 36.5729 69.412 36.5729C69.814 36.5777 70.187 36.5632 70.5308 36.5342ZM71.2767 45.4995V45.9257H64.9124L65.1255 45.4995H71.2767Z" fill="#1B3764"/>
<path d="M102.168 36.5342V36.9604C101.742 37.0476 101.418 37.1929 101.195 37.4109C100.972 37.624 100.827 37.9533 100.759 38.4038C100.686 38.8542 100.652 39.4839 100.652 40.2928V51.6508C100.439 51.6217 100.207 51.6072 99.9598 51.6072C99.7127 51.6072 99.4415 51.6217 99.1606 51.6508L89.7012 41.3147V47.466C89.7012 48.4202 89.74 49.1515 89.8175 49.6553C89.895 50.159 90.0887 50.5223 90.3938 50.7451C90.699 50.9679 91.1882 51.1277 91.8566 51.2246V51.6508C91.5708 51.6217 91.2027 51.6024 90.7474 51.5975C90.2921 51.5927 89.8659 51.5878 89.4687 51.5878C89.1539 51.5878 88.8342 51.5927 88.5097 51.5975C88.1803 51.6072 87.914 51.6217 87.7008 51.6508V51.2246C88.1416 51.1229 88.471 50.9727 88.6841 50.7644C88.8972 50.5562 89.0376 50.2268 89.1103 49.7715C89.183 49.3162 89.2169 48.6914 89.2169 47.8922V38.7961C89.2169 38.2682 89.183 37.8807 89.1103 37.6337C89.0376 37.3867 88.8923 37.2123 88.6744 37.1203C88.4516 37.0282 88.1319 36.975 87.7008 36.9604V36.5342C87.914 36.5487 88.1852 36.5633 88.5097 36.5778C88.8391 36.5923 89.1587 36.5972 89.4687 36.5972C89.8223 36.5972 90.1759 36.5923 90.5149 36.5778C90.8588 36.5633 91.1639 36.5487 91.4352 36.5342L100.168 45.7562V40.719C100.168 39.7648 100.129 39.0383 100.052 38.5297C99.9743 38.026 99.7854 37.6579 99.4851 37.4302C99.1848 37.2026 98.6956 37.0476 98.0127 36.9604V36.5342C98.2984 36.5487 98.6665 36.5633 99.1218 36.5778C99.5771 36.5923 100.003 36.5972 100.401 36.5972C100.73 36.5972 101.05 36.5923 101.369 36.5778C101.689 36.5633 101.955 36.5487 102.168 36.5342Z" fill="#1B3764"/>
<path d="M47.3451 84.8148C48.0135 84.8148 48.5318 84.9698 48.9047 85.2749C49.2728 85.5801 49.4617 86.0402 49.4617 86.6505C49.4617 87.2608 49.2777 87.7209 48.9047 88.0261C48.5366 88.3312 48.0135 88.4862 47.3451 88.4862C46.6622 88.4862 46.1391 88.3312 45.7758 88.0261C45.4125 87.7209 45.2333 87.2608 45.2333 86.6505C45.2333 86.0402 45.4125 85.5801 45.7758 85.2749C46.1391 84.965 46.6622 84.8148 47.3451 84.8148Z" fill="#1B3764"/>
<path d="M68.991 73.0693V73.4955C68.5647 73.51 68.2402 73.5633 68.0174 73.6553C67.7946 73.7473 67.6493 73.9169 67.5815 74.1687C67.5088 74.4158 67.4749 74.8081 67.4749 75.3312V85.9191C67.4749 86.4325 67.5137 86.8151 67.5912 87.0718C67.6687 87.3285 67.814 87.4981 68.0271 87.5853C68.2402 87.6724 68.5599 87.7257 68.9861 87.7548V88.181C68.5744 88.1519 68.0416 88.1326 67.3974 88.1277C66.7484 88.1229 66.0897 88.118 65.4213 88.118C64.6512 88.118 63.9295 88.1229 63.2562 88.1277C62.5781 88.1374 62.0357 88.1519 61.624 88.181V87.7548C62.0647 87.7257 62.3941 87.6676 62.6072 87.5853C62.8203 87.5029 62.9608 87.3285 63.0334 87.0718C63.1061 86.8151 63.14 86.4325 63.14 85.9191V75.3312C63.14 74.8032 63.1061 74.4158 63.0334 74.1687C62.9608 73.9217 62.8155 73.7473 62.5975 73.6553C62.3747 73.5633 62.055 73.51 61.6288 73.4955V73.0693C62.0405 73.0838 62.5878 73.0983 63.2611 73.1128C63.9392 73.1274 64.6609 73.1322 65.4261 73.1322C66.0945 73.1322 66.7533 73.1274 67.4023 73.1128C68.0513 73.0983 68.5793 73.0838 68.991 73.0693ZM76.8035 73.0693V73.4761C76.3192 73.602 75.7816 73.8394 75.1906 74.1784C74.5997 74.5223 73.9701 75.0696 73.3017 75.8204L69.3736 80.2812L71.1027 78.0193L76.1642 86.4519C76.3482 86.7522 76.5323 86.9992 76.7212 87.1978C76.9052 87.3964 77.1571 87.5804 77.4671 87.7548V88.181C76.8713 88.1519 76.232 88.1326 75.5587 88.1277C74.8807 88.1229 74.2365 88.118 73.6262 88.118C73.2968 88.118 72.8948 88.1229 72.4105 88.1277C71.9261 88.1374 71.3158 88.1519 70.5748 88.181V87.7548C71.2432 87.7257 71.6307 87.6482 71.7372 87.5223C71.8438 87.3964 71.7905 87.1542 71.5774 86.7958L68.4824 81.5648C68.3419 81.3081 68.2111 81.1143 68.0997 80.9884C67.9835 80.8625 67.8769 80.7656 67.7704 80.7123C67.6638 80.6542 67.5234 80.6203 67.3538 80.6058V80.1553C67.9787 80.1262 68.5696 79.918 69.1266 79.5257C69.6836 79.1333 70.352 78.4988 71.1318 77.6173L71.8583 76.8036C72.4541 76.1352 72.7737 75.554 72.8076 75.0648C72.8415 74.5756 72.6914 74.1881 72.3572 73.912C72.023 73.6359 71.5871 73.4906 71.0446 73.4761V73.0693C71.6403 73.0838 72.1925 73.0983 72.7011 73.1128C73.2048 73.1274 73.8587 73.1322 74.653 73.1322C75.52 73.1371 76.2368 73.1128 76.8035 73.0693Z" fill="#1B3764"/>
<path d="M90.8114 84.8148C91.4798 84.8148 91.9981 84.9698 92.371 85.2749C92.7392 85.5801 92.928 86.0402 92.928 86.6505C92.928 87.2608 92.744 87.7209 92.371 88.0261C92.0029 88.3312 91.4798 88.4862 90.8114 88.4862C90.1285 88.4862 89.6054 88.3312 89.2421 88.0261C88.8789 87.7209 88.6997 87.2608 88.6997 86.6505C88.6997 86.0402 88.8789 85.5801 89.2421 85.2749C89.6054 84.965 90.1285 84.8148 90.8114 84.8148Z" fill="#1B3764"/>
<path d="M36.7919 11.5732L10.8698 34.9607L11.8432 36.0396L37.7653 12.652L36.7919 11.5732Z" fill="#1B3764"/>
<path d="M101.817 11.5703L100.844 12.6493L126.77 36.0334L127.743 34.9544L101.817 11.5703Z" fill="#1B3764"/>
<path d="M12.3512 57.832L11.378 58.9111L37.3036 82.2951L38.2769 81.2161L12.3512 57.832Z" fill="#1B3764"/>
<path d="M127.276 57.8278L101.354 81.2153L102.327 82.2942L128.25 58.9067L127.276 57.8278Z" fill="#1B3764"/>
</svg>
