<svg width="26" height="30" viewBox="0 0 26 30" fill="none" xmlns="http://www.w3.org/2000/svg">
<path d="M3.78165 23.7714H26V0H3.72033C1.66854 0.00680952 0.00674528 1.68443 0 3.75576V25.644H0.000613208C0.000613208 25.6533 0 25.6626 0 25.6719C0 27.8633 1.70349 29.7143 3.72033 29.7143H26V27.7333H3.72033C2.80052 27.7333 1.96226 26.7509 1.96226 25.6719C1.96226 24.6418 2.79561 23.7714 3.78165 23.7714ZM5.88679 2.00138H11.7736V12.6998L8.80566 10.0694L5.88679 12.6843V2.00138ZM1.96226 3.77124C1.9592 2.78695 2.74533 1.98652 3.72033 1.98095H3.92453H5.88679H3.92453V15.3524H5.86472L8.81302 12.7115L11.792 15.3524H13.7358V1.98095H24.0377V21.7905H5.8917H3.92943H3.78165C3.1433 21.7905 2.5166 21.9589 1.96288 22.2783V3.77124H1.96226Z" fill="#FFCA42"/>
</svg>
